<svg xmlns="http://www.w3.org/2000/svg" xmlns:xlink="http://www.w3.org/1999/xlink" width="412.254" height="331.5" viewBox="0 0 412.254 331.5">
  <defs>
    <linearGradient id="linear-gradient" y1="0.5" x2="1" y2="0.5" gradientUnits="objectBoundingBox">
      <stop offset="0" stop-color="#f0f2f5"/>
      <stop offset="0.99" stop-color="#f5f7f8"/>
    </linearGradient>
    <linearGradient id="linear-gradient-2" y1="0.5" x2="1" y2="0.5" gradientUnits="objectBoundingBox">
      <stop offset="0" stop-color="#3da1c8"/>
      <stop offset="0.01" stop-color="#82d6f6"/>
      <stop offset="1" stop-color="#5bbde4"/>
    </linearGradient>
    <linearGradient id="linear-gradient-3" y1="0.5" x2="1" y2="0.5" gradientUnits="objectBoundingBox">
      <stop offset="0" stop-color="#3dadd9"/>
      <stop offset="0.44" stop-color="#5dc4ec"/>
      <stop offset="0.89" stop-color="#44b5e2"/>
      <stop offset="1" stop-color="#4395b5"/>
    </linearGradient>
    <linearGradient id="linear-gradient-4" x1="0" x2="1" xlink:href="#linear-gradient-2"/>
    <linearGradient id="linear-gradient-5" x1="-35.251" y1="5.728" x2="-35.928" y2="4.786" gradientUnits="objectBoundingBox">
      <stop offset="0" stop-color="#753200"/>
      <stop offset="1" stop-color="#a04400"/>
    </linearGradient>
    <linearGradient id="linear-gradient-6" x1="-36.403" y1="6.024" x2="-37.068" y2="5.048" xlink:href="#linear-gradient-5"/>
    <linearGradient id="linear-gradient-7" x1="-77.886" y1="32.31" x2="-77.122" y2="32.31" xlink:href="#linear-gradient-5"/>
    <linearGradient id="linear-gradient-8" x1="-11.296" y1="4.245" x2="-10.486" y2="3.97" xlink:href="#linear-gradient-5"/>
    <linearGradient id="linear-gradient-9" x1="-13.117" y1="10.784" x2="-12.54" y2="10.256" gradientUnits="objectBoundingBox">
      <stop offset="0" stop-color="#a04400" stop-opacity="0"/>
      <stop offset="0.18" stop-color="#9a4100" stop-opacity="0.141"/>
      <stop offset="0.52" stop-color="#8a3b00" stop-opacity="0.522"/>
      <stop offset="0.9" stop-color="#753200"/>
    </linearGradient>
    <linearGradient id="linear-gradient-10" x1="-16.995" y1="15.323" x2="-17.745" y2="16.499" gradientUnits="objectBoundingBox">
      <stop offset="0" stop-color="#a04400"/>
      <stop offset="1" stop-color="#753200"/>
    </linearGradient>
    <linearGradient id="linear-gradient-11" x1="-141.523" y1="43.612" x2="-142.216" y2="44.008" xlink:href="#linear-gradient-5"/>
    <linearGradient id="linear-gradient-12" x1="0.001" y1="0.5" x2="1.002" y2="0.5" xlink:href="#linear-gradient-5"/>
    <linearGradient id="linear-gradient-13" x1="0.001" y1="0.499" x2="1" y2="0.499" xlink:href="#linear-gradient-5"/>
    <linearGradient id="linear-gradient-14" x1="0" y1="0.498" x2="0.997" y2="0.498" xlink:href="#linear-gradient-5"/>
    <linearGradient id="linear-gradient-15" x1="0" y1="0.5" x2="1" y2="0.5" xlink:href="#linear-gradient-5"/>
    <linearGradient id="linear-gradient-16" x1="-0.001" y1="0.5" x2="0.999" y2="0.5" xlink:href="#linear-gradient-5"/>
    <linearGradient id="linear-gradient-17" x1="0" y1="0.5" x2="1" y2="0.5" xlink:href="#linear-gradient-5"/>
    <linearGradient id="linear-gradient-18" x1="0" y1="0.5" x2="1" y2="0.5" xlink:href="#linear-gradient-5"/>
    <linearGradient id="linear-gradient-19" x1="-0.001" y1="0.5" x2="1" y2="0.5" xlink:href="#linear-gradient-5"/>
  </defs>
  <g id="clusters-_-evenement-art" data-name="clusters-&amp;-evenement-art" transform="translate(-10.804 -96.066)">
    <path id="Path_1289" data-name="Path 1289" d="M371.63,276.9C338.822,209.835,245,111.634,123.07,111.35c-127.229-.264-139.531,125.92-70.959,160.989S20.42,351.138,92.1,395.066c72.545,44.463,227.585,40.285,265.748,5.7S385.8,305.875,371.63,276.9Z" transform="translate(0 -5.18)" fill="url(#linear-gradient)"/>
    <rect id="Rectangle_978" data-name="Rectangle 978" width="198.551" height="52.912" transform="translate(124.65 99.063)" fill="#2587ae"/>
    <rect id="Rectangle_979" data-name="Rectangle 979" width="25.041" height="139.313" transform="translate(323.201 151.975)" fill="url(#linear-gradient-2)"/>
    <rect id="Rectangle_980" data-name="Rectangle 980" width="25.041" height="52.912" transform="translate(323.201 99.063)" fill="url(#linear-gradient-3)"/>
    <rect id="Rectangle_981" data-name="Rectangle 981" width="198.551" height="139.313" transform="translate(124.65 151.975)" fill="url(#linear-gradient-4)"/>
    <path id="Path_1290" data-name="Path 1290" d="M167.578,180.637S165.542,299.205,137.5,319.943H327.688s38.454-28.426,38.454-139.313Z" transform="translate(-42.942 -28.662)" fill="#fff"/>
    <path id="Path_1291" data-name="Path 1291" d="M204.67,231.75s166,2.142,168.148,0" transform="translate(-65.708 -45.988)" fill="none" stroke="#707070" stroke-miterlimit="10" stroke-width="1.8"/>
    <path id="Path_1292" data-name="Path 1292" d="M193.14,290.41s166,2.142,168.148,0" transform="translate(-61.8 -65.87)" fill="none" stroke="#707070" stroke-miterlimit="10" stroke-width="1.8"/>
    <path id="Path_1293" data-name="Path 1293" d="M176.62,349.07s166,2.142,168.148,0" transform="translate(-56.201 -85.752)" fill="none" stroke="#707070" stroke-miterlimit="10" stroke-width="1.8"/>
    <path id="Path_1294" data-name="Path 1294" d="M261.762,198.06s-2.684,100.059-20.572,116.711" transform="translate(-78.086 -34.569)" fill="none" stroke="#707070" stroke-miterlimit="10" stroke-width="1.8"/>
    <path id="Path_1295" data-name="Path 1295" d="M366.035,198.06s2.591,77.7-20.665,116.711" transform="translate(-113.396 -34.569)" fill="none" stroke="#707070" stroke-miterlimit="10" stroke-width="1.8"/>
    <path id="Path_1296" data-name="Path 1296" d="M303.8,252.451l9.255,13.38a2.036,2.036,0,0,0,3.352,0l16.322-23.521" transform="translate(-99.307 -49.567)" fill="none" stroke="#1178a1" stroke-linecap="round" stroke-miterlimit="10" stroke-width="7.22"/>
    <text id="_15" data-name="15" transform="translate(147.285 176.358)" fill="#1f1844" font-size="19" font-family="OpenSans-Bold, Open Sans" font-weight="700"><tspan x="0" y="0">15</tspan></text>
    <path id="Path_1297" data-name="Path 1297" d="M223.757,185.49c-9.143.4-16.189,24.975-3.477,27.923s25.841-3.576,24.248-12.917-9.916-12.917-9.916-12.917" transform="translate(-68.658 -30.309)" fill="none" stroke="#d5527e" stroke-linecap="round" stroke-miterlimit="10" stroke-width="2.71"/>
    <path id="Path_1298" data-name="Path 1298" d="M523.784,533.128l-3.054,8.237,1.17,8.508,2.287,2.029,9.585-2.876,2.353-3.643-2.453-12.9Z" transform="translate(-172.832 -147.916)" fill="url(#linear-gradient-5)"/>
    <path id="Path_1299" data-name="Path 1299" d="M576.159,535.07l-3.153,5.831-1.256,9.539,3.2,3.371,9.8-2.049,2.664-3.424-1.342-13.069Z" transform="translate(-190.124 -148.794)" fill="url(#linear-gradient-6)"/>
    <path id="Path_1300" data-name="Path 1300" d="M604.209,142.539c.945-1.481,2.347-5.646,2.962-6.908-2.221-.271-4.938,2.453-5.441,4.389C602.312,140.093,603.713,141.963,604.209,142.539Z" transform="translate(-200.286 -13.403)" fill="url(#linear-gradient-7)"/>
    <path id="Path_1301" data-name="Path 1301" d="M567.3,174.6c-6.326-.595-11.9-9.671-11.9-9.671a52.014,52.014,0,0,1,0-6.234l1.943-3.7,1.666.469.112-1.223a20.185,20.185,0,0,0,1.983.4c-4.33-1.1-10.934-4.687-12.316-12.031-.972-5.117,1.395-9.473,1.772-12.375s-.568-5.11-.721-8.429c-.192-4.251,2.1-9.255,4.3-10.266,9.916-4.489,26.019,2.644,26.019,2.644s5.289,3.147,1.719,14.543c.621-.317-.807,2.023,0,1.983a5,5,0,0,1,3.933,1.17c1.924,1.877,1.481,5.85-3.305,10.835l-.165.178a26.2,26.2,0,0,0-.588,3.305,5.023,5.023,0,0,1-.066.516c-.251,2.049-.582,4.7-.9,7.272-.45,3.7-.7,6.908-.813,8.151C579.649,165.122,573.634,175.19,567.3,174.6Z" transform="translate(-182.264 -4.738)" fill="url(#linear-gradient-8)"/>
    <path id="Path_1302" data-name="Path 1302" d="M583.353,128.756c3.59-11.417-1.719-14.543-1.719-14.543s-16.13-7.14-26.019-2.644c-1.554.694-2.063,2.929-2.644,4.819,4.039-2.512,11.357-.4,17.234.489,2.81.43,1.177,3.305,1.95,3.53,6.392-.364,10.121,3.305,7.933,11.978l3.18-1.653C582.639,130.62,583.948,128.452,583.353,128.756Z" transform="translate(-183.759 -4.751)" fill="url(#linear-gradient-9)"/>
    <path id="Path_1303" data-name="Path 1303" d="M590.7,121.612a28.179,28.179,0,0,0,.866-7.338c.2-6.657-3.305-10.385-9.632-13.287l-6.108-2.373c-.555-.218-10.914-3.735-16.586-2.129-2.129.6-5.236,2.611-5.665,4.376-1.1,4.508-1.811,6.882-1.666,10.577,4.548-8.627,6.611,3.4,20.586-2.962,2.585-1.183,1.183,3.305,1.944,3.523,7.212-.41,11.046,4.277,6.8,15.561,1.983-.575,3.385-1.322,4.469-1.21C587.456,125.043,590.384,122.663,590.7,121.612Z" transform="translate(-183.394)"/>
    <path id="Path_1304" data-name="Path 1304" d="M587.055,163.453c-6.108,7.933-15.152,10.2-20.678,10.7l-1.825-1.322c-.5-.059,2.552-1.276,1.937-1.428,4.132-2.029,15.667-7.8,21.392-11.9l-.165.178a26.184,26.184,0,0,0-.588,3.305C587.1,163.136,587.074,163.281,587.055,163.453Z" transform="translate(-187.666 -21.5)" fill="url(#linear-gradient-10)"/>
    <path id="Path_1305" data-name="Path 1305" d="M581.486,141.916c.264-.178,1.058-.588,1.058-.588l.066-2.267-3.55,1.23a1.9,1.9,0,0,0-1.263,1.56l-.965,7.873c-4.859,1.481-16.335,6.373-18.219,6.2-2.386-.212-2.413-3.305-3.821-2.935s-1.672,2.115-2.532,1.891a13.407,13.407,0,0,1-3.53-4.191s.225,5.242.317,6.181c.225,2.168,3.5,7.272,3.5,7.272a2.089,2.089,0,0,0,1.527,1.025l5.579.754,3.16-.978c4.356-1.19,15.363-7.5,15.707-8.66C580.488,149.472,578.815,143.707,581.486,141.916Z" transform="translate(-182.322 -14.572)"/>
    <path id="Path_1306" data-name="Path 1306" d="M598.88,146.515s1.811-1.983,2.73-.2-1.137,4.363-1.137,4.363Z" transform="translate(-199.32 -16.778)" fill="url(#linear-gradient-11)"/>
    <path id="Path_1307" data-name="Path 1307" d="M584.485,557.9s2.909,1.249-2.644,14.074c-1.322,2.995-7.159,4.773-12.884,4.627s-8.191-1.031-8.594-2.644,3.054-6.736,3.054-6.736Z" transform="translate(-186.254 -156.532)"/>
    <path id="Path_1308" data-name="Path 1308" d="M585.225,552.125s.053-2.724-1.183-3.352c-.575,3.219-2.135.721-3.9-1.1-1.534-1.567-2.142-2.862-5.07-3.094s-3.847,2.148-5.07,3.094c-2.168,1.673-2.215.661-2.909,3.14-.615,2.168-2.5,10.081-4.178,13.268a1.877,1.877,0,0,0,.271,2.221c2.717,2.677,8.858,1.706,12.223,1.144,3.814-.661,7.272-3.014,8.746-8.1S585.225,552.125,585.225,552.125Z" transform="translate(-187.046 -152.012)" fill="#8bcee8"/>
    <path id="Path_1309" data-name="Path 1309" d="M524.774,561.19v3.669a2.644,2.644,0,0,1-2.254,2.591c-2.572.357-6.723.959-8.971,1.4-3.424.661-11.6,3.642-16.216,3.966s-9.817.37-12.124-1.117-1.785-4.984-1.785-4.984Z" transform="translate(-160.17 -157.647)"/>
    <path id="Path_1310" data-name="Path 1310" d="M523.487,544.186s2.38,9.076,1.044,10.412-11.377,1.983-14.054,3.722-13.611,4.389-19.409,3.966-7.437-1.19-7.589-2.75,11.529-3.722,13.611-5.289,3.345-7.067,6.247-8.924.661-5.209,3.722-5.355,2.234,4.76,6.769,5.057A40.792,40.792,0,0,0,523.487,544.186Z" transform="translate(-160.206 -150.453)" fill="#8bcee8"/>
    <path id="Path_1311" data-name="Path 1311" d="M574.579,298.19l-29.7,7.146-15.806-2.882s-23.8,67.746-25.4,75.441,11.4,78.825,11.4,78.825H530.8s1.606-20.2,0-38.474-4.627-27.89-4.627-31.731,21.009-44.252,21.009-44.252,4.938,24.1,6.875,41.363c3.411,30.462-5.95,75.361-5.95,75.361h17.611s6.485-12.316,11.932-42.13-5.56-28.578.6-52.456C588.012,326.2,574.579,298.19,574.579,298.19Z" transform="translate(-167.007 -68.507)" fill="#1178a1"/>
    <path id="Path_1312" data-name="Path 1312" d="M599.63,175.2h0c0,1.2-1.124,10.656-3.16,8.534-1.375-1.441-6-2.162-9.01-2.479,2.737-3.451,8.171-12.759,8.171-12.759S599.63,174.119,599.63,175.2Z" transform="translate(-195.449 -24.55)" fill="#3dadd9"/>
    <path id="Path_1313" data-name="Path 1313" d="M559.414,248.055c-.5.8-11.787,5.117-12.455,5.467-1.23.661-12.8,1.54-18.959,1.8v-.483s-8.924.139-12.56-3.345-4.046-6-2.367-12.963,10.313-40.008,11.569-42.1,3.9-7.106,7.272-8.085a40.934,40.934,0,0,0,6.194-2.6c-.43.483-.734.892-.721,1.1.033.522-1.183,1.811-1.117,2.162a10.63,10.63,0,0,1-.727,2.122,8.728,8.728,0,0,0-.522,2.334c-.066,1.044.35,1.567,1.778,4.528s3.206,6.24,3.206,6.24l2.7,8.006.344-.271c.264,1.56.859,4.746,1.712,9.6a61.076,61.076,0,0,0,7.715,19.3C552.222,241.022,559.414,248.055,559.414,248.055Z" transform="translate(-169.915 -30.397)" fill="#8bcee8"/>
    <path id="Path_1314" data-name="Path 1314" d="M600.981,218.68q-.06.873-.145,1.785c-.84,9.017-5.665,18.682-6.875,26.02s-4.132,34.713-4.132,34.713-31.526,5.9-40.841,3.457-12.818-6.313-12.818-6.313V266.488c6.161-.264,17.73-1.157,18.959-1.8a5.645,5.645,0,0,0,1.8-1.983l8.977-3.133a8.72,8.72,0,0,0,6.128,3.094c4.74.278,15.429-13.664,17.657-18.589C591.144,240.852,597.061,227.485,600.981,218.68Z" transform="translate(-178.065 -41.558)" fill="#8bcee8"/>
    <path id="Path_1315" data-name="Path 1315" d="M563.428,181.09a7.663,7.663,0,0,1-1.983-1.712c-.337-.5-.707-.767-1.078-.516a6.341,6.341,0,0,0-2.8-1.474c-1.256-.073-2.228-.906-3.1-.278s-1.289,2.717-1.289,2.717-.595-.416-1.395.661c-.483.661-1.368,1.527-1.983,2.248-.43.483-.734.892-.721,1.1.033.522-1.183,1.811-1.117,2.162a10.631,10.631,0,0,1-.727,2.122,8.724,8.724,0,0,0-.522,2.334c-.066,1.044.35,1.567,1.778,4.528s3.206,6.24,3.206,6.24l2.7,8.006.344-.271,7.933-6.254c-.78-1.725-1.818-4.469-.879-5.156,1.395-1.018,2.228-6.783,2.228-6.783l.172-.112c0-1.263-.046-3.246.033-4.7C564.4,183.668,563.772,181.229,563.428,181.09Zm-3.206,3.867c-.212.8-.311,1.983-1.183,1.322a13.282,13.282,0,0,1-2.439-2.79c0-.139.033-2.3,0-2.585s-.311-.906.245-.873a23.435,23.435,0,0,1,2.71.807,5.132,5.132,0,0,0,.185.516,5.42,5.42,0,0,1,.476,3.6Z" transform="translate(-181.637 -27.39)" fill="url(#linear-gradient-12)"/>
    <path id="Path_1316" data-name="Path 1316" d="M578.719,271.307l-9,3.133-1.871.661a23.786,23.786,0,0,1-.555-6.551c.218-1.56,5.176-5.837,5.474-5.85.3.469.886,1.877,1.19,2.32A58.171,58.171,0,0,0,578.719,271.307Z" transform="translate(-188.585 -56.478)" fill="url(#linear-gradient-13)"/>
    <path id="Path_1317" data-name="Path 1317" d="M540.78,257.317l.9-14.5L538.07,258.9s3.048.661,3.4.787,8.224,1.322,11.152,1.117c1.56-.106-12.131.291,4.29-1.091Z" transform="translate(-178.709 -49.74)" fill="#3dadd9"/>
    <path id="Path_1318" data-name="Path 1318" d="M606.877,190.176c-1.322-1.858-4.627-4.462-8.27-6.611-2.644-1.553-6.65-3.8-8.64-4.905,0,1.2-1.124,10.656-3.16,8.534-1.375-1.441-6-2.162-9.01-2.479a6.044,6.044,0,0,1-1.124,1.177l-8.29,5.374-.172.112s-.84,5.764-2.228,6.783c-.939.661.1,3.431.879,5.156l-7.933,6.254c.264,1.56.859,4.746,1.712,9.6a56.989,56.989,0,0,0,7.08,18.741l.264.43a16.218,16.218,0,0,0,.906,1.362,58.181,58.181,0,0,0,4.74,6.293,8.72,8.72,0,0,0,6.128,3.094c4.74.278,15.429-13.664,17.657-18.589,1.461-3.226,7.377-16.56,11.3-25.391C609.217,197.11,608.087,191.908,606.877,190.176Z" transform="translate(-185.779 -27.994)" fill="#8bcee8"/>
    <path id="Path_1319" data-name="Path 1319" d="M595.617,241.642s.84,1.256.2,1.983-2.155,2.056-2.155,2.056-4.039-3.18-5.507-6.036a9.962,9.962,0,0,0,1.468-2.082,6.718,6.718,0,0,1,1.567-2.122c.245-.139,1.811-1.534,2.367-1.322s.159,1.791.145,1.844c.112-.086,2.558-1.983,3.305-.661a2.452,2.452,0,0,1-.35,2.644s1.15-.212,1.289.8S595.617,241.642,595.617,241.642Z" transform="translate(-195.686 -46.783)" fill="url(#linear-gradient-14)"/>
    <path id="Path_1320" data-name="Path 1320" d="M570.93,215.97l10.6,16.943,1.587-2.135Z" transform="translate(-189.846 -40.64)" fill="#3dadd9"/>
    <path id="Path_1321" data-name="Path 1321" d="M140.66,163.046c4.561,10-1.765,19.554-4.449,21.194-4.112,2.519-6.882,2.221-8.878,5.824-1.322,2.36-.522,5.434.41,9.09a25.527,25.527,0,0,0-3.742-.311,77.548,77.548,0,0,0-16.732,1.54l1.9-10.96c.74.126,3.4.588,4.026.615,3.8.2,10.577-.8,10.1-4.806s2.836-3.2,5.374-6,2.935-4.2,1.322-8.006-1.8-3.808.2-5.606a17.849,17.849,0,0,0,3.4-4.627c1.2,2.6,1.8,6.207,3.808,5.4S139.325,162.887,140.66,163.046Z" transform="translate(-32.696 -22.005)" fill="url(#linear-gradient-15)"/>
    <path id="Path_1322" data-name="Path 1322" d="M133.3,136.271a20.454,20.454,0,0,0-2.8,4.2c-1,1.6-2.2,2.2-3.543,2.029h0c-1.322-.159-1.263,2.578-3.252,3.378s-2.6-2.8-3.808-5.4a17.849,17.849,0,0,1-3.4,4.627c-1.983,1.8-1.8,1.8-.2,5.606s1.2,5.2-1.322,8.005-5.87,1.983-5.374,6-6.307,5.011-10.1,4.806a17.656,17.656,0,0,1-2.056-.245c-3.748-.615-8.554-2.122-10.577-1.983-2.4.2-6.8-2.2-8.005-5.414s-4.2-3.59-5.976-5-1.2-4.006-.4-8.409-2.4-3.6-4.806-5.011.6-3.8,2.8-8.006-2.8-3.4-2.8-6.809,3-3.4,5.4-4.2,1.4-5.6,3.6-9.407,7.807-.2,7.609-4.627,1.2-3.8,4.2-4.806,1.924.04,5.09-3.53c3.966-4.475,7.893,1.243,14.1,1.044s4.627-.912,8.23.291,5.414,6.8,6.611,8.805,6.2,1.983,7.206,3.6.6,6.2,2.2,8.2,3.6,2.406,1.4,4.409S135.675,133.269,133.3,136.271Z" transform="translate(-18.971 -1.457)"/>
    <path id="Path_1323" data-name="Path 1323" d="M71.391,274.518s-30.012,2.71-31.85-2.2c-1.263-3.411-.423-8.706,3.5-15.4l15.125,9.1,5.289-4.277Z" transform="translate(-9.555 -54.519)" fill="url(#linear-gradient-16)"/>
    <path id="Path_1324" data-name="Path 1324" d="M130.856,474.693c-.4,11.126-5.13,34.891-6.307,41.852l-.258,1.54s-7.073.826-9.718-.661a5.846,5.846,0,0,0,.542.251c-7.331-37.3-1-59.959-3.53-70.37-1.448-6.029-2.532-11.9-3.266-16.355a184.255,184.255,0,0,0,22.04,1.454,30.982,30.982,0,0,1-1.031,6.888C128.714,442.063,131.318,462.007,130.856,474.693Z" transform="translate(-33.052 -113.504)" fill="url(#linear-gradient-17)"/>
    <path id="Path_1325" data-name="Path 1325" d="M229,181.888c-1.137.212,1.983,8.078,1.858,9.255h0l1.15,2.367,1.249.628c.337-.469.416-.9.661-1.243l-.139-2.776C233.61,189.834,230.093,181.69,229,181.888Z" transform="translate(-73.87 -29.087)" fill="#d5527e"/>
    <path id="Path_1326" data-name="Path 1326" d="M219.048,201.863c0-1.7.106-1.838-.807-2.426.317-2.267-1.223-2.261-1.223-2.261s1.078-1.772.4-2.869c-.549-.853-2.585-.436-3.49-.212l-.443.126v-.053l.139,2.776c.106-.165-1.924,3.966-2.572,3.563s.661-2.948.661-2.948l-1.362-3.629c0,.059-.754,1.322-.767,1.362a10.809,10.809,0,0,1-1.322,3.629c-.608,1.064-.132,2.129-2.34,5.229s-3.53,11.463-3.53,11.463S181.242,238.83,169.237,248.3c-2.585,2.043,8.918,11.119,11.079,9.83,6.062-3.629,28.254-35.413,28.254-35.413s6.736-8.462,8.786-12.653a14.94,14.94,0,0,0,1.692-8.2Z" transform="translate(-53.571 -33.123)" fill="url(#linear-gradient-18)"/>
    <path id="Path_1327" data-name="Path 1327" d="M131.981,263.528c3.51-5.877,3.365-9.01,4.337-16.388-5.95-7.933-19.4-24.7-25.5-28.981-1.322-1.811-10.418-3.193-24.79-4.588a32.392,32.392,0,0,0-21.207,5.341c-5.52,3.709-11.582,8.224-14.636,12.8s-5.289,8.065-7.021,11l16.421,8.554,5.289-4.277c.364,2.492,7.827,18.206,4.033,30.495-3.669,11.9-16.1,23.613-18.827,77.345h0c5.56.39,13.314,1.858,22.126,3.424,4.436.787,29.748.892,37.489.886h0c13.783-61.6-2.261-76.624-3.18-87-.383-4.33,1.811-11.6,4.5-18.616C113.656,255.059,125.211,261.65,131.981,263.528Z" transform="translate(-10.967 -39.774)" fill="#f2e205"/>
    <path id="Path_1328" data-name="Path 1328" d="M67.247,430.838c-1.084,2.843-2.948,8.938-5.791,11.9-4.165,4.35-20.751,55.906-22.073,62.966,0,0-.053.456-.073.569C33.427,502.4,32.7,502,28.442,504.95h0c-.145.126.806-.628.661-.5,2.294-12.831,2.585-39.155,5.17-49.236a53.617,53.617,0,0,1,10.055-19.805c.661-.734,1.249-5.4,1.706-7.933C51.513,427.956,58.9,429.351,67.247,430.838Z" transform="translate(-5.973 -112.328)" fill="url(#linear-gradient-19)"/>
    <path id="Path_1329" data-name="Path 1329" d="M34.551,582.506H25.534s-5.645-1.157-6.254-6.492,1.375-8.594,1.21-11.549c-.112-2.254-1.282-7.972,1.633-10.286a5.661,5.661,0,0,1,4.2-.932c4.178.4,7.4,2.367,7.272,8.1-.165,5.553.859,9.975,2.38,12.944.04.093.093.165.126.258C37.691,577.529,36.607,582.506,34.551,582.506Z" transform="translate(-2.834 -154.94)"/>
    <path id="Path_1330" data-name="Path 1330" d="M39.5,553.13c-.053,2.254-1.375,12.375-2.036,17.188-1.52-2.968-2.545-7.391-2.38-12.944.145-5.738-3.081-7.7-7.272-8.1a5.611,5.611,0,0,0-4.178.932l3.153-6.611h0c4.29-3.431,5.447-2.876,11.516,1.831A34.6,34.6,0,0,1,39.5,553.13Z" transform="translate(-4.347 -150.936)"/>
    <path id="Path_1331" data-name="Path 1331" d="M131.237,576.094c-.073.145-.2.383-.35.661-4.178,1.891-7.629,2.307-12.944,2.181a8.775,8.775,0,0,1-5.593-1.818c.4-3.966,2.75-14.134,3.6-15.78,2.644,1.468,9.718.661,9.718.661l.258-1.54c.859,1.415,2.71,9.4,4.013,9.876C131.693,570.944,131.62,575.413,131.237,576.094Z" transform="translate(-34.417 -157.399)"/>
  </g>
</svg>
