<svg xmlns="http://www.w3.org/2000/svg" xmlns:xlink="http://www.w3.org/1999/xlink" width="498.012" height="411.367" viewBox="0 0 498.012 411.367">
  <defs>
    <linearGradient id="linear-gradient" y1="0.5" x2="1" y2="0.5" gradientUnits="objectBoundingBox">
      <stop offset="0" stop-color="#f0f2f5"/>
      <stop offset="0.99" stop-color="#f5f7f8"/>
    </linearGradient>
    <linearGradient id="linear-gradient-2" y1="0.5" x2="1" y2="0.5" gradientUnits="objectBoundingBox">
      <stop offset="0" stop-color="#3da1c8"/>
      <stop offset="0.01" stop-color="#82d6f6"/>
      <stop offset="1" stop-color="#5bbde4"/>
    </linearGradient>
    <linearGradient id="linear-gradient-3" x1="0.884" y1="0.619" x2="0.195" y2="0.3" xlink:href="#linear-gradient-2"/>
    <linearGradient id="linear-gradient-4" x1="1.035" y1="0.625" x2="0.377" y2="0.415" gradientUnits="objectBoundingBox">
      <stop offset="0.32" stop-color="#9c9c9c"/>
      <stop offset="0.5" stop-color="#ababab"/>
      <stop offset="0.86" stop-color="#d3d3d3"/>
      <stop offset="0.91" stop-color="#d9d9d9"/>
    </linearGradient>
    <linearGradient id="linear-gradient-5" x1="-0.002" y1="0.5" x2="0.998" y2="0.5" gradientUnits="objectBoundingBox">
      <stop offset="0" stop-color="#753200"/>
      <stop offset="1" stop-color="#a04400"/>
    </linearGradient>
    <linearGradient id="linear-gradient-6" y1="0.5" x2="1" y2="0.5" gradientUnits="objectBoundingBox">
      <stop offset="0.09" stop-color="#e6e6e6"/>
      <stop offset="1" stop-color="#dedede"/>
    </linearGradient>
    <linearGradient id="linear-gradient-7" x1="0.08" y1="0.638" x2="0.787" y2="0.35" xlink:href="#linear-gradient-2"/>
    <linearGradient id="linear-gradient-8" x1="-26.743" y1="1.578" x2="-25.578" y2="1.237" xlink:href="#linear-gradient-5"/>
    <linearGradient id="linear-gradient-9" x1="-56.325" y1="3.067" x2="-57.231" y2="3.972" gradientUnits="objectBoundingBox">
      <stop offset="0" stop-color="#a04400"/>
      <stop offset="1" stop-color="#753200"/>
    </linearGradient>
    <linearGradient id="linear-gradient-10" x1="-324.66" y1="10.111" x2="-325.334" y2="10.51" xlink:href="#linear-gradient-5"/>
    <linearGradient id="linear-gradient-11" x1="0.483" y1="1.138" x2="0.519" y2="-0.597" gradientUnits="objectBoundingBox">
      <stop offset="0" stop-color="#201f4f"/>
      <stop offset="0.26" stop-color="#08516e"/>
      <stop offset="0.72" stop-color="#393c76"/>
      <stop offset="1" stop-color="#464b8b"/>
    </linearGradient>
    <linearGradient id="linear-gradient-12" x1="0.5" y1="1.004" x2="0.5" y2="0.049" gradientUnits="objectBoundingBox">
      <stop offset="0" stop-color="#fff"/>
      <stop offset="0.31" stop-color="#effafe"/>
      <stop offset="0.44" stop-color="#e8f6fc"/>
      <stop offset="0.69" stop-color="#bbecff"/>
      <stop offset="0.99" stop-color="#85dcff"/>
      <stop offset="1" stop-color="#bbbfd9"/>
    </linearGradient>
    <linearGradient id="linear-gradient-13" x1="0.472" y1="0.742" x2="0.539" y2="0.161" gradientUnits="objectBoundingBox">
      <stop offset="0.01" stop-color="#bbbfd9"/>
      <stop offset="0.29" stop-color="#cacde2"/>
      <stop offset="0.84" stop-color="#f2f3f8"/>
      <stop offset="1" stop-color="#fff"/>
    </linearGradient>
    <linearGradient id="linear-gradient-14" x1="0.763" y1="0.564" x2="0.158" y2="0.263" xlink:href="#linear-gradient-9"/>
    <linearGradient id="linear-gradient-15" y1="0.5" x2="1" y2="0.5" gradientUnits="objectBoundingBox">
      <stop offset="0" stop-color="#c2c2c2"/>
      <stop offset="1" stop-color="#bdbdbd"/>
    </linearGradient>
    <linearGradient id="linear-gradient-16" x1="0.161" y1="1.074" x2="0.471" y2="0.335" xlink:href="#linear-gradient-13"/>
    <linearGradient id="linear-gradient-17" x1="1.145" y1="1.088" x2="0.291" y2="0.223" xlink:href="#linear-gradient-5"/>
    <linearGradient id="linear-gradient-18" x1="0.224" y1="0.601" x2="0.571" y2="0.469" gradientUnits="objectBoundingBox">
      <stop offset="0" stop-color="#a04400" stop-opacity="0"/>
      <stop offset="0.18" stop-color="#9a4100" stop-opacity="0.141"/>
      <stop offset="0.52" stop-color="#8a3b00" stop-opacity="0.522"/>
      <stop offset="0.9" stop-color="#753200"/>
    </linearGradient>
    <linearGradient id="linear-gradient-19" x1="0" y1="0.5" x2="1" y2="0.5" xlink:href="#linear-gradient-5"/>
    <linearGradient id="linear-gradient-20" x1="0.705" y1="0.636" x2="-0.409" y2="-0.136" xlink:href="#linear-gradient-5"/>
    <linearGradient id="linear-gradient-21" y1="0.5" x2="1" y2="0.5" gradientUnits="objectBoundingBox">
      <stop offset="0.01" stop-color="#bbbfd9"/>
      <stop offset="0.77" stop-color="#cacde1"/>
      <stop offset="1" stop-color="#d0d2e4"/>
    </linearGradient>
    <linearGradient id="linear-gradient-22" x1="0.029" y1="0.616" x2="0.994" y2="0.236" gradientUnits="objectBoundingBox">
      <stop offset="0" stop-color="#abaaea"/>
      <stop offset="1" stop-color="#e7eefe"/>
    </linearGradient>
    <linearGradient id="linear-gradient-23" y1="0.504" x2="1" y2="0.504" gradientUnits="objectBoundingBox">
      <stop offset="0" stop-color="#cdccff"/>
      <stop offset="0.89" stop-color="#8988d5"/>
    </linearGradient>
    <linearGradient id="linear-gradient-24" x1="1.055" y1="0.817" x2="0.074" y2="0.19" gradientUnits="objectBoundingBox">
      <stop offset="0" stop-color="#1f1844"/>
      <stop offset="0.99" stop-color="#3d3c99"/>
    </linearGradient>
    <linearGradient id="linear-gradient-25" x1="1.009" y1="0.666" x2="-0.005" y2="0.306" xlink:href="#linear-gradient-24"/>
    <linearGradient id="linear-gradient-26" x1="66.699" y1="50.921" x2="67.101" y2="50.921" gradientUnits="objectBoundingBox">
      <stop offset="0" stop-color="#e0e4eb"/>
      <stop offset="0.99" stop-color="#f3f6fd"/>
    </linearGradient>
    <linearGradient id="linear-gradient-27" x1="67.888" y1="181.152" x2="68.235" y2="181.152" xlink:href="#linear-gradient-26"/>
    <linearGradient id="linear-gradient-28" x1="-87.176" y1="18.288" x2="-86.806" y2="18.288" xlink:href="#linear-gradient-26"/>
    <linearGradient id="linear-gradient-29" x1="-104.252" y1="33.248" x2="-103.853" y2="33.248" xlink:href="#linear-gradient-26"/>
    <linearGradient id="linear-gradient-30" x1="67.133" y1="320.688" x2="67.459" y2="320.688" xlink:href="#linear-gradient-26"/>
    <linearGradient id="linear-gradient-31" x1="-123.37" y1="42.976" x2="-122.891" y2="42.976" xlink:href="#linear-gradient-26"/>
    <linearGradient id="linear-gradient-32" x1="0.784" y1="0.026" x2="0.218" y2="0.972" gradientUnits="objectBoundingBox">
      <stop offset="0" stop-color="#e6eaf1"/>
      <stop offset="0.99" stop-color="#f3f6fd"/>
    </linearGradient>
    <linearGradient id="linear-gradient-33" x1="0.405" y1="0.668" x2="1.789" y2="-0.157" xlink:href="#linear-gradient-5"/>
    <linearGradient id="linear-gradient-34" y1="0.5" x2="1" y2="0.5" gradientUnits="objectBoundingBox">
      <stop offset="0" stop-color="#fff"/>
      <stop offset="0.16" stop-color="#47a6cc"/>
      <stop offset="0.71" stop-color="#11759d"/>
      <stop offset="0.99" stop-color="#08516e"/>
      <stop offset="1" stop-color="#bbbfd9"/>
    </linearGradient>
    <linearGradient id="linear-gradient-35" x1="-0.001" y1="0.499" x2="0.999" y2="0.499" xlink:href="#linear-gradient-5"/>
    <linearGradient id="linear-gradient-36" x1="-0.422" y1="0.934" x2="0.776" y2="0.254" xlink:href="#linear-gradient-5"/>
    <linearGradient id="linear-gradient-37" x1="-70.134" y1="16.424" x2="-70.96" y2="17.452" xlink:href="#linear-gradient-9"/>
    <linearGradient id="linear-gradient-38" x1="-451.984" y1="48.722" x2="-452.674" y2="49.119" xlink:href="#linear-gradient-5"/>
    <linearGradient id="linear-gradient-39" x1="0.969" y1="0.538" x2="-0.022" y2="0.396" xlink:href="#linear-gradient-5"/>
    <linearGradient id="linear-gradient-40" x1="0.747" y1="0.342" x2="-0.121" y2="0.826" gradientUnits="objectBoundingBox">
      <stop offset="0.1" stop-color="#753200"/>
      <stop offset="0.48" stop-color="#8a3b00" stop-opacity="0.522"/>
      <stop offset="0.82" stop-color="#9a4100" stop-opacity="0.141"/>
      <stop offset="1" stop-color="#a04400" stop-opacity="0"/>
    </linearGradient>
    <linearGradient id="linear-gradient-41" x1="-0.171" y1="0.068" x2="0.845" y2="0.871" xlink:href="#linear-gradient-9"/>
  </defs>
  <g id="Trouver_un_Solutionneur-art-design" data-name="Trouver un Solutionneur-art-design" transform="translate(-7.382 -67.589)">
    <g id="Слой_3" data-name="Слой 3" transform="translate(7.382 67.589)">
      <path id="Path_1332" data-name="Path 1332" d="M445.491,279.853c-50.615,25.881-31.448,55.348-21.376,86.426,7.673,23.641,10.1,48.225-27.406,72.88l-354.343-2.7C25.423,416.9,9.487,396.8,7.773,372.7c-2.359-33.1,6.29-66.04,16.439-86.842C67.477,197.437,191.191,67.912,351.935,67.59,519.676,67.244,535.9,233.609,445.491,279.853Z" transform="translate(-7.382 -67.589)" fill="url(#linear-gradient)"/>
      <rect id="Rectangle_982" data-name="Rectangle 982" width="239.583" height="164.518" rx="11.07" transform="translate(1.705 35.969)" fill="url(#linear-gradient-2)"/>
      <rect id="Rectangle_983" data-name="Rectangle 983" width="225.958" height="150.406" rx="6.61" transform="translate(8.521 43.029)" fill="#fff"/>
      <path id="Path_1333" data-name="Path 1333" d="M535.416,296.5l46.849,12.013a25.3,25.3,0,0,1,17.5,33.122l-32.6,90.018L455.83,389.588,500.776,291Z" transform="translate(-103.265 -115.357)" fill="url(#linear-gradient-3)"/>
      <path id="Path_1334" data-name="Path 1334" d="M474.592,344.61A99.559,99.559,0,0,0,462.8,366.466c-4.717,12.445-18.389,31.2-18.389,31.2l15.079,5.7s13.688-23.216,15.1-29.05S474.592,344.61,474.592,344.61Z" transform="translate(-100.824 -126.82)" fill="url(#linear-gradient-4)"/>
      <path id="Path_1335" data-name="Path 1335" d="M463.61,400.3l54.31,20.52,32.9,12.43s11.007-1.392,11.793-8.074-2.359-64.074-9.238-77.046S529.4,332.077,529.4,332.077s-13.169,10.354-21.031,9.434-5.173-9.434-5.173-9.434l-8.585-1.777-9.945,1.887-5.983,9.356Z" transform="translate(-104.929 -123.76)"/>
      <path id="Path_1336" data-name="Path 1336" d="M287,354.62S292.5,371,298.864,369.95c0-3.672,2.815-13.908,2.815-13.908L297.9,346.86Z" transform="translate(-67.168 -127.301)" fill="url(#linear-gradient-5)"/>
      <path id="Path_1337" data-name="Path 1337" d="M304.011,349.07l-4.371,26.2,84.1,8.483-3.6-33.169Z" transform="translate(-69.87 -127.773)"/>
      <path id="Path_1338" data-name="Path 1338" d="M369.8,323.134c-2.925.425-31.408.118-39.679-1.132,1.281-9.088,7.532-53.815,8.011-70.175.236-8.082.472-18.413.393-27.454v-4.245c0-.708-.039-1.4-.063-2.083s0-1.266-.063-1.879q-.086-1.84-.189-3.491c0-.393-.055-.786-.087-1.156l-.047-.605a2.114,2.114,0,0,0-.055-.59c-.055-.2,0-.472-.071-.7s0-.346-.055-.519q-.079-.786-.189-1.439a.864.864,0,0,0-.055-.369,15.814,15.814,0,0,0-.314-1.572l-.141-.542q-.055-.2-.118-.377a2.232,2.232,0,0,0-.126-.346,2.491,2.491,0,0,0-.134-.291.376.376,0,0,0-.063-.126.471.471,0,0,0-.071-.118h0L334.924,187.6a18.579,18.579,0,0,1,1.879,0s17.029.369,24.065.079c1.368,4.3,2.854,10.11,1.635,12.06-1.824,2.9-5.1,3.4-3,9.434h0a2.362,2.362,0,0,0-.1.252,2.8,2.8,0,0,0-.086.275,1.533,1.533,0,0,1-.079.3l-.071.314C358.053,215.427,369.657,321.869,369.8,323.134Z" transform="translate(-76.387 -93.245)" fill="url(#linear-gradient-6)"/>
      <path id="Path_1339" data-name="Path 1339" d="M323.01,252.464c-.48,16.361-7.862,69.475-9.175,78.564a131.077,131.077,0,0,1-22.43-5.354l-.369-82.55-8.224,20.512,10.134,49.145L278.59,323c-7.367,2.767-19.843-48.1-19.167-59.569.66-11.29,21.722-53.249,28.8-61.441,4.285-4.961,15.614-8.97,23.884-11.36L303.9,211.936s6.973,2.076,8.593-1.572,5.621-7.862,8.6-6.29a.63.63,0,0,1,.149.1,1.015,1.015,0,0,1,.149.165,1.506,1.506,0,0,1,.118.165h0a.473.473,0,0,1,.071.118.376.376,0,0,1,.063.126,2.5,2.5,0,0,1,.134.291,3.532,3.532,0,0,1,.126.346q.055.173.118.377l.142.542c.11.472.212,1.006.314,1.572a3,3,0,0,0,.055.37c.063.456.134.936.189,1.439,0,.173.039.346.055.519l.071.7a2.171,2.171,0,0,0,.055.59l.047.605c0,.377.055.786.086,1.156q.11,1.651.189,3.491c0,.613.047,1.234.063,1.879s0,1.376.063,2.083v4.245C323.481,234.051,323.245,244.382,323.01,252.464Z" transform="translate(-61.266 -93.897)" fill="#1178a1"/>
      <path id="Path_1340" data-name="Path 1340" d="M465.824,299.585l-8.436,13.232a2.807,2.807,0,0,1-4.135.66l-38.908-31.849-20.111-28.664,4.882,71.724s.385,2.846-20.732,5.912c-.141-1.258-12.477-114.383-11.431-119.595l.071-.314a.988.988,0,0,1,.079-.3,2.836,2.836,0,0,1,.086-.275,2.351,2.351,0,0,1,.1-.252h0a2.281,2.281,0,0,1,.165-.37,1.441,1.441,0,0,1,.1-.189l.142-.228a1.452,1.452,0,0,1,.149-.212,1.074,1.074,0,0,1,.157-.173h0a1.132,1.132,0,0,1,.173-.165,1.666,1.666,0,0,1,.181-.149,1.983,1.983,0,0,1,.535-.314l.2-.079a2.313,2.313,0,0,1,.645-.142,3.315,3.315,0,0,1,.393,0,5.833,5.833,0,0,1,2.555.7l-2.429-5.33,18.743,3.506-9.128-15.551c9.253,4.025,21.408,11.856,24.262,19.9,4.19,11.793,26.133,52.533,26.133,52.533l35.213,33.492a2.028,2.028,0,0,1,.338,2.492Z" transform="translate(-84.249 -94.012)" fill="#1178a1"/>
      <path id="Path_1341" data-name="Path 1341" d="M89.735,292.091C75.033,297.146,64.4,316.73,70.308,335.1L89.366,394.35,194.872,372.6,148.007,285.07Z" transform="translate(-20.481 -114.089)" fill="url(#linear-gradient-7)"/>
      <path id="Path_1342" data-name="Path 1342" d="M334.377,207.2a1.5,1.5,0,0,0-.118-.165,1.016,1.016,0,0,0-.149-.165.629.629,0,0,0-.149-.1c-2.98-1.572-6.973,2.618-8.6,6.29s-9.379-2.359-9.379-2.359l9.01-17.4.943-2.437,6.62-5.975v6.635l1.014,11.753Z" transform="translate(-73.364 -92.67)" fill="#08516e"/>
      <path id="Path_1343" data-name="Path 1343" d="M381.52,368.52h0" transform="translate(-87.377 -131.932)" fill="none" stroke="#707070" stroke-miterlimit="10" stroke-width="1"/>
      <path id="Path_1344" data-name="Path 1344" d="M373.08,204.22l1,3.829c-2.178-.739-4.78-1.572-6.109,0a3.513,3.513,0,0,0-.715,1.171c-2.107-6.006,1.171-6.51,3-9.434,1.219-1.95-.267-7.76-1.635-12.06-.912-2.838-1.761-5.016-1.761-5.016l8.577,1.14,4.434,6.6,10.881,14.938a1.124,1.124,0,0,1-1.109,1.761Z" transform="translate(-84.181 -92.203)" fill="#08516e"/>
      <path id="Path_1345" data-name="Path 1345" d="M371.869,202.485l.786,3.844a5.833,5.833,0,0,0-2.555-.7,3.305,3.305,0,0,0-.393,0,2.311,2.311,0,0,0-.645.142l-.2.079a1.981,1.981,0,0,0-.535.314,1.666,1.666,0,0,0-.181.149,1.131,1.131,0,0,0-.173.165h0a1.079,1.079,0,0,0-.157.173,1.453,1.453,0,0,0-.149.212l-.141.228a1.447,1.447,0,0,0-.1.189,2.279,2.279,0,0,0-.165.37c-2.107-6.006,1.171-6.51,3-9.434,1.219-1.95-.267-7.76-1.635-12.06-.912-2.838-1.761-5.016-1.761-5.016l8.577,1.14,4.434,6.6,10.3,15.315a1.03,1.03,0,0,1-1.053,1.572Z" transform="translate(-84.181 -91.868)" fill="#07698f"/>
      <path id="Path_1346" data-name="Path 1346" d="M335.9,169.821c.11-1.855.472-6.62.645-12.17.118-3.844.228-7.823.322-10.889v-.786a38.98,38.98,0,0,0-.126-4.984c-.071-.1-.142-.2-.2-.3-5.92-8.412-5.668-14.356-2.414-16.683a5.432,5.432,0,0,1,1.4-.715h0s-2.547-11.211,1.148-20.834c4.882-12.744,22.328-14.67,33.3-12.665s21.62,13.876,19.183,26.07c-.967,4.843-2.72,9.348-2.815,13.688s2.359,11.29-.2,18.6c-3.7,10.488-14.222,14.269-20.834,14.938a21.226,21.226,0,0,1-2.539.094l-.11,1.824-.086,1.486-.094,1.572a17.719,17.719,0,0,1-.566,4.466,11.793,11.793,0,0,1-12.076,7.689C340.377,179.7,335.66,174.31,335.9,169.821Z" transform="translate(-76.754 -72.192)" fill="url(#linear-gradient-8)"/>
      <path id="Path_1347" data-name="Path 1347" d="M338.164,160.784a38.654,38.654,0,0,0,25.716,19.725l.086-1.486.11-1.824c-7.65-3.223-16.51-9.757-26.227-22.469.063.1.134.2.2.3a38.986,38.986,0,0,1,.126,4.984C338.172,160.265,338.172,160.516,338.164,160.784Z" transform="translate(-78.04 -86.221)" fill="url(#linear-gradient-9)"/>
      <path id="Path_1348" data-name="Path 1348" d="M340.214,139s-2.225-3.31-3.931-.92.684,6.675.684,6.675Z" transform="translate(-77.574 -82.477)" fill="url(#linear-gradient-10)"/>
      <circle id="Ellipse_48" data-name="Ellipse 48" cx="2.673" cy="2.673" r="2.673" transform="translate(255.659 130.571)" fill="#075675"/>
      <circle id="Ellipse_49" data-name="Ellipse 49" cx="2.673" cy="2.673" r="2.673" transform="translate(255.117 153.001)" fill="#075675"/>
      <circle id="Ellipse_50" data-name="Ellipse 50" cx="2.673" cy="2.673" r="2.673" transform="translate(252.994 175.784)" fill="#075675"/>
      <circle id="Ellipse_51" data-name="Ellipse 51" cx="2.673" cy="2.673" r="2.673" transform="translate(250.321 201.202)" fill="#075675"/>
      <circle id="Ellipse_52" data-name="Ellipse 52" cx="2.673" cy="2.673" r="2.673" transform="translate(246.303 228.75)" fill="#075675"/>
      <line id="Line_67" data-name="Line 67" y1="1.132" x2="6.03" transform="translate(285.589 129.439)" fill="none" stroke="#d8eff7" stroke-miterlimit="10" stroke-width="2"/>
      <line id="Line_68" data-name="Line 68" y1="1.124" x2="6.022" transform="translate(287.673 151.931)" fill="none" stroke="#d8eff7" stroke-miterlimit="10" stroke-width="2"/>
      <line id="Line_69" data-name="Line 69" y1="0.558" x2="6.368" transform="translate(290.684 175.784)" fill="none" stroke="#d8eff7" stroke-miterlimit="10" stroke-width="2"/>
      <line id="Line_70" data-name="Line 70" y1="0.558" x2="6.376" transform="translate(292.657 200.919)" fill="none" stroke="#d8eff7" stroke-miterlimit="10" stroke-width="2"/>
      <line id="Line_71" data-name="Line 71" y1="1.588" x2="6.376" transform="translate(295.841 229.088)" fill="none" stroke="#d8eff7" stroke-miterlimit="10" stroke-width="2"/>
      <path id="Path_1349" data-name="Path 1349" d="M398.247,322.917l-6.557,1.965L379.63,223.071h15.991l-1.895-7.351" transform="translate(-86.973 -99.261)" fill="none" stroke="#d8eff7" stroke-miterlimit="10" stroke-width="1"/>
      <line id="Line_72" data-name="Line 72" y1="10.299" x2="15.763" transform="translate(212.765 208.45)" fill="none" stroke="#08516e" stroke-miterlimit="10" stroke-width="1"/>
      <line id="Line_73" data-name="Line 73" y1="14.482" x2="9.426" transform="translate(361.991 195.769)" fill="none" stroke="#08516e" stroke-miterlimit="10" stroke-width="1"/>
      <path id="Path_1350" data-name="Path 1350" d="M304.457,245.7l18.908.81-.708,5.2-9.977,3.184-8.711-3.97Z" transform="translate(-70.796 -105.672)" fill="url(#linear-gradient-11)"/>
      <path id="Path_1351" data-name="Path 1351" d="M304.457,244.2l18.908.81-.708,5.212-9.977,3.176-8.711-3.962Z" transform="translate(-70.796 -105.351)" fill="#07698f"/>
      <path id="Path_1352" data-name="Path 1352" d="M302.65,200l2.3,23.491,20.079-.189c-2.6,50.976-3.388,56.165-8.106,99.272l-11.793-2.65" transform="translate(-70.514 -95.9)" fill="none" stroke="#d8eff7" stroke-miterlimit="10" stroke-width="1"/>
      <path id="Path_1353" data-name="Path 1353" d="M348.406,143.4l-.432,2.988c6.785,3.868,20.441,14.977,23.342,15.433,3.711.574,4.953-3.727,6.95-2.728s1.706,3.593,3.1,3.593c.723,0,6.179-3.066,7.736-4.929,0,0-1.887,6.156-2.406,7.437-1.195,2.98-9.434,10.448-9.434,10.448a3.42,3.42,0,0,1-2.72.88l-8.758-.983-4.4-2.539c-6.132-3.278-18.515-16.211-18.57-17.972a42.452,42.452,0,0,1,1-9.78Z" transform="translate(-79.099 -83.799)"/>
      <path id="Path_1354" data-name="Path 1354" d="M497.151,458.637c-18.177,100.208-261.172,88.729-361.568,79.948C81.1,533.812,13.567,513.057,7.985,438.6a4.8,4.8,0,0,0-.055-.723V427.016L268.5,372.4Z" transform="translate(-7.499 -132.761)" fill="url(#linear-gradient-12)"/>
      <ellipse id="Ellipse_53" data-name="Ellipse 53" cx="24.222" cy="12.139" rx="24.222" ry="12.139" transform="translate(114.161 354.689)" fill="#bfc3db" opacity="0.5"/>
      <ellipse id="Ellipse_54" data-name="Ellipse 54" cx="24.222" cy="12.139" rx="24.222" ry="12.139" transform="translate(43.215 311.48)" fill="#bfc3db" opacity="0.5"/>
      <path id="Path_1355" data-name="Path 1355" d="M351.806,446.4l-2.3,1.965L433.1,485.222l58.815-27.973Z" transform="translate(-80.533 -148.584)" fill="#bbbfd9" opacity="0.5"/>
      <path id="Path_1356" data-name="Path 1356" d="M339.56,362.53l10.118,62.376,82.974,33.7L419.57,388.435Z" transform="translate(-78.406 -130.651)" fill="url(#linear-gradient-13)"/>
      <path id="Path_1357" data-name="Path 1357" d="M482.8,340.218s2.893,4.159,5.252,5.731,6.03,5.26,6.549,7.154,4.19-1.777,1.706-5.708-5.37-6.29-4.583-7.862,8-9.568,15.59-8.782,1.572-6.683-1.832-6.683-15.724,5.252-15.724,5.252Z" transform="translate(-109.032 -122.428)" fill="url(#linear-gradient-14)"/>
      <path id="Path_1358" data-name="Path 1358" d="M549.075,395.48l1.179,32.037L531.1,434.758l-5.873-2.217,20.111-7.178S548.092,395.889,549.075,395.48Z" transform="translate(-118.104 -137.696)" fill="url(#linear-gradient-15)"/>
      <path id="Path_1359" data-name="Path 1359" d="M455.4,470.95,512.534,447.1,445.96,420.28Z" transform="translate(-101.155 -142.999)" fill="url(#linear-gradient-16)"/>
      <path id="Path_1360" data-name="Path 1360" d="M533.01,267.108c-1.643,3.483-5.81,7.186-5.951,8.31h0c-1.722,3.577-5.566,11.376-8.1,15.26-3.349,5.142-13.365,5.991-16.982.951s-11.793-11.305-11.793-11.305-4.5-3.774-4.065-5.778,9.717-5.275,10.362-9.34c.3-1.863-.236-3.679-.645-5.582a10.2,10.2,0,0,1,.6-7.319v-.071c.786-1.572,3.97-1.643,8.129-.857,1.085.2,2.233.464,3.428.786h0c9.049,2.319,20.59,7.257,24.12,9.741C534.056,263.224,533.977,265.127,533.01,267.108Z" transform="translate(-109.736 -106.78)" fill="url(#linear-gradient-17)"/>
      <path id="Path_1361" data-name="Path 1361" d="M540.277,264.9l-6.046,10.472-8.758-2.241-2.6-9.151L504,259.06l-5.582.747a10.2,10.2,0,0,1,.6-7.319l8.161-.928,3.428.786h0l21.84,4.882Z" transform="translate(-112.285 -106.924)" fill="url(#linear-gradient-18)"/>
      <path id="Path_1362" data-name="Path 1362" d="M534.177,286.9c-2.744.684-6.234,2.233-7.862,5.354a14.237,14.237,0,0,0-1.431,8.255c-.236-.094-.377-.165-.377-.165s-3.428,11.557-6.635,14.2c-1.509,1.242-7.492,1.305-13.8.786-7.123-.542-14.67-1.792-16.6-2.807-3.64-1.926-1.926-8.349,0-10.92a7.673,7.673,0,0,0,1.132-2.241c2.807,1.085,6.95,2.421,7.65,1.171.786-1.447-4.206-5.2-7.65-7.076a3.378,3.378,0,0,0-.487-.865c-1.5-1.926,1.926-5.645,1.926-5.645s8.137,6.289,11.793,11.305,13.633,4.19,16.982-.951c2.531-3.884,6.376-11.683,8.1-15.26v.275S530.458,285.939,534.177,286.9Z" transform="translate(-109.574 -113.441)" fill="#2a0900"/>
      <path id="Path_1363" data-name="Path 1363" d="M497.14,303.672c-.692,1.25-4.835-.086-7.65-1.171a8.97,8.97,0,0,0,0-5.881C492.934,298.491,497.942,302.226,497.14,303.672Z" transform="translate(-110.462 -116.559)" fill="url(#linear-gradient-19)"/>
      <path id="Path_1364" data-name="Path 1364" d="M541.956,299.442a5.983,5.983,0,0,1-2.028,2.406c-.181,1.077-.424,2.555-.668,4.261l-.5,3.679c-.6,4.717-1.054,10.063-.653,13.176.857,6.565-22.013,13.845-26.542,11.494-3.145-1.659-3.043-10.275-2.689-15.236.079-1.148.173-2.1.236-2.72,6.29.487,12.288.425,13.8-.786a10.908,10.908,0,0,0,2.248-3.074,69.875,69.875,0,0,0,4.387-11.125s-.063-5.5,1.289-8.129a12.626,12.626,0,0,1,7.7-6h1.714C544.063,288.137,545.1,292.925,541.956,299.442Z" transform="translate(-114.57 -114.585)" fill="url(#linear-gradient-20)"/>
      <path id="Path_1365" data-name="Path 1365" d="M508.692,216.643l-.33,1.517-3.145-1.03-.786.66-.9-.079v-1.069L494.4,215.33v1.73l-3.931-.739s-.9,1.572-1.234,1.2a.425.425,0,0,0-.66,0v.7l7.076,1.478-.33,1.808,4.112.739s2.547-.983,2.422,0-3.082.44-3.656.44-.574,1.62-.574,1.62-2.3-.5-2.634-.5-.165.5-1.643.5-1.643-.786-1.643-.786l-6.738-.165v.983s-3.86-.165-4.277.66,5.26,0,5.26,0v1.069l2.712.66s-6,3.145-7.485,5.755a1.085,1.085,0,0,1,.786.275s-3.4,2.822-2.358,6.03c.605-.881.881-1.234.881-1.234l5.723.739-.409,1.344-5.676,1.234v1.572s-4.057.519-3.805,2.162,5.181-.5,5.181-.5a2.854,2.854,0,0,0,.5,1.973c-.5,1.014-3.7,6.085-3.7,6.085h1.069s-2.547,4.717-1.895,7.233a41.434,41.434,0,0,1,3.782-7.972h.5l4.717-5.346,13.782,1.895,13.648-14.151,1.863-15.873ZM497.8,235.055l-4.851.409-.613-1.478s-6.9,1.03-7.233.613,0,1.313,0,1.313l-4.238-.291,2.587-3.451.786.613,3.978-2.06,1.73-.9.2,1.069-2.3.684-.786.37.2,1.2,5.92-.9.126.574h-.747s.5,1.148.786,1.148,6.085-.291,6.085-.291Z" transform="translate(-107.643 -99.178)" fill="#2a0900"/>
      <path id="Path_1366" data-name="Path 1366" d="M545.153,229.744l-1.517.354-.409-3.263-.943-.464-.315-.849.967-.456-2.72-8.805-1.572.739-1.022-3.884s-1.8-.149-1.572-.605a.425.425,0,0,0-.283-.6l-.629.3,1.7,7.021-1.777.48,1.093,4.033s1.981,1.879,1.038,2.193-1.722-2.594-1.966-3.145-1.706.173-1.706.173-.542-2.288-.684-2.587-.519.063-1.148-1.274,0-1.84,0-1.84l-2.744-6.124-.888.425s-1.509-3.561-2.429-3.577,2.256,4.717,2.256,4.717l-.967.456.566,2.736s-5.393-4.08-8.4-4.285a1.084,1.084,0,0,1,.094.833s-4.01-1.855-6.447.48c1.054.165,1.494.259,1.494.259l1.793,5.5-1.392.2-3.546-4.607-1.4.637s-2.209-3.444-3.593-2.508,2.665,4.466,2.665,4.466a2.854,2.854,0,0,0-1.572,1.289c-1.124,0-7.076-.731-7.076-.731l.456.967s-5.322-.291-7.343,1.4a41.433,41.433,0,0,1,8.829,0l.212.448,6.84,1.942,10.566,15.944,12.3,3.561,15.134-5.126Zm-21.306-1.934-2.453-4.206,1.069-1.2s-3.892-5.794-3.664-6.29-1.187.566-1.187.566l-1.572-3.931,4.23.857-.22.967,3.569,2.712,1.572,1.179-.88.645-1.635-1.682-.684-.582-.991.7,3.357,4.961-.464.362-.314-.668s-.826.936-.708,1.2,2.87,5.37,2.87,5.37Z" transform="translate(-111.258 -97.609)" fill="#2a0900"/>
      <path id="Path_1367" data-name="Path 1367" d="M550.68,232.673l3.687-1.423.786,1.423s4.5-1.258,5.165-.708.5,1.038.5,1.038l5.244.653-.574.739s1.635,1.226,1.392,1.226a20.577,20.577,0,0,0-2.209.33,13.1,13.1,0,0,1-1.8,0l-.409.786-1.313.409s3.443.165,3.852,1.392,5.409.9,5,1.887a2.728,2.728,0,0,1-.983,1.313s4.018,1.148,3.852,1.722-1.313.786-1.313.786l-2.359-.33a2.044,2.044,0,0,0,.079,1.572,13.735,13.735,0,0,0,2.626,1.8l-.078.786s1.722,1.069,1.572,1.8l-.165.739s1.887,1.965,1.8,2.461-1.226.574-1.226.574.079.739-.409.786a2.909,2.909,0,0,1-1.313-.33l-1.069.338-1.211-.873s4.1,5.9,3.2,6.227l-.9.33s2.7,5.244,1.392,5.244-1.572-.354-1.572-.354l-1.329-3.3-1.226.409-1.627-2.767-4.874.165-3.483-7.076Z" transform="translate(-123.545 -102.582)" fill="#2a0900"/>
      <path id="Path_1368" data-name="Path 1368" d="M549.02,242.425c-.668-.338,0-2.013.668-3.027a4.662,4.662,0,0,0,.692-1.226c-.535.645-.873,1.085-.873,1.085s-.189-2.406-.307-4.717a7.476,7.476,0,0,1-1.187-.189c-7.209-1.439-13.79-3.64-20.5-5.2a1.47,1.47,0,0,1-.519-.118,67.345,67.345,0,0,0-10.92-1.659c-.841,8.035-5.173,15.818-9.371,23.051,5.9,1.808,16.51,4.717,16.51,4.717l15.519,3.876-15.9-1.981-.786,3.892,10.669,2.594-3.365,11.18,4.717,1.69s3.719-2.932,6.423-.66,1.651,9.434-1.737,13.609a32.231,32.231,0,0,1-.676,7.532s10.551-18.8,14.828-23.137a19.919,19.919,0,0,0,5.708-12.037c0-1.447,1.761-4.151,3.278-6.352C557.252,251.451,554.107,246.356,549.02,242.425Z" transform="translate(-114.142 -101.752)" fill="#2a0900"/>
      <path id="Path_1369" data-name="Path 1369" d="M340.83,207.29s10,5.157,18.255.55" transform="translate(-78.677 -97.459)" fill="none" stroke="#fff" stroke-miterlimit="10" stroke-width="1"/>
      <path id="Path_1370" data-name="Path 1370" d="M333.591,202.105a1.511,1.511,0,0,0-.118-.165,1.014,1.014,0,0,0-.149-.165.628.628,0,0,0-.149-.1c-2.98-1.572-6.973,2.618-8.6,6.289s-8.593,1.572-8.593,1.572l5.3-22.163,11.9-7.972-.668,10.331Z" transform="translate(-73.364 -91.496)" fill="#07698f"/>
      <line id="Line_74" data-name="Line 74" y1="0.511" x2="7.555" transform="translate(254.511 126.852)" fill="none" stroke="#d8eff7" stroke-miterlimit="10" stroke-width="1"/>
      <line id="Line_75" data-name="Line 75" x1="9.631" y2="1.816" transform="translate(283.026 123.809)" fill="none" stroke="#d8eff7" stroke-miterlimit="10" stroke-width="1"/>
      <path id="Path_1371" data-name="Path 1371" d="M457.97,478.245v4.5L515.1,458.96V454.4Z" transform="translate(-103.723 -150.294)" fill="#c8cce0"/>
      <path id="Path_1372" data-name="Path 1372" d="M435.4,480.063,352.43,445.431V441.87l82.974,33.7Z" transform="translate(-81.157 -147.615)" fill="#c8cce0"/>
      <circle id="Ellipse_55" data-name="Ellipse 55" cx="7.107" cy="7.107" r="7.107" transform="translate(291.926 270.316)" fill="#fff"/>
      <path id="Path_1373" data-name="Path 1373" d="M503.63,339.79s.849,8.821,5.9,10.417c8.058,2.555,27.886-8,27.886-8" transform="translate(-113.486 -125.789)" fill="none" stroke="#fff" stroke-miterlimit="10" stroke-width="1"/>
      <path id="Path_1374" data-name="Path 1374" d="M334.619,516.347l-64.86,12.445L234.38,495.906l40.072-6.706,12.209,22.43L325.13,509Z" transform="translate(-55.917 -157.735)" fill="url(#linear-gradient-21)"/>
      <path id="Path_1375" data-name="Path 1375" d="M336.939,514.027l-64.86,12.445L236.7,493.586l40.072-6.706,12.21,22.43,38.468-2.634Z" transform="translate(-56.413 -157.239)" fill="#8bcee8"/>
      <path id="Path_1376" data-name="Path 1376" d="M202.96,527.04c0,8.829-9.324,15.975-20.826,15.975S161.3,535.861,161.3,527.04a13.287,13.287,0,0,1,3.035-8.31v.039c0,2.359,7.972,4.238,17.807,4.238s17.807-1.895,17.807-4.238h0a13.255,13.255,0,0,1,3.011,8.271Z" transform="translate(-40.291 -164.049)" fill="url(#linear-gradient-22)"/>
      <path id="Path_1377" data-name="Path 1377" d="M200.754,517.588h0c0,2.359-7.972,4.237-17.807,4.237s-17.807-1.895-17.807-4.237v-.039c0-.605.582-1.179,1.572-1.706h0c2.791-1.47,9.01-2.492,16.235-2.492s13.436,1.022,16.235,2.492h0C200.173,516.393,200.731,517.006,200.754,517.588Z" transform="translate(-41.112 -162.898)" fill="url(#linear-gradient-23)"/>
      <path id="Path_1378" data-name="Path 1378" d="M177.577,511.546a25.834,25.834,0,0,1-2.649-.1h-.181c-5.346-.448-14.073-2.429-19.325-10.456a22.977,22.977,0,0,1-1.478-2.618,27.343,27.343,0,0,1-2.028-5.755c-1.824-7.791-11.659-13.114-15.016-13.923,1.132-4.041,15.3-2.217,24,3.027a15.9,15.9,0,0,1,5.786,5.425h0l1.085,4.639a27.563,27.563,0,0,0,1.942,7.4,36.506,36.506,0,0,0,1.667,3.538,45.5,45.5,0,0,0,4.1,6.337C176.736,510.65,177.577,511.546,177.577,511.546Z" transform="translate(-35.074 -155.017)" fill="#f2e205"/>
      <path id="Path_1379" data-name="Path 1379" d="M176.492,510.572s-10.865-6.337-12.949-14.938-8.735-14.458-15.614-15.244" transform="translate(-37.433 -155.851)" fill="none" stroke="#a69806" stroke-miterlimit="10" stroke-width="0.68"/>
      <path id="Path_1380" data-name="Path 1380" d="M187.99,510.787s-6.1-24.836,1.195-31.274,17.807-8.821,26.833-3.931c-10.889.652-13.923,8.082-13.208,14.843C203.454,496.581,195.286,512.5,187.99,510.787Z" transform="translate(-45.487 -154.266)" fill="#3dadd9"/>
      <path id="Path_1381" data-name="Path 1381" d="M188.64,511.318c11.258-10.04-6.683-26.133,20.166-35.858" transform="translate(-46.137 -154.797)" fill="none" stroke="#fff" stroke-miterlimit="10" stroke-width="0.65"/>
      <path id="Path_1382" data-name="Path 1382" d="M172.045,493.75c-4.316.786-15.574-3.75-15.346-6.918.212-2.9,9.505-.668,14.261,2.28h0Z" transform="translate(-39.307 -156.939)" fill="url(#linear-gradient-24)"/>
      <path id="Path_1383" data-name="Path 1383" d="M175.966,508.425c-3,1.407-12.1.259-16.007-1.777-1.006-.519-1.659-1.1-1.785-1.706a.92.92,0,0,1,.314-.9c1.871-1.745,11.164-1.038,15.81.857a36.518,36.518,0,0,0,1.667,3.53Z" transform="translate(-39.619 -160.694)" fill="url(#linear-gradient-25)"/>
      <path id="Path_1384" data-name="Path 1384" d="M163.188,461.275c2.028-3.436,16.581,10.731,14.033,13.837S161.254,464.545,163.188,461.275Z" transform="translate(-40.655 -151.65)" fill="url(#linear-gradient-26)"/>
      <path id="Path_1385" data-name="Path 1385" d="M158.189,485.761c.291-4,17.862,1.753,16.958,5.7S157.906,489.59,158.189,485.761Z" transform="translate(-39.625 -156.71)" fill="url(#linear-gradient-27)"/>
      <path id="Path_1386" data-name="Path 1386" d="M195.471,463.53c3.145,2.437-12.257,15.669-14.993,12.736S192.507,461.2,195.471,463.53Z" transform="translate(-44.32 -152.183)" fill="url(#linear-gradient-28)"/>
      <path id="Path_1387" data-name="Path 1387" d="M193.786,484.944c2.618,2.956-12.217,10.393-14.45,7.076S191.293,482.129,193.786,484.944Z" transform="translate(-44.097 -156.679)" fill="url(#linear-gradient-29)"/>
      <path id="Path_1388" data-name="Path 1388" d="M180.531,460a115.712,115.712,0,0,1-.912,19.167c-1.36,8.931,2.068,24.05,7.634,28.885" transform="translate(-44.145 -151.491)" fill="none" stroke="#707070" stroke-miterlimit="10" stroke-width="0.98"/>
      <path id="Path_1389" data-name="Path 1389" d="M158.174,504.04c-.786-3.671,18.6-1.572,18.766,2.217S158.9,507.531,158.174,504.04Z" transform="translate(-39.618 -160.499)" fill="url(#linear-gradient-30)"/>
      <path id="Path_1390" data-name="Path 1390" d="M194.956,496.719c2,3.4-11.871,11.871-13.483,8.169S193.038,493.488,194.956,496.719Z" transform="translate(-44.575 -159.177)" fill="url(#linear-gradient-31)"/>
      <path id="Path_1391" data-name="Path 1391" d="M185.373,441.269c3.931.283-1.148,19.985-5.016,19.073S181.646,441,185.373,441.269Z" transform="translate(-44.073 -147.486)" fill="url(#linear-gradient-32)"/>
      <path id="Path_1392" data-name="Path 1392" d="M539.215,306.23l-.456,7.579v.063l-.275.715a38.441,38.441,0,0,1-29.584,8.648c.079-1.148.173-2.1.236-2.72,6.29.487,12.288.425,13.8-.786a10.9,10.9,0,0,0,2.249-3.074,29.175,29.175,0,0,0,14.034-10.425Z" transform="translate(-114.612 -118.614)" fill="url(#linear-gradient-33)"/>
      <path id="Path_1393" data-name="Path 1393" d="M190.653,247.092c-18.869-16.51-44.813,3.043-49.53,24.27-1.368,5.747-2.689,14.584-3.8,23.3-1.769,13.931,41.668,9.678,42.2,10.118s2.909,6.29,9.159,8.585C210.6,298.375,206.778,262.486,190.653,247.092Z" transform="translate(-35.154 -104.65)"/>
      <path id="Path_1394" data-name="Path 1394" d="M371.857,503.568l-36.235,2.477-38.468,2.634-12.209-22.43-4.694-8.625,57.392-4.324Z" transform="translate(-65.724 -154.335)" fill="#bfc3db" opacity="0.5"/>
      <path id="Path_1395" data-name="Path 1395" d="M373.307,500.678l-36.235,2.476L298.6,505.788l-12.21-22.43-4.694-8.625,57.392-4.324Z" transform="translate(-66.034 -153.717)" fill="url(#linear-gradient-34)"/>
      <path id="Path_1396" data-name="Path 1396" d="M225.646,372.978l1.4,7.131,22.1-2.123,22.383-7.17-28.688-5.228s-15.724-28.735-22.281-38.523c-2.068-3.1-8.224-3.868-10.739-4.984Z" transform="translate(-50.666 -122.003)" fill="#fcf264"/>
      <path id="Path_1397" data-name="Path 1397" d="M234.73,447.175h78.619l.275-3.821-77.4-2.264Z" transform="translate(-55.992 -147.448)" fill="#bfc3db" opacity="0.5"/>
      <path id="Path_1398" data-name="Path 1398" d="M236.31,445.361h78.619l.275-3.821H236.538Z" transform="translate(-56.329 -147.544)" fill="#8bcee8"/>
      <path id="Path_1399" data-name="Path 1399" d="M239.249,386.4,236.6,429.75h78.666l3.129-43.35Z" transform="translate(-56.391 -135.755)" fill="#8bcee8"/>
      <path id="Path_1400" data-name="Path 1400" d="M221.241,417.56a10.972,10.972,0,0,0-3.475,2.256l-.786,9.788a66.584,66.584,0,0,0,10.661,4.717,49.458,49.458,0,0,0,8.648,1.25c3.7.283,8.507.6,8.334-.786s-6.635-.841-6.856-1.714,10.22-.574,10.22-2.2-10.551-.393-10.551-1.156,12.949-.637,12.949-2.178c0-1.958-13.027-.574-12.728-1.848.173-.786,11.966-.543,11.856-2.068s-6.573-.865-10.5-1.2-7.941-1.958-8.53-3.7,8.742-3.805,7.768-5.11-17.029,3.931-17.029,3.931" transform="translate(-52.196 -141.529)" fill="url(#linear-gradient-35)"/>
      <path id="Path_1401" data-name="Path 1401" d="M182.666,316.637a28.413,28.413,0,0,1,18.483,5.456,24.774,24.774,0,0,1,5.6,5.763c4.843,7.076,7.139,30.363,4.961,51.1l-44.868,8.994c2.956,1.211,27.847,8.066,38.248,8.467-5.873,3.263-3.931,13.711-3.931,13.711-24.372-.519-52.305-2.673-57.132-21.864-3.687-14.647-5.739-36.235-5.9-45.111-.22-12.005,5.944-18.5,12.115-21.581s20.15-4.293,20.15-4.293Z" transform="translate(-35.336 -120.828)" fill="#fcf264"/>
      <path id="Path_1402" data-name="Path 1402" d="M205.684,248.831c-.1,1.14-.244,2.272-.4,3.381-1.509-5.786-11.384-12.343-22.571-11.321,0,0,0,1.352-2.107,1.73s-3.035-2.249-3.506,0-.464,5.283-3.035,5.283-4.214,1.635-4.442,3.271,4.112,7.516,1.934,8.963c-2.492,1.651-4.293,7.862-4.293,7.862s-1.942-14.348-9.67-5.944c-.542,1.572-1.006,3.1-1.392,4.646a5.407,5.407,0,0,1,1.462-5.118,4.718,4.718,0,0,1,1.171-.786A40.039,40.039,0,0,1,156.964,249a27.208,27.208,0,0,1,.786-6.808c3.058-11.793,18.35-15.252,28.3-14.568S206.635,237.769,205.684,248.831Z" transform="translate(-39.179 -101.79)" fill="url(#linear-gradient-36)"/>
      <path id="Path_1403" data-name="Path 1403" d="M163.761,294.672a34.529,34.529,0,0,0,24.788,14.938l-.071-1.329-.079-1.635c-7.076-2.1-15.614-7.021-25.52-17.3l.212.244A34.811,34.811,0,0,1,163.7,294,2.3,2.3,0,0,1,163.761,294.672Z" transform="translate(-40.629 -115.004)" fill="url(#linear-gradient-37)"/>
      <path id="Path_1404" data-name="Path 1404" d="M163.518,275.064s-2.3-2.72-3.609-.425,1.274,5.857,1.274,5.857Z" transform="translate(-39.915 -111.662)" fill="url(#linear-gradient-38)"/>
      <path id="Path_1405" data-name="Path 1405" d="M167.55,328.548s21.683,15.724,26.99,14.749,1.179-21.227,1.179-21.227" transform="translate(-41.628 -122)" fill="none" stroke="#fff" stroke-miterlimit="10" stroke-width="1"/>
      <path id="Path_1406" data-name="Path 1406" d="M214.2,288.491c2.233,4.859.786,11.447-2.288,15-2.72,3.145-2.178,6.911-4.411,8.845-4.521-6.926-8.648-13.106-15.787-15.889,12.831-14.089-5.142-39.522-6.47-44.655l-24.867,15.787s7.39,18.31-2.626,31.487c-2.115,2.783-11.353,20.535-20.936,15.991-5.723-2.72-1.973-8.271-3.333-9.772-4.662-5.15-9.725-10.606-7.343-14.851s1.486-2.233-.786-4.827-1.25-6.289.48-8.648-2.359-9.434.126-12.186c5.346-5.881,4.159-11.793,3.514-13.853s1.266-3.931,2.775-4.977,1.942-3.7,1.659-7.925,3.373-5.747,4.458-6.84c2.815-2.854,2.665-4.151,3.436-7.225,1.376-5.5,10.386-5.5,15.535-5.582s3.656-7.319,15.622-4.426c1.91.464,4.5,4.5,10.865,3.192,6.714-1.392,14.324,5.024,13.876,8.216s8.365,3.4,9.018,13.428c0,.259.039.55.063.865a18.641,18.641,0,0,0,2.7,8.1,17.834,17.834,0,0,1,1.5,3.145c1.47,4.072-1.14,8.161,0,11.722s3.145,8.892.888,14.151C209.271,282.767,213.186,286.282,214.2,288.491Z" transform="translate(-32.325 -98.736)"/>
      <path id="Path_1407" data-name="Path 1407" d="M206.263,281.292c-2.225,9.678-11.2,14.081-17.005,15.315-.558.11-1.085.2-1.572.252-.236,0-.456.063-.668.079l.079,1.635.149,2.083.126,1.848,4.135,17.343a2.437,2.437,0,0,1-3.766,2.563c-8.294-5.786-22.949-13.868-23.114-16.793,0,0-.857-4.458-2.028-18.012-.071-.849-.142-1.73-.22-2.649,0-.236-.047-.464-.063-.684,0-.456-.1-1.006-.165-1.572a20.439,20.439,0,0,0-.44-2.862,2.051,2.051,0,0,1-.212-.244c-3.247-3.664-4.874-6.879-5.267-9.434.22-.9.472-1.792.747-2.681a6.887,6.887,0,0,1,2.877-3.931c5.881-3.648,7.437,7.862,7.437,7.862s19.875-4.112,24.788-27.328a9.773,9.773,0,0,1,7.579,1.667c2.359,1.635,4.544,4.623,5.653,9.906h0a40.318,40.318,0,0,0-.731,9.041C204.919,268.642,207.828,274.546,206.263,281.292Z" transform="translate(-39.207 -105.287)" fill="url(#linear-gradient-39)"/>
      <path id="Path_1408" data-name="Path 1408" d="M202.667,245.818c-3.05,7.94-7.862,15.339-17.5,20.8-10.614,6.038-14.867,4.859-14.867,4.859s19.875-4.112,24.789-27.328A9.772,9.772,0,0,1,202.667,245.818Z" transform="translate(-42.216 -105.302)" fill="url(#linear-gradient-40)"/>
      <path id="Path_1409" data-name="Path 1409" d="M188.706,309.123l.149,2.083a38.275,38.275,0,0,1-24.647-13.051c-.071-.849-.142-1.73-.22-2.649,0-.236-.047-.464-.063-.684,0-.456-.1-1.006-.165-1.572,9.937,8.027,18.389,12.217,25.535,14.151-.236,0-.456.063-.668.079Z" transform="translate(-40.817 -115.838)" fill="url(#linear-gradient-41)"/>
      <path id="Path_1410" data-name="Path 1410" d="M114.731,478.554c0,4.977-10.566,9.018-23.586,9.018s-23.586-4.033-23.586-9.018c0-11.9,10.566-9.018,23.586-9.018S114.731,466.651,114.731,478.554Z" transform="translate(-20.249 -153.465)" fill="#a69806"/>
      <ellipse id="Ellipse_56" data-name="Ellipse 56" cx="23.594" cy="9.018" rx="23.594" ry="9.018" transform="translate(47.296 312.817)" fill="#f2e205"/>
      <path id="Path_1411" data-name="Path 1411" d="M92.444,459.041,73.67,427.067,93.686,393.19" transform="translate(-21.555 -137.207)" fill="none" stroke="#707070" stroke-miterlimit="10" stroke-width="4.15"/>
      <path id="Path_1412" data-name="Path 1412" d="M126.855,387.315l-20.968,19.812L91.468,388.66a12.272,12.272,0,0,1,1.242-16.51h0a12.272,12.272,0,0,1,16.51-.307Z" transform="translate(-24.801 -131.992)" fill="#f2e205"/>
    </g>
  </g>
</svg>
