<svg id="enterprise_-_building" data-name="enterprise - building" xmlns="http://www.w3.org/2000/svg" xmlns:xlink="http://www.w3.org/1999/xlink" width="25" height="25" viewBox="0 0 25 25">
  <defs>
    <clipPath id="clip-path">
      <rect id="Rectangle_859" data-name="Rectangle 859" width="25" height="25" transform="translate(447 585)" fill="#3dadd9"/>
    </clipPath>
  </defs>
  <g id="Mask_Group_36" data-name="Mask Group 36" transform="translate(-447 -585)" clip-path="url(#clip-path)">
    <g id="TPE" transform="translate(447.132 585.084)">
      <path id="Path_494" data-name="Path 494" d="M9.114,15.322a.35.35,0,0,0,.4.4h1.717a.35.35,0,0,0,.4-.4v-2.51a.35.35,0,0,0-.4-.4H9.51a.35.35,0,0,0-.4.4v2.51Zm.793-1.981H10.7v1.717H9.907V13.341Zm-.4-2.51h1.717a.35.35,0,0,0,.4-.4V7.925a.35.35,0,0,0-.4-.4H9.51a.422.422,0,0,0-.4.4v2.51A.6.6,0,0,0,9.51,10.831Zm.4-2.51H10.7v1.717H9.907V8.322Z" fill="#3dadd9"/>
      <path id="Path_495" data-name="Path 495" d="M6.472,7.793l6.076-3.566,5.944,3.566h.264c.132,0,.264-.132.4-.264s0-.4-.132-.528L12.813,3.566V.925h2.113v.793H13.737a.35.35,0,0,0-.4.4.35.35,0,0,0,.4.4h1.717a.35.35,0,0,0,.4-.4V.4a.35.35,0,0,0-.4-.4H12.416a.422.422,0,0,0-.4.4V3.434l-5.944,3.7a.527.527,0,0,0-.264.528C5.944,7.925,6.208,7.925,6.472,7.793ZM4.623,15.719a.35.35,0,0,0,.4-.4v-2.51a.35.35,0,0,0-.4-.4H2.906a.422.422,0,0,0-.4.4v.793a.35.35,0,0,0,.4.4.35.35,0,0,0,.4-.4v-.4h.793v2.113c0,.264.264.4.528.4Zm2.906,5.416V9.114a.35.35,0,0,0-.4-.4c-.264,0-.528.132-.528.4v12.02a.35.35,0,0,0,.4.4c.264,0,.528-.132.528-.4Z" fill="#3dadd9"/>
      <path id="Path_496" data-name="Path 496" d="M5.416,23.248H19.549a.4.4,0,0,0,0-.793h-3.7V18.36h.4a.4.4,0,1,0,0-.793H8.718a.4.4,0,1,0,0,.793h.4v4.095h-3.7a.4.4,0,1,0,0,.793Zm7.4-2.51a.4.4,0,1,0,0-.793V18.228h2.113v4.227H12.813V20.738Zm-2.906-2.51H12.02v1.717a.4.4,0,1,0,0,.793v1.717H9.907V18.228Zm12.152-.4H20.342a.35.35,0,0,0-.4.4v2.51a.35.35,0,0,0,.4.4h1.717a.35.35,0,0,0,.4-.4v-2.51A.6.6,0,0,0,22.059,17.832Zm-.528,2.51h-.793V18.625h.793Zm.528-7.529H20.342a.35.35,0,0,0-.4.4v2.51a.35.35,0,0,0,.4.4h1.717a.35.35,0,0,0,.4-.4v-2.51A.6.6,0,0,0,22.059,12.813Zm-.528,2.51h-.793V13.605h.793Zm-.4,8.718H3.7a.4.4,0,1,0,0,.793H21.134a.4.4,0,1,0,0-.793Z" fill="#3dadd9"/>
      <path id="Path_497" data-name="Path 497" d="M24.437,9.114a.35.35,0,0,0-.4.4v.4H19.417a.4.4,0,1,0,0,.793H24.04V24.437a.4.4,0,0,0,.793,0V9.51C24.965,9.378,24.7,9.114,24.437,9.114Zm-11.1,6.208a.35.35,0,0,0,.4.4h1.717a.35.35,0,0,0,.4-.4v-2.51a.35.35,0,0,0-.4-.4H13.737a.35.35,0,0,0-.4.4v2.51Zm.793-1.981h.793v1.717h-.793Zm-10.039,7s0-5.416-2.113-5.416S-.132,20.21-.132,20.342a1.9,1.9,0,0,0,1.717,1.981v2.113a.35.35,0,0,0,.4.4.35.35,0,0,0,.4-.4V22.323a1.9,1.9,0,0,0,1.717-1.981ZM2.113,21.531A1.184,1.184,0,0,1,.925,20.342c0-2.113.528-4.623,1.189-4.623S3.3,18.228,3.3,20.342A1.184,1.184,0,0,1,2.113,21.531Zm16.115-.4V8.718a.4.4,0,1,0-.793,0V21.134a.4.4,0,1,0,.793,0Zm-4.491-10.3h1.717a.35.35,0,0,0,.4-.4V7.925a.35.35,0,0,0-.4-.4H13.737a.35.35,0,0,0-.4.4v2.51A.422.422,0,0,0,13.737,10.831Zm.4-2.51h.793v1.717h-.793V8.322ZM.4,14.53a.35.35,0,0,0,.4-.4v-3.3H5.416a.4.4,0,0,0,0-.793H.793V9.51a.35.35,0,0,0-.4-.4.422.422,0,0,0-.4.4v4.623a.35.35,0,0,0,.4.4Z" fill="#3dadd9"/>
    </g>
  </g>
</svg>
