<svg xmlns="http://www.w3.org/2000/svg" xmlns:xlink="http://www.w3.org/1999/xlink" width="29" height="32" viewBox="0 0 29 32"><defs><clipPath id="a"><rect width="29" height="32" transform="translate(237 390)" fill="#3dadd9"/></clipPath></defs><g transform="translate(-237 -390)" clip-path="url(#a)"><g transform="translate(234.708 389.211)"><path d="M24.426,22.866a10.407,10.407,0,0,1,5.266,1.667A10.394,10.394,0,0,1,24.426,26.2a10.4,10.4,0,0,1-5.267-1.667,10.4,10.4,0,0,1,5.267-1.667m0-.918a11.989,11.989,0,0,0-6.867,2.584,11.986,11.986,0,0,0,6.867,2.586,11.983,11.983,0,0,0,6.866-2.586A11.989,11.989,0,0,0,24.426,21.947Z" fill="#3dadd9"/><path d="M24.426,23.16a1.373,1.373,0,1,1-1.373,1.372,1.373,1.373,0,0,1,1.373-1.372m0-.918a2.291,2.291,0,1,0,2.291,2.291,2.291,2.291,0,0,0-2.291-2.291Z" fill="#3dadd9"/><path d="M29.4,14.642a13.637,13.637,0,0,0-27.1,2.15,13.151,13.151,0,0,0,.066,1.318A13.632,13.632,0,0,0,24.3,27.558a10.291,10.291,0,0,1-1.363-.11,12.674,12.674,0,0,1-3.059,1.471,15.658,15.658,0,0,0,.862-2.012c-.285-.1-.561-.2-.826-.314a13.3,13.3,0,0,1-1.241,2.653l-.023.005-.119.024c-.081.017-.161.033-.241.049l-.142.025c-.073.012-.148.026-.221.037l-.15.022-.216.03-.153.019-.217.023-.151.014-.226.017-.143.01-.249.011h-.031v-9.3c1.69-.013,3.312-.1,4.82-.237-.054.71-.131,1.4-.228,2.077.3-.1.611-.186.931-.262q.122-.929.2-1.907a27.683,27.683,0,0,0,6.459-1.385,12.673,12.673,0,0,1-.984,3.464c.291.086.573.181.844.281a13.543,13.543,0,0,0,1.081-4.157,13.138,13.138,0,0,0,.066-1.318,13.666,13.666,0,0,0-.178-2.15ZM16.783,4.07c.119.008.239.017.358.028l.048.005q.181.018.361.04h.014a8.838,8.838,0,0,1,2.018,3.164,23.007,23.007,0,0,1,1.412,5.477c-1.447-.131-3-.205-4.607-.218V4.05c.109,0,.218.009.328.015ZM15.471,19.353c-1.683-.012-3.319-.1-4.877-.247-.028-.57-.044-1.149-.044-1.727a33.485,33.485,0,0,1,.2-3.691c1.509-.142,3.091-.219,4.723-.232ZM14.293,4.145h.016q.178-.023.358-.04l.049-.005c.119-.011.239-.02.358-.028l.066,0c.109-.007.218-.011.328-.015v8.516c-1.611.012-3.16.087-4.607.218a22.984,22.984,0,0,1,1.413-5.477A8.854,8.854,0,0,1,14.293,4.145ZM4.6,10.93a12.81,12.81,0,0,1,5.575-5.522,12.629,12.629,0,0,1,2.689-1,18.787,18.787,0,0,0-2.912,8.465,28.558,28.558,0,0,0-6.519,1.358A12.631,12.631,0,0,1,4.6,10.93ZM3.2,17.477c0-.078-.007-.156-.01-.234l0-.11c0-.113,0-.228,0-.341s0-.23.005-.345v-.083c0-.113.009-.228.016-.341v-.03q.01-.159.024-.317c0-.028,0-.054.007-.082.01-.112.022-.224.035-.335v-.013A25.273,25.273,0,0,1,9.842,13.78a34.39,34.39,0,0,0-.186,3.6c0,.552.014,1.1.039,1.632a24.6,24.6,0,0,1-6.5-1.481A.146.146,0,0,0,3.2,17.477Zm.1,1.045a27.684,27.684,0,0,0,6.458,1.385,23.935,23.935,0,0,0,2.23,9.013,12.753,12.753,0,0,1-8.688-10.4Zm11.895,11c-.048,0-.1-.007-.143-.01l-.226-.017-.151-.014-.218-.023-.153-.019-.216-.03-.15-.022c-.074-.011-.148-.024-.222-.037l-.14-.024c-.081-.015-.161-.031-.241-.049l-.118-.024-.024-.005A21.238,21.238,0,0,1,10.648,20c1.509.142,3.129.224,4.82.237v9.3h-.032ZM21.265,19.1c-1.558.152-3.194.234-4.877.247v-5.9c1.629.012,3.214.089,4.723.232a33.485,33.485,0,0,1,.2,3.691C21.309,17.955,21.293,18.534,21.265,19.1Zm.638-6.228a18.742,18.742,0,0,0-2.913-8.462,12.747,12.747,0,0,1,9.432,9.819A28.544,28.544,0,0,0,21.9,12.876Zm6.772,4.257a1.031,1.031,0,0,1,0,.11c0,.078-.006.155-.01.233a.272.272,0,0,1,0,.052,24.591,24.591,0,0,1-6.5,1.481q.037-.8.039-1.632a34.575,34.575,0,0,0-.186-3.6,25.285,25.285,0,0,1,6.577,1.467v.012c.014.112.025.224.035.336,0,.027.005.054.007.081.009.106.018.212.024.317v.03c.007.113.011.228.015.341v.083c0,.115.005.23.005.345S28.677,17.019,28.674,17.133Z" fill="#3dadd9"/></g></g></svg>