<?xml version="1.0" encoding="UTF-8" standalone="no"?>
<!-- Created with Inkscape (http://www.inkscape.org/) -->

<svg
   xmlns:dc="http://purl.org/dc/elements/1.1/"
   xmlns:cc="http://creativecommons.org/ns#"
   xmlns:rdf="http://www.w3.org/1999/02/22-rdf-syntax-ns#"
   xmlns:svg="http://www.w3.org/2000/svg"
   xmlns="http://www.w3.org/2000/svg"
   xmlns:sodipodi="http://sodipodi.sourceforge.net/DTD/sodipodi-0.dtd"
   xmlns:inkscape="http://www.inkscape.org/namespaces/inkscape"
   version="1.1"
   id="svg6707"
   width="14"
   height="14"
   viewBox="0 0 14 14"
   sodipodi:docname="heart.svg"
   inkscape:version="0.92.3 (unknown)">
  <metadata
     id="metadata6713">
    <rdf:RDF>
      <cc:Work
         rdf:about="">
        <dc:format>image/svg+xml</dc:format>
        <dc:type
           rdf:resource="http://purl.org/dc/dcmitype/StillImage" />
        <dc:title />
      </cc:Work>
    </rdf:RDF>
  </metadata>
  <defs
     id="defs6711" />
  <sodipodi:namedview
     pagecolor="#ffffff"
     bordercolor="#666666"
     borderopacity="1"
     objecttolerance="10"
     gridtolerance="10"
     guidetolerance="10"
     inkscape:pageopacity="0"
     inkscape:pageshadow="2"
     inkscape:window-width="1366"
     inkscape:window-height="713"
     id="namedview6709"
     showgrid="false"
     inkscape:measure-start="0,0"
     inkscape:measure-end="0,0"
     inkscape:zoom="22.627417"
     inkscape:cx="-1.7475744"
     inkscape:cy="5.3784611"
     inkscape:window-x="0"
     inkscape:window-y="27"
     inkscape:window-maximized="1"
     inkscape:current-layer="svg6707" />
  <path
     style="opacity:0.98999999;fill:none;fill-opacity:1;stroke:#3dadd9;stroke-width:0.76029122;stroke-linecap:round;stroke-linejoin:round;stroke-miterlimit:2.79999995;stroke-dasharray:none;stroke-opacity:1;paint-order:normal"
     d="M 3.7372726,0.40577608 C 2.52334,0.42094308 1.3641441,1.24631 0.80822,2.4443379 0.2500599,3.6037581 0.2388792,5.0645251 0.787803,6.2305662 c 0.1843358,0.401702 0.4209779,0.751525 0.6717173,1.0936284 0.9291651,1.2677381 2.0171932,2.3865275 3.0659431,3.5265514 0.8418584,0.899384 1.6875084,1.799322 2.4399211,2.794472 0,0.0029 0.012639,-0.0029 0,0 0.016529,-0.04871 0,0 0,0 1.7057867,-1.489215 3.3720035,-3.151586 4.8033275,-5.000648 0.446937,-0.5773767 0.863832,-1.1985338 1.1661,-1.8827211 0.329491,-0.745711 0.682606,-1.5293589 0.684745,-2.3742095 0,-0.1946336 -0.0097,-0.3894517 -0.03597,-0.5817616 C 13.544695,3.4994072 13.474111,3.1979046 13.370374,2.9092941 12.97934,1.7597909 12.078758,0.8330578 11.001036,0.5459056 10.723074,0.46851498 10.436167,0.43085997 10.149746,0.43484617 8.9358137,0.4501104 7.7765202,1.2753315 7.2206935,2.473408 7.136109,2.6495689 7.063872,2.8327785 7.0043712,3.0207618 6.9927044,2.9852749 6.9810375,2.9499825 6.9693707,2.914904 6.5861157,1.7572338 5.6885483,0.8182019 4.6081035,0.5224162 4.323822,0.44142826 4.0301098,0.4016246 3.7366893,0.40577608 Z"
     id="path7260"
     inkscape:connector-curvature="0"
     sodipodi:nodetypes="cccaccccaacccccccccc" />
</svg>
