<svg id="lettre_d_info" data-name="lettre d&apos;info" xmlns="http://www.w3.org/2000/svg" xmlns:xlink="http://www.w3.org/1999/xlink" width="45" height="45" viewBox="0 0 45 45">
  <defs>
    <clipPath id="clip-path">
      <rect id="Rectangle_29" data-name="Rectangle 29" width="45" height="45" transform="translate(1274 186)"/>
    </clipPath>
  </defs>
  <g id="Mask_Group_2" data-name="Mask Group 2" transform="translate(-1274 -186)" clip-path="url(#clip-path)">
    <g id="lettreInfo" transform="translate(1274 186)">
      <path id="Path_26" data-name="Path 26" d="M44.733,16.334l-2.552-1.893V3.479a.661.661,0,0,0-.66-.661H26.5C26.474,2.792,22.894.131,22.894.131a.66.66,0,0,0-.788,0L18.484,2.819H3.479a.661.661,0,0,0-.661.661V14.442L.268,16.334A.661.661,0,0,0,0,16.864V44.34A.661.661,0,0,0,.66,45H44.339A.667.667,0,0,0,45,44.34V16.864a.682.682,0,0,0-.267-.529Zm-2.552-.248.989.734-.989.622ZM22.5,1.483l1.8,1.335H20.7l1.8-1.335ZM4.14,4.14H40.861V18.274l-2.312,1.454H32.143a.661.661,0,0,0,0,1.322H36.45L22.5,29.824,8.551,21.049H28.973a.661.661,0,0,0,0-1.322H6.451L4.139,18.274V4.14ZM2.817,16.086v1.356l-.988-.622ZM1.322,43.68V18.06L42.049,43.681H1.322Zm42.357-.535L23.741,30.6,43.678,18.06Z" fill="#fff"/>
      <path id="Path_27" data-name="Path 27" d="M36.591,7.749H30.955a.661.661,0,0,0-.661.661v7.044a.662.662,0,0,0,.661.661h5.636a.66.66,0,0,0,.66-.661V8.411a.66.66,0,0,0-.66-.661Zm-.66,7.046H31.615V9.071h4.316ZM28.136,7.749H8.411a.661.661,0,0,0,0,1.322H28.136a.661.661,0,1,0,0-1.322Zm-9.114,3.524H8.411a.661.661,0,0,0,0,1.322H19.022a.661.661,0,0,0,0-1.322Zm9.114,0H21.8a.661.661,0,1,0,0,1.322h6.339a.661.661,0,1,0,0-1.322Zm-5.592,3.522H8.411a.661.661,0,0,0,0,1.322H22.544a.661.661,0,0,0,0-1.322Zm5.592,0H25.319a.661.661,0,0,0,0,1.322h2.817a.661.661,0,1,0,0-1.322Zm1.409,7.749H26.021a.661.661,0,0,0,0,1.322h3.524a.661.661,0,0,0,0-1.322Zm-6.341,0H15.455a.661.661,0,1,0,0,1.322H23.2a.661.661,0,1,0,0-1.322ZM21.8,26.066H18.977a.661.661,0,0,0,0,1.322H21.8a.661.661,0,1,0,0-1.322Zm3.522,0H23.909a.661.661,0,0,0,0,1.322h1.409a.661.661,0,0,0,0-1.322Z" fill="#fff"/>
    </g>
  </g>
</svg>
