<?xml version="1.0" encoding="UTF-8" standalone="no"?>
<svg
   xmlns:dc="http://purl.org/dc/elements/1.1/"
   xmlns:cc="http://creativecommons.org/ns#"
   xmlns:rdf="http://www.w3.org/1999/02/22-rdf-syntax-ns#"
   xmlns:svg="http://www.w3.org/2000/svg"
   xmlns="http://www.w3.org/2000/svg"
   xmlns:sodipodi="http://sodipodi.sourceforge.net/DTD/sodipodi-0.dtd"
   xmlns:inkscape="http://www.inkscape.org/namespaces/inkscape"
   id="link-connection"
   width="39.999"
   height="40"
   viewBox="0 0 39.999 40"
   version="1.1"
   sodipodi:docname="link-connection-blue.svg"
   inkscape:version="0.92.3 (unknown)">
  <metadata
     id="metadata9">
    <rdf:RDF>
      <cc:Work
         rdf:about="">
        <dc:format>image/svg+xml</dc:format>
        <dc:type
           rdf:resource="http://purl.org/dc/dcmitype/StillImage" />
      </cc:Work>
    </rdf:RDF>
  </metadata>
  <defs
     id="defs7" />
  <sodipodi:namedview
     pagecolor="#ffffff"
     bordercolor="#666666"
     borderopacity="1"
     objecttolerance="10"
     gridtolerance="10"
     guidetolerance="10"
     inkscape:pageopacity="0"
     inkscape:pageshadow="2"
     inkscape:window-width="785"
     inkscape:window-height="480"
     id="namedview5"
     showgrid="false"
     inkscape:zoom="7.3519531"
     inkscape:cx="4.153371"
     inkscape:cy="20"
     inkscape:window-x="0"
     inkscape:window-y="27"
     inkscape:window-maximized="0"
     inkscape:current-layer="link-connection" />
  <path
     id="Path_858"
     data-name="Path 858"
     d="M10.167,43.833a9.456,9.456,0,0,0,6.667-2.5l7.5-7.5a9.451,9.451,0,0,0,2.5-6.667A9.854,9.854,0,0,0,20.167,18v1.667c3.137.96,5,4.217,5,7.5a7.173,7.173,0,0,1-2.5,5l-7.5,7.5a7.17,7.17,0,0,1-5,2.5,7.569,7.569,0,0,1-7.5-7.5,7.173,7.173,0,0,1,2.5-5l7.5-7.5a9.83,9.83,0,0,1,.833-.833l-.833-1.667c-.332.251-1.369.536-1.667.833L3.5,28A9.455,9.455,0,0,0,1,34.667,9.238,9.238,0,0,0,10.167,43.833Z"
     transform="translate(-1 -3.833)"
     fill="#707070"
     style="fill:#3dadd9;fill-opacity:1" />
  <path
     id="Path_859"
     data-name="Path 859"
     d="M34.667,1A9.456,9.456,0,0,0,28,3.5L20.5,11a9.6,9.6,0,0,0,5,15.833V25.167a7.528,7.528,0,0,1-5.833-7.5,7.173,7.173,0,0,1,2.5-5l7.5-7.5a7.168,7.168,0,0,1,5-2.5,7.569,7.569,0,0,1,7.5,7.5,7.173,7.173,0,0,1-2.5,5l-7.5,7.5c-.216.215-.6.653-.833.833L33,25.167a10.484,10.484,0,0,0,.833-.833l7.5-7.5a9.451,9.451,0,0,0,2.5-6.667A9.238,9.238,0,0,0,34.667,1Z"
     transform="translate(-3.834 -1)"
     fill="#707070"
     style="fill:#3dadd9;fill-opacity:1" />
</svg>
