<svg xmlns="http://www.w3.org/2000/svg" width="14.434" height="22.325" viewBox="0 0 14.434 22.325">
  <g id="location" transform="translate(0.5 0.5)">
    <path id="Exclusion_1" data-name="Exclusion 1" d="M21.717-6065h0c-.017-.026-1.709-2.647-3.358-5.656-1.532-2.8-3.358-6.542-3.358-8.5A6.792,6.792,0,0,1,21.717-6086a6.792,6.792,0,0,1,6.717,6.848c0,1.954-1.826,5.7-3.358,8.5-1.648,3.009-3.341,5.63-3.358,5.656Zm0-16.434a2.263,2.263,0,0,0-2.239,2.281,2.264,2.264,0,0,0,2.239,2.283,2.264,2.264,0,0,0,2.239-2.283A2.263,2.263,0,0,0,21.717-6081.434Z" transform="translate(-15 6086)" fill="none" stroke="#3dadd9" stroke-width="1"/>
  </g>
</svg>
