<?xml version="1.0" encoding="utf-8"?>
<!-- Generator: Adobe Illustrator 23.0.1, SVG Export Plug-In . SVG Version: 6.00 Build 0)  -->
<svg version="1.1" id="Layer_1" xmlns="http://www.w3.org/2000/svg" xmlns:xlink="http://www.w3.org/1999/xlink" x="0px" y="0px"
	 viewBox="0 0 25 29" style="enable-background:new 0 0 25 29;" xml:space="preserve">
<style type="text/css">
	.st0{fill:none;}
	.st1{fill:#3DADD9;}
	.st2{fill:#FFFFFF;}
</style>
<g id="location_map" transform="translate(0 2)">
	<g id="Path_498" transform="translate(0 14)">
		<g>
			<path class="st0" d="M8.1,1C7.9,0.7,7.7,0.3,7.6,0h1.1C8.9,0.3,9,0.7,9.2,1c0,0,0,0.1,0.1,0.1c1.1,2.1,2.3,4,2.9,5
				c0.6-1,1.8-2.9,2.9-5c0,0,0-0.1,0.1-0.1c0.2-0.3,0.4-0.7,0.5-1h1.1c-0.2,0.3-0.3,0.7-0.5,1c-0.1,0.2-0.2,0.4-0.3,0.6
				c-1.4,2.6-2.8,4.8-3.3,5.5c0.1,0,0.2,0.1,0.3,0.2c0.3,0.1,0.3,0.4,0.2,0.7c-0.1,0.2-0.3,0.3-0.4,0.3c-0.1,0-0.2,0-0.2-0.1
				c-0.1-0.1-0.3-0.1-0.4-0.2c0,0,0,0,0,0L12,8.2l-0.3-1c-0.4-0.6-1.9-2.9-3.3-5.6C8.3,1.4,8.2,1.2,8.1,1z"/>
			<path class="st0" d="M5.9,7.7C6.1,8,6,8.3,5.8,8.4c-0.1,0-0.2,0.1-0.3,0.1c-0.2,0-0.3-0.1-0.4-0.3C5,8.1,4.9,7.9,4.8,7.7
				C4.8,7.4,4.9,7.1,5.2,7.1C5.5,7,5.7,7.2,5.8,7.4C5.8,7.5,5.9,7.7,5.9,7.7z"/>
			<path class="st0" d="M6,5.7c0,0-0.1,0.2-0.1,0.4c0,0.2-0.3,0.4-0.5,0.4c0,0-0.1,0-0.1,0C5,6.5,4.8,6.2,4.9,5.9C5,5.6,5,5.4,5,5.4
				C5.1,5.1,5.4,5,5.7,5.1C5.9,5.2,6.1,5.5,6,5.7z"/>
			<path class="st0" d="M6.3,8.7c0-0.3,0.3-0.5,0.6-0.4c0.1,0,0.3,0,0.4,0c0.3,0,0.5,0.2,0.5,0.5c0,0.3-0.2,0.5-0.5,0.5
				c-0.2,0-0.4,0-0.6,0C6.4,9.2,6.2,8.9,6.3,8.7z"/>
			<path class="st0" d="M8.2,8.6C8.1,8.4,8.3,8.1,8.5,8c0.1-0.1,0.3-0.1,0.4-0.2c0.2-0.1,0.5,0,0.7,0.2c0.1,0.3,0,0.5-0.2,0.7
				C9.2,8.7,9.1,8.8,8.9,8.9c-0.1,0-0.1,0-0.2,0C8.5,8.9,8.3,8.8,8.2,8.6z"/>
			<path class="st0" d="M10,7.7C10,7.6,10,7.4,10,7.3c0-0.1,0.1-0.2,0.2-0.2c0.2-0.1,0.4-0.1,0.5-0.2c0.3-0.1,0.5,0.1,0.6,0.3
				c0.1,0.3-0.1,0.5-0.3,0.6c-0.1,0-0.3,0.1-0.4,0.2c-0.1,0-0.1,0-0.2,0c0,0,0,0-0.1,0C10.3,8,10.1,7.9,10,7.7z"/>
			<path class="st0" d="M13.7,8.4c0-0.1,0-0.2,0.1-0.2C13.8,8.1,13.9,8,14,8c0.1-0.1,0.3-0.1,0.4,0c0.1,0.1,0.3,0.1,0.4,0.2
				c0.3,0.1,0.4,0.4,0.3,0.7C15,9,14.8,9.1,14.6,9.1c-0.1,0-0.1,0-0.2,0C14.3,9,14.1,9,14,8.9C13.8,8.8,13.7,8.6,13.7,8.4z"/>
			<path class="st0" d="M15.6,8.9c0-0.3,0.2-0.5,0.4-0.6c0.1,0,0.3,0,0.4-0.1l0.3,0.9c-0.2,0.1-0.4,0.1-0.6,0.2h-0.1
				C15.9,9.3,15.6,9.2,15.6,8.9z"/>
			<path class="st0" d="M17.5,8.2c-0.2-0.2-0.2-0.5-0.1-0.7c0.1-0.1,0.2-0.2,0.3-0.4c0.1-0.2,0.5-0.3,0.7-0.1
				c0.2,0.1,0.3,0.5,0.2,0.7c-0.1,0.2-0.2,0.3-0.3,0.5c-0.1,0.1-0.2,0.2-0.4,0.2C17.7,8.3,17.5,8.3,17.5,8.2z"/>
			<path class="st0" d="M17.8,4c-0.2-0.2-0.2-0.5,0.1-0.7c0.2-0.2,0.5-0.1,0.7,0.1c0.1,0.2,0.2,0.3,0.3,0.5c0.1,0.3,0,0.5-0.2,0.7
				c-0.1,0-0.2,0.1-0.2,0.1c-0.2,0-0.4-0.1-0.4-0.3C18,4.2,17.9,4.1,17.8,4z"/>
			<path class="st0" d="M18.8,5.1c0.3,0,0.5,0.3,0.5,0.5c0,0.2,0,0.4-0.1,0.6c0,0.2-0.3,0.4-0.5,0.4c0,0-0.1,0-0.1,0
				c-0.3-0.1-0.4-0.3-0.4-0.6c0-0.1,0-0.3,0.1-0.4C18.2,5.2,18.5,5,18.8,5.1z"/>
			<path class="st0" d="M25,13H0L2.3,0h3.6C6,0.3,6.2,0.6,6.4,1H3.2l-2,11h22.6L21.5,1H18c0.2-0.3,0.3-0.7,0.5-1h3.8L25,13z"/>
		</g>
		<g>
			<path class="st1" d="M8.7,0H7.6c0.2,0.3,0.3,0.7,0.5,1h1.1C9,0.7,8.9,0.3,8.7,0z M22.3,0h-3.8c-0.2,0.3-0.3,0.7-0.5,1h3.5l2.3,11
				H1.2l2-11h3.2C6.2,0.6,6,0.3,5.9,0H2.3L0,13h25L22.3,0z M15.7,0c-0.2,0.3-0.3,0.7-0.5,1h1.1c0.2-0.3,0.4-0.7,0.5-1H15.7z"/>
		</g>
	</g>
	<g id="Exclusion_3">
		<path class="st2" d="M12.2,4.1L12.2,4.1c-1.5,0-2.8,1.3-2.7,2.8c0,1.5,1.2,2.8,2.7,2.8c1.5,0,2.8-1.3,2.7-2.8
			C15,5.3,13.7,4.1,12.2,4.1z M12.2,9.1c-1.3,0-2.3-1-2.2-2.3c0-1.3,1-2.3,2.2-2.3c1.2,0,2.3,1,2.2,2.3C14.5,8.1,13.5,9.1,12.2,9.1z
			 M12.2,4.1L12.2,4.1c-1.5,0-2.8,1.3-2.7,2.8c0,1.5,1.2,2.8,2.7,2.8c1.5,0,2.8-1.3,2.7-2.8C15,5.3,13.7,4.1,12.2,4.1z M12.2,9.1
			c-1.3,0-2.3-1-2.2-2.3c0-1.3,1-2.3,2.2-2.3c1.2,0,2.3,1,2.2,2.3C14.5,8.1,13.5,9.1,12.2,9.1z M12.2,4.1L12.2,4.1
			c-1.5,0-2.8,1.3-2.7,2.8c0,1.5,1.2,2.8,2.7,2.8c1.5,0,2.8-1.3,2.7-2.8C15,5.3,13.7,4.1,12.2,4.1z M12.2,9.1c-1.3,0-2.3-1-2.2-2.3
			c0-1.3,1-2.3,2.2-2.3c1.2,0,2.3,1,2.2,2.3C14.5,8.1,13.5,9.1,12.2,9.1z M12.2,4.1L12.2,4.1c-1.5,0-2.8,1.3-2.7,2.8
			c0,1.5,1.2,2.8,2.7,2.8c1.5,0,2.8-1.3,2.7-2.8C15,5.3,13.7,4.1,12.2,4.1z M12.2,9.1c-1.3,0-2.3-1-2.2-2.3c0-1.3,1-2.3,2.2-2.3
			c1.2,0,2.3,1,2.2,2.3C14.5,8.1,13.5,9.1,12.2,9.1z M12.2,4.1L12.2,4.1c-1.5,0-2.8,1.3-2.7,2.8c0,1.5,1.2,2.8,2.7,2.8
			c1.5,0,2.8-1.3,2.7-2.8C15,5.3,13.7,4.1,12.2,4.1z M12.2,9.1c-1.3,0-2.3-1-2.2-2.3c0-1.3,1-2.3,2.2-2.3c1.2,0,2.3,1,2.2,2.3
			C14.5,8.1,13.5,9.1,12.2,9.1z M12.2,4.1L12.2,4.1c-1.5,0-2.8,1.3-2.7,2.8c0,1.5,1.2,2.8,2.7,2.8c1.5,0,2.8-1.3,2.7-2.8
			C15,5.3,13.7,4.1,12.2,4.1z M12.2,9.1c-1.3,0-2.3-1-2.2-2.3c0-1.3,1-2.3,2.2-2.3c1.2,0,2.3,1,2.2,2.3C14.5,8.1,13.5,9.1,12.2,9.1z
			 M12.2,0C8.5,0,5.5,3.1,5.5,6.8c0,1.7,1.3,4.6,2.7,7.2c0.2,0.3,0.3,0.7,0.5,1c0.1,0.1,0.1,0.2,0.2,0.3c1.7,3,3.3,5.6,3.4,5.7
			c0.1-0.2,1.8-2.7,3.4-5.7c0.1-0.1,0.1-0.2,0.2-0.3c0.2-0.3,0.3-0.7,0.5-1c1.3-2.6,2.6-5.5,2.6-7.2C19,3.1,16,0,12.2,0z M15.7,14
			c-0.2,0.3-0.3,0.7-0.5,1c0,0,0,0.1-0.1,0.1c-1.2,2.1-2.3,4-2.9,5c-0.6-1-1.8-2.9-2.9-5c0,0,0-0.1-0.1-0.1c-0.2-0.3-0.4-0.7-0.5-1
			C7,10.7,6,8.1,6,6.8c0-3.5,2.8-6.3,6.2-6.3c3.5,0,6.3,2.9,6.2,6.3C18.4,8.2,17.5,10.7,15.7,14z M12.2,4.1L12.2,4.1
			c-1.5,0-2.8,1.3-2.7,2.8c0,1.5,1.2,2.8,2.7,2.8c1.5,0,2.8-1.3,2.7-2.8C15,5.3,13.7,4.1,12.2,4.1z M12.2,9.1c-1.3,0-2.3-1-2.2-2.3
			c0-1.3,1-2.3,2.2-2.3c1.2,0,2.3,1,2.2,2.3C14.5,8.1,13.5,9.1,12.2,9.1z M12.2,4.1L12.2,4.1c-1.5,0-2.8,1.3-2.7,2.8
			c0,1.5,1.2,2.8,2.7,2.8c1.5,0,2.8-1.3,2.7-2.8C15,5.3,13.7,4.1,12.2,4.1z M12.2,9.1c-1.3,0-2.3-1-2.2-2.3c0-1.3,1-2.3,2.2-2.3
			c1.2,0,2.3,1,2.2,2.3C14.5,8.1,13.5,9.1,12.2,9.1z M12.2,4.1L12.2,4.1c-1.5,0-2.8,1.3-2.7,2.8c0,1.5,1.2,2.8,2.7,2.8
			c1.5,0,2.8-1.3,2.7-2.8C15,5.3,13.7,4.1,12.2,4.1z M12.2,9.1c-1.3,0-2.3-1-2.2-2.3c0-1.3,1-2.3,2.2-2.3c1.2,0,2.3,1,2.2,2.3
			C14.5,8.1,13.5,9.1,12.2,9.1z M12.2,4.1L12.2,4.1c-1.5,0-2.8,1.3-2.7,2.8c0,1.5,1.2,2.8,2.7,2.8c1.5,0,2.8-1.3,2.7-2.8
			C15,5.3,13.7,4.1,12.2,4.1z M12.2,9.1c-1.3,0-2.3-1-2.2-2.3c0-1.3,1-2.3,2.2-2.3c1.2,0,2.3,1,2.2,2.3C14.5,8.1,13.5,9.1,12.2,9.1z
			 M12.2,4.1L12.2,4.1c-1.5,0-2.8,1.3-2.7,2.8c0,1.5,1.2,2.8,2.7,2.8c1.5,0,2.8-1.3,2.7-2.8C15,5.3,13.7,4.1,12.2,4.1z M12.2,9.1
			c-1.3,0-2.3-1-2.2-2.3c0-1.3,1-2.3,2.2-2.3c1.2,0,2.3,1,2.2,2.3C14.5,8.1,13.5,9.1,12.2,9.1z"/>
		<path class="st2" d="M12.2,4.1L12.2,4.1c-1.5,0-2.8,1.3-2.7,2.8c0,1.5,1.2,2.8,2.7,2.8c1.5,0,2.8-1.3,2.7-2.8
			C15,5.3,13.7,4.1,12.2,4.1z M12.2,8.6c-1,0-1.8-0.8-1.7-1.8c0-1,0.8-1.8,1.7-1.8c1,0,1.7,0.8,1.7,1.8C14,7.8,13.2,8.6,12.2,8.6z
			 M12.2,4.1L12.2,4.1c-1.5,0-2.8,1.3-2.7,2.8c0,1.5,1.2,2.8,2.7,2.8c1.5,0,2.8-1.3,2.7-2.8C15,5.3,13.7,4.1,12.2,4.1z M12.2,8.6
			c-1,0-1.8-0.8-1.7-1.8c0-1,0.8-1.8,1.7-1.8c1,0,1.7,0.8,1.7,1.8C14,7.8,13.2,8.6,12.2,8.6z M11.4,21.2c-0.1-0.3-0.3-0.4-0.6-0.3
			c-0.2,0-0.4,0.1-0.5,0.2c-0.1,0-0.2,0.1-0.2,0.2c0.1,0.2,0.2,0.4,0.3,0.5l0,0.2c0,0,0.1,0,0.1,0c0.1,0,0.1,0,0.2,0
			c0.1-0.1,0.3-0.1,0.4-0.2C11.4,21.8,11.5,21.5,11.4,21.2z M13.7,22.2c0,0.1-0.1,0.2-0.1,0.2l0.2-0.3c0,0,0,0,0.1-0.1
			C13.9,22,13.8,22.1,13.7,22.2z M12.2,4.1L12.2,4.1c-1.5,0-2.8,1.3-2.7,2.8c0,1.5,1.2,2.8,2.7,2.8c1.5,0,2.8-1.3,2.7-2.8
			C15,5.3,13.7,4.1,12.2,4.1z M12.2,8.6c-1,0-1.8-0.8-1.7-1.8c0-1,0.8-1.8,1.7-1.8c1,0,1.7,0.8,1.7,1.8C14,7.8,13.2,8.6,12.2,8.6z
			 M12.2,4.1L12.2,4.1c-1.5,0-2.8,1.3-2.7,2.8c0,1.5,1.2,2.8,2.7,2.8c1.5,0,2.8-1.3,2.7-2.8C15,5.3,13.7,4.1,12.2,4.1z M12.2,8.6
			c-1,0-1.8-0.8-1.7-1.8c0-1,0.8-1.8,1.7-1.8c1,0,1.7,0.8,1.7,1.8C14,7.8,13.2,8.6,12.2,8.6z M12.2,4.1L12.2,4.1
			c-1.5,0-2.8,1.3-2.7,2.8c0,1.5,1.2,2.8,2.7,2.8c1.5,0,2.8-1.3,2.7-2.8C15,5.3,13.7,4.1,12.2,4.1z M12.2,8.6c-1,0-1.8-0.8-1.7-1.8
			c0-1,0.8-1.8,1.7-1.8c1,0,1.7,0.8,1.7,1.8C14,7.8,13.2,8.6,12.2,8.6z M12.2,4.1L12.2,4.1c-1.5,0-2.8,1.3-2.7,2.8
			c0,1.5,1.2,2.8,2.7,2.8c1.5,0,2.8-1.3,2.7-2.8C15,5.3,13.7,4.1,12.2,4.1z M12.2,8.6c-1,0-1.8-0.8-1.7-1.8c0-1,0.8-1.8,1.7-1.8
			c1,0,1.7,0.8,1.7,1.8C14,7.8,13.2,8.6,12.2,8.6z M12.2-0.5C8.2-0.5,5,2.8,5,6.8c0,1.4,0.9,3.8,2.6,7.2c0.2,0.3,0.3,0.7,0.5,1
			c0.1,0.2,0.2,0.4,0.3,0.6c1.5,2.7,3,5,3.3,5.6l0.3,1l0.2-0.3c0,0,0,0,0,0c0.1,0,0.3,0.1,0.4,0.2c0.1,0,0.2,0.1,0.2,0.1
			c0.2,0,0.3-0.1,0.4-0.3c0.1-0.2,0-0.5-0.2-0.7c-0.1-0.1-0.2-0.1-0.3-0.2c0.4-0.7,1.8-2.9,3.3-5.5c0.1-0.2,0.2-0.4,0.3-0.6
			c0.2-0.3,0.4-0.7,0.5-1c1.7-3.3,2.6-5.7,2.6-7.1C19.5,2.8,16.2-0.5,12.2-0.5z M15.2,15c0,0,0,0.1-0.1,0.1c-1.2,2.1-2.3,4-2.9,5
			c-0.6-1-1.8-2.9-2.9-5c0,0,0-0.1-0.1-0.1c-0.2-0.3-0.4-0.7-0.5-1C7,10.7,6,8.1,6,6.8c0-3.5,2.8-6.3,6.2-6.3c3.5,0,6.3,2.9,6.2,6.3
			c0,1.3-1,3.8-2.7,7.2C15.6,14.3,15.4,14.7,15.2,15z M12.2,4.1L12.2,4.1c-1.5,0-2.8,1.3-2.7,2.8c0,1.5,1.2,2.8,2.7,2.8
			c1.5,0,2.8-1.3,2.7-2.8C15,5.3,13.7,4.1,12.2,4.1z M12.2,8.6c-1,0-1.8-0.8-1.7-1.8c0-1,0.8-1.8,1.7-1.8c1,0,1.7,0.8,1.7,1.8
			C14,7.8,13.2,8.6,12.2,8.6z M12.2,4.1L12.2,4.1c-1.5,0-2.8,1.3-2.7,2.8c0,1.5,1.2,2.8,2.7,2.8c1.5,0,2.8-1.3,2.7-2.8
			C15,5.3,13.7,4.1,12.2,4.1z M12.2,8.6c-1,0-1.8-0.8-1.7-1.8c0-1,0.8-1.8,1.7-1.8c1,0,1.7,0.8,1.7,1.8C14,7.8,13.2,8.6,12.2,8.6z
			 M12.2,4.1L12.2,4.1c-1.5,0-2.8,1.3-2.7,2.8c0,1.5,1.2,2.8,2.7,2.8c1.5,0,2.8-1.3,2.7-2.8C15,5.3,13.7,4.1,12.2,4.1z M12.2,8.6
			c-1,0-1.8-0.8-1.7-1.8c0-1,0.8-1.8,1.7-1.8c1,0,1.7,0.8,1.7,1.8C14,7.8,13.2,8.6,12.2,8.6z M12.2,4.1L12.2,4.1
			c-1.5,0-2.8,1.3-2.7,2.8c0,1.5,1.2,2.8,2.7,2.8c1.5,0,2.8-1.3,2.7-2.8C15,5.3,13.7,4.1,12.2,4.1z M12.2,8.6c-1,0-1.8-0.8-1.7-1.8
			c0-1,0.8-1.8,1.7-1.8c1,0,1.7,0.8,1.7,1.8C14,7.8,13.2,8.6,12.2,8.6z M12.2,4.1L12.2,4.1c-1.5,0-2.8,1.3-2.7,2.8
			c0,1.5,1.2,2.8,2.7,2.8c1.5,0,2.8-1.3,2.7-2.8C15,5.3,13.7,4.1,12.2,4.1z M12.2,8.6c-1,0-1.8-0.8-1.7-1.8c0-1,0.8-1.8,1.7-1.8
			c1,0,1.7,0.8,1.7,1.8C14,7.8,13.2,8.6,12.2,8.6z M12.2,4.1L12.2,4.1c-1.5,0-2.8,1.3-2.7,2.8c0,1.5,1.2,2.8,2.7,2.8
			c1.5,0,2.8-1.3,2.7-2.8C15,5.3,13.7,4.1,12.2,4.1z M12.2,8.6c-1,0-1.8-0.8-1.7-1.8c0-1,0.8-1.8,1.7-1.8c1,0,1.7,0.8,1.7,1.8
			C14,7.8,13.2,8.6,12.2,8.6z M12.2,4.1L12.2,4.1c-1.5,0-2.8,1.3-2.7,2.8c0,1.5,1.2,2.8,2.7,2.8c1.5,0,2.8-1.3,2.7-2.8
			C15,5.3,13.7,4.1,12.2,4.1z M12.2,8.6c-1,0-1.8-0.8-1.7-1.8c0-1,0.8-1.8,1.7-1.8c1,0,1.7,0.8,1.7,1.8C14,7.8,13.2,8.6,12.2,8.6z"
			/>
	</g>
	<g id="Exclusion_4">
		<path class="st1" d="M12.2,4.1L12.2,4.1c-1.5,0-2.8,1.3-2.7,2.8c0,1.5,1.2,2.8,2.7,2.8c1.5,0,2.8-1.3,2.7-2.8
			C15,5.3,13.7,4.1,12.2,4.1z M12.2,8.6c-1,0-1.8-0.8-1.7-1.8c0-1,0.8-1.8,1.7-1.8c1,0,1.7,0.8,1.7,1.8C14,7.8,13.2,8.6,12.2,8.6z
			 M12.2,4.1L12.2,4.1c-1.5,0-2.8,1.3-2.7,2.8c0,1.5,1.2,2.8,2.7,2.8c1.5,0,2.8-1.3,2.7-2.8C15,5.3,13.7,4.1,12.2,4.1z M12.2,8.6
			c-1,0-1.8-0.8-1.7-1.8c0-1,0.8-1.8,1.7-1.8c1,0,1.7,0.8,1.7,1.8C14,7.8,13.2,8.6,12.2,8.6z M12.2,4.1L12.2,4.1
			c-1.5,0-2.8,1.3-2.7,2.8c0,1.5,1.2,2.8,2.7,2.8c1.5,0,2.8-1.3,2.7-2.8C15,5.3,13.7,4.1,12.2,4.1z M12.2,8.6c-1,0-1.8-0.8-1.7-1.8
			c0-1,0.8-1.8,1.7-1.8c1,0,1.7,0.8,1.7,1.8C14,7.8,13.2,8.6,12.2,8.6z M12.2,4.1L12.2,4.1c-1.5,0-2.8,1.3-2.7,2.8
			c0,1.5,1.2,2.8,2.7,2.8c1.5,0,2.8-1.3,2.7-2.8C15,5.3,13.7,4.1,12.2,4.1z M12.2,8.6c-1,0-1.8-0.8-1.7-1.8c0-1,0.8-1.8,1.7-1.8
			c1,0,1.7,0.8,1.7,1.8C14,7.8,13.2,8.6,12.2,8.6z M12.2,4.1L12.2,4.1c-1.5,0-2.8,1.3-2.7,2.8c0,1.5,1.2,2.8,2.7,2.8
			c1.5,0,2.8-1.3,2.7-2.8C15,5.3,13.7,4.1,12.2,4.1z M12.2,8.6c-1,0-1.8-0.8-1.7-1.8c0-1,0.8-1.8,1.7-1.8c1,0,1.7,0.8,1.7,1.8
			C14,7.8,13.2,8.6,12.2,8.6z M12.2,4.1L12.2,4.1c-1.5,0-2.8,1.3-2.7,2.8c0,1.5,1.2,2.8,2.7,2.8c1.5,0,2.8-1.3,2.7-2.8
			C15,5.3,13.7,4.1,12.2,4.1z M12.2,8.6c-1,0-1.8-0.8-1.7-1.8c0-1,0.8-1.8,1.7-1.8c1,0,1.7,0.8,1.7,1.8C14,7.8,13.2,8.6,12.2,8.6z
			 M12.2-0.5C8.2-0.5,5,2.8,5,6.8c0,1.4,0.9,3.8,2.6,7.2c0.2,0.3,0.3,0.7,0.5,1c0.1,0.2,0.2,0.4,0.3,0.6c1.5,2.7,3,5,3.3,5.6l0.3,1
			l0.2-0.3l0.4-0.6c0,0,0-0.1,0.1-0.2c0.4-0.7,1.8-2.9,3.3-5.5c0.1-0.2,0.2-0.4,0.3-0.6c0.2-0.3,0.4-0.7,0.5-1
			c1.7-3.3,2.6-5.7,2.6-7.1C19.5,2.8,16.2-0.5,12.2-0.5z M15.2,15c0,0,0,0.1-0.1,0.1c-1.2,2.1-2.3,4-2.9,5c-0.6-1-1.8-2.9-2.9-5
			c0,0,0-0.1-0.1-0.1c-0.2-0.3-0.4-0.7-0.5-1C7,10.7,6,8.1,6,6.8c0-3.5,2.8-6.3,6.2-6.3c3.5,0,6.3,2.9,6.2,6.3c0,1.3-1,3.8-2.7,7.2
			C15.6,14.3,15.4,14.7,15.2,15z M12.2,4.1L12.2,4.1c-1.5,0-2.8,1.3-2.7,2.8c0,1.5,1.2,2.8,2.7,2.8c1.5,0,2.8-1.3,2.7-2.8
			C15,5.3,13.7,4.1,12.2,4.1z M12.2,8.6c-1,0-1.8-0.8-1.7-1.8c0-1,0.8-1.8,1.7-1.8c1,0,1.7,0.8,1.7,1.8C14,7.8,13.2,8.6,12.2,8.6z
			 M12.2,4.1L12.2,4.1c-1.5,0-2.8,1.3-2.7,2.8c0,1.5,1.2,2.8,2.7,2.8c1.5,0,2.8-1.3,2.7-2.8C15,5.3,13.7,4.1,12.2,4.1z M12.2,8.6
			c-1,0-1.8-0.8-1.7-1.8c0-1,0.8-1.8,1.7-1.8c1,0,1.7,0.8,1.7,1.8C14,7.8,13.2,8.6,12.2,8.6z M12.2,4.1L12.2,4.1
			c-1.5,0-2.8,1.3-2.7,2.8c0,1.5,1.2,2.8,2.7,2.8c1.5,0,2.8-1.3,2.7-2.8C15,5.3,13.7,4.1,12.2,4.1z M12.2,8.6c-1,0-1.8-0.8-1.7-1.8
			c0-1,0.8-1.8,1.7-1.8c1,0,1.7,0.8,1.7,1.8C14,7.8,13.2,8.6,12.2,8.6z M12.2,4.1L12.2,4.1c-1.5,0-2.8,1.3-2.7,2.8
			c0,1.5,1.2,2.8,2.7,2.8c1.5,0,2.8-1.3,2.7-2.8C15,5.3,13.7,4.1,12.2,4.1z M12.2,8.6c-1,0-1.8-0.8-1.7-1.8c0-1,0.8-1.8,1.7-1.8
			c1,0,1.7,0.8,1.7,1.8C14,7.8,13.2,8.6,12.2,8.6z M12.2,4.1L12.2,4.1c-1.5,0-2.8,1.3-2.7,2.8c0,1.5,1.2,2.8,2.7,2.8
			c1.5,0,2.8-1.3,2.7-2.8C15,5.3,13.7,4.1,12.2,4.1z M12.2,8.6c-1,0-1.8-0.8-1.7-1.8c0-1,0.8-1.8,1.7-1.8c1,0,1.7,0.8,1.7,1.8
			C14,7.8,13.2,8.6,12.2,8.6z M12.2,4.1L12.2,4.1c-1.5,0-2.8,1.3-2.7,2.8c0,1.5,1.2,2.8,2.7,2.8c1.5,0,2.8-1.3,2.7-2.8
			C15,5.3,13.7,4.1,12.2,4.1z M12.2,8.6c-1,0-1.8-0.8-1.7-1.8c0-1,0.8-1.8,1.7-1.8c1,0,1.7,0.8,1.7,1.8C14,7.8,13.2,8.6,12.2,8.6z
			 M12.2,4.1L12.2,4.1c-1.5,0-2.8,1.3-2.7,2.8c0,1.5,1.2,2.8,2.7,2.8c1.5,0,2.8-1.3,2.7-2.8C15,5.3,13.7,4.1,12.2,4.1z M12.2,8.6
			c-1,0-1.8-0.8-1.7-1.8c0-1,0.8-1.8,1.7-1.8c1,0,1.7,0.8,1.7,1.8C14,7.8,13.2,8.6,12.2,8.6z"/>
	</g>
	<g id="Path_500">
		<path class="st1" d="M16.4,22.2c-0.1,0-0.3,0.1-0.4,0.1c-0.3,0-0.5,0.3-0.4,0.6c0,0.3,0.3,0.4,0.5,0.4h0.1c0.2,0,0.4-0.1,0.6-0.2
			L16.4,22.2z M7.2,22.2c-0.1,0-0.3,0-0.4,0c-0.3,0-0.5,0.2-0.6,0.4c0,0.3,0.2,0.5,0.4,0.6c0.2,0,0.3,0,0.6,0c0.3,0,0.5-0.2,0.5-0.5
			C7.7,22.5,7.5,22.2,7.2,22.2z M14.8,22.2c-0.1-0.1-0.3-0.1-0.4-0.2c-0.1-0.1-0.3-0.1-0.4,0c-0.1,0-0.2,0.1-0.2,0.2
			c0,0.1-0.1,0.2-0.1,0.2c0,0.2,0.1,0.3,0.3,0.4c0.2,0.1,0.3,0.2,0.5,0.2c0.1,0,0.1,0,0.2,0c0.2,0,0.4-0.1,0.5-0.3
			C15.2,22.6,15.1,22.3,14.8,22.2z M9.6,22c-0.1-0.2-0.4-0.3-0.7-0.2c-0.1,0.1-0.3,0.1-0.4,0.2c-0.3,0.1-0.4,0.4-0.3,0.6
			c0.1,0.2,0.3,0.3,0.5,0.3c0.1,0,0.1,0,0.2,0c0.2-0.1,0.3-0.2,0.5-0.2C9.6,22.5,9.7,22.2,9.6,22z M5.9,21.7c0-0.1-0.1-0.2-0.1-0.3
			c-0.1-0.3-0.3-0.4-0.6-0.4c-0.3,0.1-0.4,0.3-0.4,0.6c0,0.2,0.1,0.4,0.2,0.6c0.1,0.2,0.3,0.3,0.4,0.3c0.1,0,0.2,0,0.3-0.1
			C6,22.3,6.1,22,5.9,21.7z M18.3,21c-0.2-0.2-0.5-0.1-0.7,0.1c-0.1,0.1-0.2,0.2-0.3,0.4c-0.2,0.2-0.2,0.5,0.1,0.7
			c0.1,0.1,0.2,0.1,0.3,0.1c0.1,0,0.3-0.1,0.4-0.2c0.1-0.1,0.2-0.3,0.3-0.5C18.6,21.5,18.6,21.1,18.3,21z M13.1,21.2
			c-0.1-0.1-0.2-0.1-0.3-0.2c0,0-0.1,0-0.2-0.1c-0.3-0.1-0.5,0-0.6,0.3c-0.1,0.3,0,0.5,0.3,0.6c0,0,0,0,0,0c0.1,0,0.3,0.1,0.4,0.2
			c0.1,0,0.2,0.1,0.2,0.1c0.2,0,0.3-0.1,0.4-0.3C13.5,21.7,13.4,21.4,13.1,21.2z M11.4,21.2c-0.1-0.3-0.3-0.4-0.6-0.3
			c-0.2,0-0.4,0.1-0.5,0.2c-0.1,0-0.2,0.1-0.2,0.2c-0.1,0.1-0.1,0.3,0,0.4c0.1,0.2,0.2,0.3,0.4,0.3c0,0,0.1,0,0.1,0
			c0.1,0,0.1,0,0.2,0c0.1-0.1,0.3-0.1,0.4-0.2C11.4,21.8,11.5,21.5,11.4,21.2z M5.7,19.1c-0.3-0.1-0.5,0-0.6,0.3
			c0,0-0.1,0.2-0.2,0.5c-0.1,0.3,0.1,0.5,0.4,0.6c0,0,0.1,0,0.1,0c0.2,0,0.4-0.2,0.5-0.4C5.9,19.9,6,19.8,6,19.7
			C6.1,19.5,5.9,19.2,5.7,19.1z M18.8,19.1c-0.3,0-0.5,0.2-0.5,0.5c0,0.1,0,0.3-0.1,0.4c-0.1,0.3,0.1,0.5,0.4,0.6c0,0,0.1,0,0.1,0
			c0.2,0,0.4-0.2,0.5-0.4c0-0.2,0.1-0.4,0.1-0.6C19.2,19.3,19,19.1,18.8,19.1z M18.9,17.9c-0.1-0.2-0.2-0.4-0.3-0.5
			c-0.2-0.2-0.5-0.2-0.7-0.1c-0.2,0.2-0.3,0.5-0.1,0.7c0.1,0.1,0.1,0.2,0.2,0.3c0.1,0.2,0.3,0.3,0.4,0.3c0.1,0,0.2,0,0.2-0.1
			C19,18.4,19,18.1,18.9,17.9z"/>
	</g>
</g>
</svg>
