<?xml version="1.0" encoding="UTF-8" standalone="no"?>
<svg
   xmlns:dc="http://purl.org/dc/elements/1.1/"
   xmlns:cc="http://creativecommons.org/ns#"
   xmlns:rdf="http://www.w3.org/1999/02/22-rdf-syntax-ns#"
   xmlns:svg="http://www.w3.org/2000/svg"
   xmlns="http://www.w3.org/2000/svg"
   xmlns:sodipodi="http://sodipodi.sourceforge.net/DTD/sodipodi-0.dtd"
   xmlns:inkscape="http://www.inkscape.org/namespaces/inkscape"
   id="location"
   width="10.434"
   height="16"
   viewBox="0 0 10.434 16"
   version="1.1"
   sodipodi:docname="location.svg"
   inkscape:version="0.92.3 (unknown)">
  <metadata
     id="metadata6097">
    <rdf:RDF>
      <cc:Work
         rdf:about="">
        <dc:format>image/svg+xml</dc:format>
        <dc:type
           rdf:resource="http://purl.org/dc/dcmitype/StillImage" />
      </cc:Work>
    </rdf:RDF>
  </metadata>
  <defs
     id="defs6095" />
  <sodipodi:namedview
     pagecolor="#ffffff"
     bordercolor="#666666"
     borderopacity="1"
     objecttolerance="10"
     gridtolerance="10"
     guidetolerance="10"
     inkscape:pageopacity="0"
     inkscape:pageshadow="2"
     inkscape:window-width="1366"
     inkscape:window-height="713"
     id="namedview6093"
     showgrid="false"
     inkscape:zoom="14.75"
     inkscape:cx="-4.5457119"
     inkscape:cy="6.5676244"
     inkscape:window-x="0"
     inkscape:window-y="27"
     inkscape:window-maximized="1"
     inkscape:current-layer="layer2" />
  <g
     inkscape:groupmode="layer"
     id="layer2"
     inkscape:label="Layer 1">
    <g
       id="g6651">
      <ellipse
         ry="2.4067798"
         rx="2.3050847"
         cy="5.1864409"
         cx="5.2881351"
         id="path6642"
         style="opacity:0.98999999;fill:#ffffff;fill-opacity:1;stroke:none;stroke-width:5.5;stroke-linecap:round;stroke-linejoin:round;stroke-miterlimit:2.79999995;stroke-dasharray:none;stroke-opacity:1;paint-order:normal" />
      <path
         style="fill:#3dadd9"
         inkscape:connector-curvature="0"
         d="m 5.2847965,16.067797 v 0 c -0.013,-0.02 -1.3279999,-2.017 -2.6079999,-4.31 -1.19,-2.131 -2.608,-4.983 -2.608,-6.472 A 5.223,5.223 0 0 1 5.2847965,0.06779661 5.223,5.223 0 0 1 10.501797,5.284797 c 0,1.489 -1.4190003,4.341 -2.6080004,6.472 -1.28,2.292 -2.5950001,4.29 -2.6080001,4.31 z m 0,-12.5210004 a 1.741,1.741 0 0 0 -1.7389999,1.7380004 1.741,1.741 0 0 0 1.7389999,1.739 1.741,1.741 0 0 0 1.7390001,-1.739 1.741,1.741 0 0 0 -1.7390001,-1.7380004 z"
         data-name="Exclusion 1"
         id="Exclusion_1" />
    </g>
  </g>
</svg>
