<svg id="write" xmlns="http://www.w3.org/2000/svg" width="14" height="13.88" viewBox="0 0 14 13.88">
  <rect id="Rectangle_694" data-name="Rectangle 694" width="7" transform="translate(2 4)" fill="#3dadd9"/>
  <rect id="Rectangle_695" data-name="Rectangle 695" width="7" height="1" transform="translate(2 5)" fill="#3dadd9"/>
  <rect id="Rectangle_696" data-name="Rectangle 696" width="5" height="1" transform="translate(2 7)" fill="#3dadd9"/>
  <rect id="Rectangle_697" data-name="Rectangle 697" width="4" height="1" transform="translate(2 9)" fill="#3dadd9"/>
  <rect id="Rectangle_698" data-name="Rectangle 698" width="4" transform="translate(2 11)" fill="#3dadd9"/>
  <path id="Path_567" data-name="Path 567" d="M11.782,6.085V3.194L9.588,1H.793V14.88H11.782V9.795l3.011-3.011L12.938,4.929Zm-.289,1.107,1.037,1.037L9.059,11.7H8.022V10.662ZM9.757,1.987l1.037,1.037H9.757ZM11.2,14.3H1.371V1.578H9.179V3.6H11.2V6.664L7.444,10.423v1.855H9.3l1.9-1.9ZM12.938,7.82,11.9,6.783l1.037-1.037,1.037,1.037Z" transform="translate(-0.793 -1)" fill="#3dadd9"/>
</svg>
