<svg id="go-digital-icons-8" xmlns="http://www.w3.org/2000/svg" xmlns:xlink="http://www.w3.org/1999/xlink" width="29" height="32" viewBox="0 0 29 32">
  <defs>
    <clipPath id="clip-path">
      <rect id="Rectangle_883" data-name="Rectangle 883" width="29" height="32" transform="translate(239 394)" fill="#3dadd9"/>
    </clipPath>
    <clipPath id="clip-path-2">
      <rect id="Rectangle_885" data-name="Rectangle 885" width="29" height="29.595" transform="translate(2.578 2.392)" fill="none"/>
    </clipPath>
  </defs>
  <g id="Mask_Group_40" data-name="Mask Group 40" transform="translate(-239 -394)" clip-path="url(#clip-path)">
    <g id="Tous_les_sujets" data-name="Tous les sujets" transform="translate(236.422 392.811)">
      <rect id="Rectangle_929" data-name="Rectangle 929" width="6" height="7" transform="translate(9.578 13.189)" fill="#3dadd9"/>
      <rect id="Rectangle_930" data-name="Rectangle 930" width="6" height="7" transform="translate(18.578 22.189)" fill="#3dadd9"/>
      <g id="Group_520" data-name="Group 520" clip-path="url(#clip-path-2)">
        <path id="Path_1017" data-name="Path 1017" d="M31.172,15.661,16.953,2.458,2.735,15.661a.5.5,0,1,0,.676.726l1.646-1.527V31.391H28.85V14.859L30.5,16.386a.485.485,0,0,0,.335.134.5.5,0,0,0,.339-.859ZM27.86,30.4H6.046V13.939L16.953,3.812,27.86,13.939Zm0,0"/>
      </g>
      <path id="Path_1018" data-name="Path 1018" d="M9.021,19.99h6.94v-6.94H9.021Zm.992-5.95h4.958v4.954H10.013Zm0,0"/>
      <path id="Path_1019" data-name="Path 1019" d="M24.885,13.051H17.943v6.94h6.942ZM23.892,19H18.938V14.044h4.954Zm0,0"/>
      <path id="Path_1020" data-name="Path 1020" d="M9.021,28.912h6.94v-6.94H9.021Zm.992-5.948h4.958v4.954H10.013Zm0,0"/>
      <path id="Path_1021" data-name="Path 1021" d="M24.885,21.973H17.943v6.94h6.942Zm-.993,5.95H18.938V22.964h4.954Zm0,0"/>
    </g>
  </g>
</svg>
