<svg xmlns="http://www.w3.org/2000/svg" width="22.15" height="24.5" viewBox="0 0 22.15 24.5">
  <g id="icon-calender" transform="translate(-297.35 -812.5)">
    <path id="Path_1255" data-name="Path 1255" d="M6.85,6H23.3a2.35,2.35,0,0,1,2.35,2.35V24.8a2.35,2.35,0,0,1-2.35,2.35H6.85A2.35,2.35,0,0,1,4.5,24.8V8.35A2.35,2.35,0,0,1,6.85,6Z" transform="translate(293.35 809.351)" fill="none" stroke="#000" stroke-linecap="round" stroke-linejoin="round" stroke-width="1"/>
    <g id="Group_737" data-name="Group 737">
      <g id="Group_736" data-name="Group 736">
        <path id="Path_1256" data-name="Path 1256" d="M24,3V7.7" transform="translate(289.125 810)" fill="none" stroke="#000" stroke-linecap="round" stroke-linejoin="round" stroke-width="1"/>
        <path id="Path_1257" data-name="Path 1257" d="M12,3V7.7" transform="translate(291.725 810)" fill="none" stroke="#000" stroke-linecap="round" stroke-linejoin="round" stroke-width="1"/>
      </g>
      <path id="Path_1258" data-name="Path 1258" d="M4.5,15H25.65" transform="translate(293.35 807.4)" fill="none" stroke="#000" stroke-linecap="round" stroke-linejoin="round" stroke-width="1"/>
    </g>
    <g id="Group_730" data-name="Group 730" transform="translate(-1.149)">
      <g id="Rectangle_966" data-name="Rectangle 966" transform="translate(301 825)" fill="#3dadd9" stroke="#000" stroke-width="1">
        <rect width="7" height="9" rx="1" stroke="none"/>
        <rect x="0.5" y="0.5" width="6" height="8" rx="0.5" fill="none"/>
      </g>
      <g id="Group_728" data-name="Group 728" transform="translate(-1)">
        <g id="Rectangle_967" data-name="Rectangle 967" transform="translate(310 825)" fill="none" stroke="#000" stroke-width="1">
          <rect width="4" height="4" rx="1" stroke="none"/>
          <rect x="0.5" y="0.5" width="3" height="3" rx="0.5" fill="none"/>
        </g>
        <g id="Rectangle_968" data-name="Rectangle 968" transform="translate(315 825)" fill="none" stroke="#000" stroke-width="1">
          <rect width="4" height="4" rx="1" stroke="none"/>
          <rect x="0.5" y="0.5" width="3" height="3" rx="0.5" fill="none"/>
        </g>
      </g>
      <g id="Group_729" data-name="Group 729" transform="translate(-1 5)">
        <g id="Rectangle_967-2" data-name="Rectangle 967" transform="translate(310 825)" fill="none" stroke="#000" stroke-width="1">
          <rect width="4" height="4" rx="1" stroke="none"/>
          <rect x="0.5" y="0.5" width="3" height="3" rx="0.5" fill="none"/>
        </g>
        <g id="Rectangle_968-2" data-name="Rectangle 968" transform="translate(315 825)" fill="none" stroke="#000" stroke-width="1">
          <rect width="4" height="4" rx="1" stroke="none"/>
          <rect x="0.5" y="0.5" width="3" height="3" rx="0.5" fill="none"/>
        </g>
      </g>
    </g>
  </g>
</svg>
