<svg xmlns="http://www.w3.org/2000/svg" width="17.751" height="27.791" viewBox="0 0 17.751 27.791">
  <g id="icon-location-outline" transform="translate(-849.443 -608.753)">
    <path id="Path_1243" data-name="Path 1243" d="M858.482,609.44a8.634,8.634,0,0,0-8.539,8.7c0,2.489,2.322,7.246,4.27,10.805,2.1,3.826,4.247,7.158,4.27,7.19,0,0,2.175-3.359,4.271-7.185,1.948-3.559,4.27-8.321,4.27-10.805A8.636,8.636,0,0,0,858.482,609.44Zm0,10.887a2.9,2.9,0,1,1,2.847-2.9A2.88,2.88,0,0,1,858.482,620.327Z" transform="translate(0 0.408)" fill="#3dadd9"/>
    <path id="Exclusion_1" data-name="Exclusion 1" d="M858.318,635.435c-.021-.032-2.131-3.3-4.187-7.052-1.911-3.49-4.187-8.155-4.187-10.6a8.377,8.377,0,1,1,16.751,0c0,2.437-2.277,7.107-4.187,10.6C860.451,632.14,858.318,635.435,858.318,635.435Zm0-20.489a2.846,2.846,0,1,0,2.792,2.843A2.822,2.822,0,0,0,858.318,614.945Z" transform="translate(0)" fill="none" stroke="#000" stroke-width="1"/>
  </g>
</svg>
