<svg xmlns="http://www.w3.org/2000/svg" xmlns:xlink="http://www.w3.org/1999/xlink" width="24" height="24" viewBox="0 0 24 24">
  <defs>
    <clipPath id="clip-path">
      <rect id="Rectangle_974" data-name="Rectangle 974" width="24" height="24" transform="translate(172 814)"/>
    </clipPath>
  </defs>
  <g id="icon-experience" transform="translate(-172 -814)" clip-path="url(#clip-path)">
    <g id="experience" transform="translate(172 814)">
      <path id="Path_1287" data-name="Path 1287" d="M21.732,5.542H18.058V2.9A1.661,1.661,0,0,0,16.4,1.243H7.6A1.661,1.661,0,0,0,5.942,2.9v2.64H2.268A2.271,2.271,0,0,0,0,7.81V20.487a2.271,2.271,0,0,0,2.267,2.27H21.733A2.271,2.271,0,0,0,24,20.487V7.81a2.271,2.271,0,0,0-2.268-2.268ZM6.88,2.9A.722.722,0,0,1,7.6,2.18h8.8a.722.722,0,0,1,.72.723v2.64H15.9V3.87a.469.469,0,0,0-.469-.469H8.565A.469.469,0,0,0,8.1,3.87V5.542H6.88Zm2.154,2.64v-1.2h5.933v1.2ZM.937,7.81A1.332,1.332,0,0,1,2.268,6.48H21.732A1.332,1.332,0,0,1,23.062,7.81v4.347a2.626,2.626,0,0,1-2.623,2.623h-.5V12.793a.469.469,0,0,0-.469-.469H16.613a.469.469,0,0,0-.469.469v1.988H7.856V12.793a.469.469,0,0,0-.469-.469H4.533a.469.469,0,0,0-.469.469v1.988h-.5A2.626,2.626,0,0,1,.937,12.158ZM19,13.261v3.507H17.082V13.261Zm-12.08,0v3.507H5V13.261Zm16.144,7.226a1.332,1.332,0,0,1-1.329,1.333H2.267A1.332,1.332,0,0,1,.937,20.487V14.563a3.552,3.552,0,0,0,2.623,1.155h.5v1.519a.469.469,0,0,0,.469.469H7.387a.469.469,0,0,0,.469-.469V15.718h8.289v1.519a.469.469,0,0,0,.469.469h2.854a.469.469,0,0,0,.469-.469V15.718h.5a3.552,3.552,0,0,0,2.623-1.155v5.924Z"/>
      <path id="Path_1288" data-name="Path 1288" d="M6.44,8.987H17.56a.469.469,0,0,0,0-.937H6.44a.469.469,0,0,0,0,.937Z"/>
    </g>
  </g>
</svg>
