<svg xmlns="http://www.w3.org/2000/svg" xmlns:xlink="http://www.w3.org/1999/xlink" width="24" height="24" viewBox="0 0 24 24">
  <defs>
    <clipPath id="clip-path">
      <rect id="Rectangle_975" data-name="Rectangle 975" width="24" height="24" transform="translate(418 814)"/>
    </clipPath>
  </defs>
  <g id="icon-qualification" transform="translate(-418 -814)" clip-path="url(#clip-path)">
    <g id="qualification-1" transform="translate(418 814)">
      <path id="Path_1285" data-name="Path 1285" d="M2.227,6.033l4.04,2.1v3.5c0,.483.323,1.166,1.864,1.674A12.826,12.826,0,0,0,12,13.841a12.826,12.826,0,0,0,3.869-.533c1.54-.509,1.864-1.191,1.864-1.674,0,0,0-.006,0-.01V8.137l1.181-.615V9.9a.469.469,0,1,0,.937,0V7.034l1.922-1a.469.469,0,0,0,0-.832L12.217.227a.469.469,0,0,0-.433,0L2.227,5.2a.469.469,0,0,0,0,.832ZM16.8,10.359a5.051,5.051,0,0,0-.926-.4A12.826,12.826,0,0,0,12,9.426a12.825,12.825,0,0,0-3.869.533,5.049,5.049,0,0,0-.926.4v-3.5c0-.153.325-.489,1.22-.784A11.879,11.879,0,0,1,12,5.589a11.881,11.881,0,0,1,3.575.486c.9.3,1.22.631,1.22.784v3.5Zm-1.22,2.059A11.88,11.88,0,0,1,12,12.9a11.881,11.881,0,0,1-3.575-.486c-.9-.3-1.22-.631-1.22-.784s.325-.489,1.22-.784A11.879,11.879,0,0,1,12,10.364a11.881,11.881,0,0,1,3.575.486c.89.294,1.216.627,1.22.781v0c0,.154-.328.488-1.22.783Zm4.276-6.441V5.258l.69.359ZM12,1.171l6.914,3.6V6.465l-1.181.615V6.858c0-.483-.323-1.166-1.864-1.674A12.826,12.826,0,0,0,12,4.651a12.825,12.825,0,0,0-3.869.533c-1.54.509-1.864,1.191-1.864,1.674V7.08L3.459,5.618Z"/>
      <path id="Path_1286" data-name="Path 1286" d="M22.468,14.814H.47a.469.469,0,0,0-.038.936l.037,0c.145.031.6.713.6,2.082s-.453,2.053-.6,2.082a.469.469,0,0,0,0,.937H9.7v2.506a.469.469,0,0,0,.675.421l1.625-.8,1.625.8a.469.469,0,0,0,.675-.421V20.852h8.167c1.006,0,1.533-1.519,1.533-3.019s-.526-3.019-1.532-3.019ZM12,19.842a2.015,2.015,0,1,1,2.015-2.015A2.017,2.017,0,0,1,12,19.842ZM1.609,15.751H9.9a2.947,2.947,0,0,0,.01,4.163H1.609A5.2,5.2,0,0,0,2,17.833a5.2,5.2,0,0,0-.393-2.082Zm11.754,6.855-1.156-.567a.469.469,0,0,0-.413,0l-1.156.567V20.852h2.725v1.754Zm9.1-2.692H14.087a2.947,2.947,0,0,0,.01-4.163h8.369c.145.031.6.713.6,2.082s-.453,2.053-.6,2.082Z"/>
    </g>
  </g>
</svg>
