<svg xmlns="http://www.w3.org/2000/svg" width="14.434" height="22.413" viewBox="0 0 14.434 22.413">
  <g id="Trouver_un_Solutionneur-icon-_detail-4" data-name="Trouver un Solutionneur-icon- detail-4" transform="translate(-849.443 -608.753)">
    <path id="Path_1243" data-name="Path 1243" d="M856.791,609.44a6.924,6.924,0,0,0-6.848,6.977c0,2,1.862,5.811,3.424,8.665,1.681,3.068,3.406,5.74,3.424,5.766,0,0,1.744-2.694,3.425-5.762,1.562-2.854,3.424-6.673,3.424-8.665A6.926,6.926,0,0,0,856.791,609.44Zm0,8.731a2.327,2.327,0,1,1,2.283-2.328A2.309,2.309,0,0,1,856.791,618.171Z" fill="#3dadd9"/>
    <path id="Exclusion_1" data-name="Exclusion 1" d="M856.659,630.249c-.017-.026-1.709-2.646-3.358-5.655-1.532-2.8-3.358-6.54-3.358-8.5a6.718,6.718,0,1,1,13.433,0c0,1.954-1.826,5.7-3.358,8.5C858.37,627.607,856.659,630.249,856.659,630.249Zm0-16.431a2.282,2.282,0,1,0,2.239,2.28A2.263,2.263,0,0,0,856.659,613.818Z" fill="none" stroke="#000" stroke-width="1"/>
  </g>
</svg>
