<svg xmlns="http://www.w3.org/2000/svg" width="25" height="27.5" viewBox="0 0 25 27.5">
  <g id="Trouver_un_Solutionneur-icon-_detail-5" data-name="Trouver un Solutionneur-icon- detail-5" transform="translate(-845.664 -634.805)">
    <g id="Path_498" data-name="Path 498">
      <path id="Path_1244" data-name="Path 1244" d="M848,649.3h20l2.666,13h-25Z" fill="none"/>
      <path id="Path_1245" data-name="Path 1245" d="M848.835,650.3l-1.975,11h22.578l-2.256-11H848.835m-.837-1h20l2.666,13h-25Z"/>
    </g>
    <path id="Path_500" data-name="Path 500" d="M851.164,654.876s-1.07,2.857,1.215,3.143,3.43-1.571,5-1.428,2.857,2.143,4.857,1.428,3.145-4.429,1-5.571" fill="none" stroke="#000" stroke-linecap="round" stroke-width="1" stroke-dasharray="0.5 1.5"/>
    <path id="Path_1246" data-name="Path 1246" d="M858.148,635.492a6.924,6.924,0,0,0-6.847,6.977c0,2,1.862,5.811,3.424,8.665,1.681,3.068,3.406,5.74,3.423,5.766,0,0,1.745-2.694,3.425-5.762,1.562-2.854,3.424-6.673,3.424-8.665A6.924,6.924,0,0,0,858.148,635.492Zm0,8.731a2.327,2.327,0,1,1,2.283-2.328A2.308,2.308,0,0,1,858.149,644.223Z" fill="#3dadd9"/>
    <path id="Exclusion_1" data-name="Exclusion 1" d="M858.017,656.3c-.017-.026-1.709-2.646-3.358-5.655-1.532-2.8-3.358-6.54-3.358-8.5a6.718,6.718,0,1,1,13.433,0c0,1.954-1.826,5.7-3.358,8.5C859.728,653.659,858.017,656.3,858.017,656.3Zm0-16.431a2.282,2.282,0,1,0,2.239,2.28A2.262,2.262,0,0,0,858.017,639.87Z" fill="none" stroke="#000" stroke-width="1"/>
  </g>
</svg>
