<svg id="Trouver_un_Solutionneur-icon-_detail-1" data-name="Trouver un Solutionneur-icon- detail-1" xmlns="http://www.w3.org/2000/svg" xmlns:xlink="http://www.w3.org/1999/xlink" width="19" height="19" viewBox="0 0 19 19">
  <defs>
    <clipPath id="clip-path">
      <rect id="Rectangle_858" data-name="Rectangle 858" width="19" height="19" transform="translate(447 491)"/>
    </clipPath>
  </defs>
  <path id="Path_1251" data-name="Path 1251" d="M1.781,2.406,3.109,1.078l4.25,4.25L6,6.683Z" fill="#3dadd9"/>
  <path id="Path_1252" data-name="Path 1252" d="M1.781,2.514,3.2,1.078,7.735,5.672,6.289,7.136Z" transform="translate(10.625 10.547)" fill="#3dadd9"/>
  <g id="Mask_Group_37" data-name="Mask Group 37" transform="translate(-447 -491)" clip-path="url(#clip-path)">
    <g id="phone-call" transform="translate(447 491)">
      <g id="Group_448" data-name="Group 448" transform="translate(0 0.388)">
        <g id="Group_447" data-name="Group 447">
          <path id="Path_502" data-name="Path 502" d="M18.279,14.987l-3.723-3.723a1.141,1.141,0,0,0-1.612,0l-.968.968a1.14,1.14,0,0,0-.288,1.122l-.365.365h0c-.259.26-1.875-.139-3.828-2.092S5.143,8.061,5.4,7.8h0l.366-.366A1.141,1.141,0,0,0,6.89,7.147l.968-.968a1.141,1.141,0,0,0,0-1.612L4.135.844a1.14,1.14,0,0,0-1.612,0l-.968.968a1.14,1.14,0,0,0-.288,1.122s-.31.313-.325.332C-.088,4.411-.281,6.214.4,8.369A16.24,16.24,0,0,0,4.46,14.662a16.242,16.242,0,0,0,6.294,4.059,7.876,7.876,0,0,0,2.361.4,3.925,3.925,0,0,0,2.87-1.064l.2-.2a1.144,1.144,0,0,0,.317.045,1.132,1.132,0,0,0,.806-.334l.968-.968A1.141,1.141,0,0,0,18.279,14.987ZM3.329,1.65,7.052,5.373l-.968.969h0L6.07,6.327,4.223,4.479,2.361,2.618Zm11.849,15.6h0c-.82.82-2.269.955-4.081.381a15.093,15.093,0,0,1-5.832-3.778A15.092,15.092,0,0,1,1.488,8.024c-.574-1.812-.439-3.261.381-4.081h0l.1-.1L4.862,6.73,4.6,6.995h0c-1.1,1.1.221,3.568,2.092,5.439,1.4,1.4,3.135,2.492,4.381,2.492a1.439,1.439,0,0,0,1.059-.4h0l.265-.265,2.889,2.889Zm1.326-.492-3.723-3.723.968-.968,3.723,3.723Z" transform="translate(0 -0.51)"/>
        </g>
      </g>
    </g>
  </g>
</svg>
