<svg id="Trouver_un_Solutionneur-icon-_detail-2" data-name="Trouver un Solutionneur-icon- detail-2" xmlns="http://www.w3.org/2000/svg" xmlns:xlink="http://www.w3.org/1999/xlink" width="25" height="25" viewBox="0 0 25 25">
  <defs>
    <clipPath id="clip-path">
      <rect id="Rectangle_857" data-name="Rectangle 857" width="25" height="25" transform="translate(447 453)"/>
    </clipPath>
  </defs>
  <g id="Mask_Group_35" data-name="Mask Group 35" transform="translate(-447 -453)" clip-path="url(#clip-path)">
    <g id="conseleur" transform="translate(448.164 453.021)">
      <path id="Path_1249" data-name="Path 1249" d="M3.633,6.12,3.32,7.4a11.045,11.045,0,0,1,.984.563c.031.063,1.188,1.828,1.2,1.875s.594.688.891.719,1.281.172,1.469.172a13.169,13.169,0,0,0,1.641-.281c.047-.047,1.016-.984,1.3-1.234a5.677,5.677,0,0,0,.656-1.531l.625-.281s.469-.266.469-.406-.094-.875-.094-.875a2.794,2.794,0,0,0-.656-.266.729.729,0,0,1-.719-.344c-.156-.344-.109-.687-.281-.766a13.585,13.585,0,0,0-1.891.234c-.078,0-2.516-.406-2.516-.406L5.8,4.979,4.492,5.995Z" fill="#3dadd9"/>
      <path id="Path_492" data-name="Path 492" d="M13.983,12.761l-1.9-.815L11,10.861h-.136V9.91a3.567,3.567,0,0,0,.95-2.036h.272c.543,0,.815-.543.815-1.086V6.516A1.173,1.173,0,0,0,12.49,5.7a4.929,4.929,0,0,0-.815-4.344A4.122,4.122,0,0,0,7.874,0,5.875,5.875,0,0,0,4.887,1.086,1.977,1.977,0,0,0,3.122,3.258a9.748,9.748,0,0,0,.272,2.308,1.143,1.143,0,0,0-.543.95v.272a1.183,1.183,0,0,0,.815,1.086h.272a4.724,4.724,0,0,0,.95,2.036v.95H4.752L3.665,11.947l-2.036.815A2.486,2.486,0,0,0,0,15.2l.272,7.467a.433.433,0,0,0,.407.407.433.433,0,0,0,.407-.407L.815,15.2a.816.816,0,0,1,.136-.543l1.222,1.222a2.439,2.439,0,0,1,.543,1.222v5.566a.26.26,0,0,0,.136.407.433.433,0,0,0,.407-.407V17.105a2.581,2.581,0,0,0-.679-1.765L1.222,13.983A1.355,1.355,0,0,1,1.9,13.44l1.9-.815,1.493,2.308a1.247,1.247,0,0,0,.815.543h.136a.816.816,0,0,0,.543-.136l-.272,7.331c0,.136.136.407.272.407a.433.433,0,0,0,.407-.407l.272-6.788h.815l.272,6.788a.407.407,0,0,0,.815,0L9.1,15.341a.816.816,0,0,0,.543.136h.136a1.116,1.116,0,0,0,.815-.543l1.493-2.308,1.765.679h.136c.136,0,.272-.136.407-.272-.136,0-.272-.272-.407-.272ZM4.752,7.738A.6.6,0,0,0,3.937,7.2H3.8c-.136,0-.136-.136-.136-.407V6.516c0-.136.136-.407.272-.407a.5.5,0,0,1,.407.136c.136.136.136.136.272.136a.5.5,0,0,0,.407-.136L6.57,4.995l-.219-.316-.359-.262s-.833.606-.969.742c0,.272-.136.407-.407.543,0-.136-.272-.272-.407-.272,0-.407-.272-1.222-.272-2.172A1.323,1.323,0,0,1,4.48,2.036,1.353,1.353,0,0,1,5.023,1.9c.136,0,.136,0,.272-.136A3.843,3.843,0,0,1,7.874.815,3.578,3.578,0,0,1,11.132,1.9c.815.679,1.086,1.9.815,3.53h-.407l-.272-.815c-.136-.272-.272-.272-.543-.272,0,0-3.53.95-5.159-.95a.413.413,0,0,0-.543,0,.413.413,0,0,0,0,.543c1.493,1.9,4.616,1.493,5.566,1.222l.272.679a.747.747,0,0,0,.679.407h.272c.272,0,.407.136.407.272v.272c0,.136-.136.407-.272.407h-.136A.917.917,0,0,0,11,7.738a3,3,0,0,1-3.122,2.715A3.189,3.189,0,0,1,4.752,7.738Zm1.765,6.924c-.136.136-.136.136-.272.136s-.136,0-.272-.136L4.48,12.354l.679-.679,2.308,2.036-.95.95Zm1.086.407v-.543l.407-.407.407.407v.543H7.6Zm.272-1.9L5.7,11.268v-.679a4.1,4.1,0,0,0,2.172.679,4.1,4.1,0,0,0,2.172-.679V11.4ZM9.91,14.526c0,.136-.136.136-.272.136a.42.42,0,0,1-.272-.136l-.95-.95,2.308-2.036.679.679L9.91,14.526Z"/>
      <path id="Path_493" data-name="Path 493" d="M22.671,17.241a1.507,1.507,0,0,0-1.493-1.493H18.87v-.815a1.071,1.071,0,0,0-1.086-1.086H15.476a1.071,1.071,0,0,0-1.086,1.086v.815H11.675a1.507,1.507,0,0,0-1.493,1.493v1.086a1.542,1.542,0,0,0,.407,1.086v4.073a1.507,1.507,0,0,0,1.493,1.493h8.688a1.507,1.507,0,0,0,1.493-1.493V19.413a1.805,1.805,0,0,0,.407-1.086V17.241ZM14.8,14.8a.36.36,0,0,1,.407-.407h2.444a.36.36,0,0,1,.407.407v.815H14.933V14.8Zm7.059,3.53c0,.679-.543,1.222-1.629,1.765a.433.433,0,0,0-.407-.407H18.191a.433.433,0,0,0-.407.407v1.222a1.086,1.086,0,1,0,2.172,0v-.272a3.559,3.559,0,0,0,1.222-.679v3.394a.876.876,0,0,1-.815.815H12.082a.876.876,0,0,1-.815-.815V20.364a9.85,9.85,0,0,0,1.222.679v.272A1.071,1.071,0,0,0,13.576,22.4a1.152,1.152,0,0,0,1.086-.95,6.61,6.61,0,0,0,1.629.136h1.684a.407.407,0,1,0,0-.815H16.291a6.61,6.61,0,0,1-1.629-.136v-.679a.433.433,0,0,0-.407-.407H12.9a.433.433,0,0,0-.407.407c-.95-.407-1.629-1.086-1.629-1.629V17.241a.876.876,0,0,1,.815-.815h9.367a.876.876,0,0,1,.815.815Zm-2.308,2.036v.815a.407.407,0,1,1-.815,0v-.815Zm-6.245.679v-.679h.815v.815a.36.36,0,0,1-.407.407c-.272,0-.407-.272-.407-.543Z"/>
    </g>
  </g>
</svg>
