<svg xmlns="http://www.w3.org/2000/svg" width="24.997" height="24.927" viewBox="0 0 24.997 24.927">
  <g id="Trouver_un_Solutionneur-icon-_detail-3" data-name="Trouver un Solutionneur-icon- detail-3" transform="translate(-816.208 -605.21)">
    <path id="Path_1226" data-name="Path 1226" d="M818.451,621.013c-.661,0-1.189,2.51-1.189,4.623v.009a1.185,1.185,0,0,0,1.188,1.18h.008a1.184,1.184,0,0,0,1.179-1.189C819.637,623.522,819.112,621.013,818.451,621.013Z" fill="none"/>
    <rect id="Rectangle_954" data-name="Rectangle 954" width="0.793" height="1.713" transform="translate(837.078 623.919)" fill="none"/>
    <rect id="Rectangle_955" data-name="Rectangle 955" width="0.793" height="1.714" transform="translate(837.078 618.899)" fill="none"/>
    <path id="Path_1227" data-name="Path 1227" d="M829.04,609.44l-5.17,3.04v12.98h1.59v-1.81h-.4a.205.205,0,0,1-.11,0,.4.4,0,0,1-.34-.45.4.4,0,0,1,.45-.34h7.63a.411.411,0,0,1,.35.45.4.4,0,0,1-.45.34h-.4v1.81h1.58V612.39a.944.944,0,0,1,.03-.09Zm-3.59,3.78a.415.415,0,0,1,.4-.4h1.71a.205.205,0,0,1,.11,0,.35.35,0,0,1,.29.4v2.5a.206.206,0,0,1,0,.11.35.35,0,0,1-.4.29h-1.71a.58.58,0,0,1-.4-.39Zm2.52,7.5a.35.35,0,0,1-.4.3h-1.83a.354.354,0,0,1-.29-.35v-2.56a.2.2,0,0,1,0-.11.35.35,0,0,1,.4-.29h1.72a.2.2,0,0,1,.11,0,.345.345,0,0,1,.29.4Zm4.22-.1a.17.17,0,0,1,0,.1.35.35,0,0,1-.4.3h-1.82a.35.35,0,0,1-.3-.4V618a.35.35,0,0,1,.4-.29h1.72a.205.205,0,0,1,.11,0,.345.345,0,0,1,.29.4Zm0-4.9a.2.2,0,0,1,0,.11.35.35,0,0,1-.4.29h-1.72a.429.429,0,0,1-.4-.39v-2.62a.35.35,0,0,1,.4-.29h1.72a.205.205,0,0,1,.11,0,.35.35,0,0,1,.29.4Z" fill="#3dadd9"/>
    <path id="Path_1228" data-name="Path 1228" d="M827.68,617.71a.2.2,0,0,0-.11,0h-1.72a.35.35,0,0,0-.4.29.2.2,0,0,0,0,.11v2.56a.354.354,0,0,0,.29.35h1.83a.35.35,0,0,0,.4-.3v-2.61A.345.345,0,0,0,827.68,617.71Zm-.64,2.64h-.8v-1.72h.8Z"/>
    <path id="Path_1229" data-name="Path 1229" d="M827.67,612.82a.205.205,0,0,0-.11,0h-1.71a.415.415,0,0,0-.4.4v2.51a.58.58,0,0,0,.4.39h1.71a.35.35,0,0,0,.4-.29.206.206,0,0,0,0-.11v-2.5A.35.35,0,0,0,827.67,612.82Zm-.63,2.51h-.8v-1.72h.8Z"/>
    <path id="Path_1230" data-name="Path 1230" d="M822.938,626.365l0,0h0Z"/>
    <path id="Path_1231" data-name="Path 1231" d="M821.36,620.721a.324.324,0,0,0,0-.108V618.1a.35.35,0,0,0-.291-.4.333.333,0,0,0-.109,0h-1.717a.422.422,0,0,0-.4.4v.793a.35.35,0,0,0,.292.4.327.327,0,0,0,.108,0,.35.35,0,0,0,.4-.292.327.327,0,0,0,0-.108v-.4h.793v2.113c0,.264.264.4.528.4l0,0A.35.35,0,0,0,821.36,620.721Z"/>
    <path id="Path_1232" data-name="Path 1232" d="M838.4,618.11v-.01h-1.72a.35.35,0,0,0-.4.29.2.2,0,0,0,0,.11v2.51a.35.35,0,0,0,.29.4.205.205,0,0,0,.11,0h1.72a.35.35,0,0,0,.4-.29V618.5A.58.58,0,0,0,838.4,618.11Zm-.53,2.5h-.79V618.9h.79Z"/>
    <path id="Path_1233" data-name="Path 1233" d="M838.4,623.13v-.01h-1.72a.35.35,0,0,0-.4.29.2.2,0,0,0,0,.11v2.51a.35.35,0,0,0,.29.4.205.205,0,0,0,.11,0h1.72a.35.35,0,0,0,.4-.29v-2.62A.58.58,0,0,0,838.4,623.13Zm-.53,2.5h-.79v-1.71h.79Z"/>
    <path id="Path_1234" data-name="Path 1234" d="M837.577,629.331a.376.376,0,0,0-.106,0H820.037a.4.4,0,0,0-.1.793.369.369,0,0,0,.1,0h17.434a.4.4,0,1,0,.106-.793Z"/>
    <path id="Path_1235" data-name="Path 1235" d="M834.57,626.36v.02a.124.124,0,0,0-.03-.02Z"/>
    <path id="Path_1236" data-name="Path 1236" d="M833.79,626.36l-.02.02v-.02Z"/>
    <path id="Path_1237" data-name="Path 1237" d="M840.774,614.408a.35.35,0,0,0-.4.292.39.39,0,0,0,0,.108v.4h-4.62a.4.4,0,1,0-.105.793.369.369,0,0,0,.105,0h4.623v13.73a.4.4,0,0,0,.793,0V614.8C841.3,614.672,841.037,614.408,840.774,614.408Z"/>
    <path id="Path_1238" data-name="Path 1238" d="M831.9,617.71a.205.205,0,0,0-.11,0h-1.72a.35.35,0,0,0-.4.29v2.62a.35.35,0,0,0,.3.4h1.82a.35.35,0,0,0,.4-.3.17.17,0,0,0,0-.1v-2.51A.345.345,0,0,0,831.9,617.71Zm-.64,2.64h-.79v-1.72h.79Z"/>
    <path id="Path_1239" data-name="Path 1239" d="M831.9,612.82a.205.205,0,0,0-.11,0h-1.72a.35.35,0,0,0-.4.29v2.62a.429.429,0,0,0,.4.39h1.72a.35.35,0,0,0,.4-.29.2.2,0,0,0,0-.11v-2.5A.35.35,0,0,0,831.9,612.82Zm-.63,2.51h-.8v-1.72h.8Z"/>
    <path id="Path_1240" data-name="Path 1240" d="M820.43,625.63s0-5.41-2.11-5.41-2.11,5.2-2.11,5.41v.01a1.9,1.9,0,0,0,1.71,1.98v2.11a.35.35,0,0,0,.29.4.2.2,0,0,0,.11,0,.35.35,0,0,0,.4-.29.205.205,0,0,0,0-.11v-2.11a1.9,1.9,0,0,0,1.72-1.98Zm-1.97,1.19h-.01a1.178,1.178,0,0,1-1.19-1.18,13.769,13.769,0,0,1,.35-3.11c.21-.89.51-1.52.84-1.52.66,0,1.19,2.51,1.19,4.63A1.182,1.182,0,0,1,818.46,626.82Z"/>
    <path id="Path_1241" data-name="Path 1241" d="M816.622,619.827a.327.327,0,0,0,.108,0l.007,0a.35.35,0,0,0,.4-.292.327.327,0,0,0,0-.108v-3.3h4.616a.4.4,0,0,0,0-.793H817.13V614.8a.35.35,0,0,0-.291-.4.333.333,0,0,0-.109,0,.422.422,0,0,0-.4.4v4.623A.35.35,0,0,0,816.622,619.827Z"/>
    <path id="Path_1242" data-name="Path 1242" d="M835.89,627.75h-3.7v-1.39h2.38v-13.6l.68.41h.27c.14,0,.28-.14.42-.28s0-.42-.14-.55l-6.48-3.59V606h2.2v.82h-1.24a.362.362,0,0,0-.41.31.205.205,0,0,0,0,.11.357.357,0,0,0,.3.42h1.91a.361.361,0,0,0,.41-.31.2.2,0,0,0,0-.11v-1.79a.331.331,0,0,0-.05-.24h-3.86a.417.417,0,0,0-.09.24v3.16l-6.21,3.87a.562.562,0,0,0-.28.55c.15.27.42.27.7.14l.24-.15v13.34h2.52v1.39h-3.7a.4.4,0,1,0-.11.79.17.17,0,0,0,.1,0h14.14a.4.4,0,0,0,.34-.45A.383.383,0,0,0,835.89,627.75Zm-10.43-2.29h-1.59V612.48l5.17-3.04,4.76,2.86a.944.944,0,0,0-.03.09v13.07h-1.58v-1.81h.4a.4.4,0,0,0,.45-.34.411.411,0,0,0-.35-.45h-7.63a.4.4,0,0,0-.45.34.4.4,0,0,0,.34.45.205.205,0,0,0,.11,0h.4Zm2.9-.22a.4.4,0,0,0-.11.79.206.206,0,0,0,.11,0v1.72h-2.12v-4.23h2.12Zm2.91,2.51h-2.12v-1.72h.06a.4.4,0,0,0,.05-.79.205.205,0,0,0-.11,0v-1.72h2.12Z"/>
  </g>
</svg>
