<svg xmlns="http://www.w3.org/2000/svg" xmlns:xlink="http://www.w3.org/1999/xlink" width="26" height="32" viewBox="0 0 26 32"><defs><clipPath id="a"><rect width="26" height="32" transform="translate(241 390)" fill="#3dadd9"/></clipPath></defs><g transform="translate(-241 -390)" clip-path="url(#a)"><g transform="translate(241.113 390)"><rect width="1.531" height="1.465" transform="translate(10.661 25.17)" fill="#3dadd9"/><rect width="7.655" height="1.465" transform="translate(15.2 25.083)" fill="#3dadd9"/><rect width="4.593" height="1.465" transform="translate(4.483 25.083)" fill="#3dadd9"/><rect width="7.655" height="1.465" transform="translate(4.483 22.153)" fill="#3dadd9"/><path d="M9.682,15.025v8.791H28.054V15.025Zm16.842,7.323H11.212V16.49H26.523Z" transform="translate(-5.198 -3.129)" fill="#3dadd9"/><rect width="7.655" height="1.465" transform="translate(15.2 22.153)" fill="#3dadd9"/><rect width="18.373" height="1.465" transform="translate(4.483 8.966)" fill="#3dadd9"/><path d="M27.3,6.908V3.129H8.191A3.626,3.626,0,0,0,4.752,6.909V35.129H30.9V6.908Zm2.447,26.95H5.908V6.909A2.407,2.407,0,0,1,8.191,4.4H26.148V6.908H8.682v1.27H29.75Z" transform="translate(-4.752 -3.129)" fill="#3dadd9"/></g></g></svg>