<svg xmlns="http://www.w3.org/2000/svg" xmlns:xlink="http://www.w3.org/1999/xlink" width="29" height="32" viewBox="0 0 29 32"><defs><clipPath id="a"><rect width="29" height="32" transform="translate(866 442)" fill="#3dadd9"/></clipPath></defs><g transform="translate(-866 -442)" clip-path="url(#a)"><g transform="translate(862.242 438.956)"><path d="M23.952,18.432a.769.769,0,0,0-.65-.567l-.3-.04-.25-.033-.005-.011c-.12-.3-.25-.615-.385-.928l-.007-.016h0c.113-.145.223-.291.329-.436a.728.728,0,0,0-.065-1c-.218-.224-.436-.446-.655-.66a.725.725,0,0,0-1-.064c-.142.1-.291.214-.436.328h0L20.519,15c-.358-.155-.65-.276-.92-.381l-.02-.009a.117.117,0,0,1,0-.019c-.02-.17-.043-.334-.069-.517a.734.734,0,0,0-.525-.636l-.017-.01-.034-.02H17.641l-.034.02-.017.01a.734.734,0,0,0-.525.636c-.026.183-.049.348-.073.517v.017a.1.1,0,0,1-.02.01c-.269.1-.561.226-.919.381l-.016.006h0c-.145-.115-.3-.228-.436-.328a.725.725,0,0,0-1,.065c-.218.218-.442.436-.659.659a.725.725,0,0,0-.065,1c.1.135.214.291.329.436h0l-.007.016c-.154.358-.276.65-.38.919l-.009.02-.019,0c-.17.02-.335.043-.517.069a.734.734,0,0,0-.665.716c-.006.321-.006.661,0,1.009a.706.706,0,0,0,.582.7c.145.028.295.048.436.067l.155.021h.024c.065.166.134.332.2.493s.125.3.184.45a.073.073,0,0,1,0,.017c-.065.094-.137.188-.206.279l-.116.152a.726.726,0,0,0,.065,1c.214.218.436.441.66.659a.725.725,0,0,0,1,.065c.145-.105.291-.215.436-.329h0l.016.006c.356.154.648.275.919.381l.02.008a.141.141,0,0,1,0,.019c.019.168.043.334.073.517a.734.734,0,0,0,.716.665c.162,0,.328,0,.5,0s.34,0,.513,0a.706.706,0,0,0,.7-.582c.035-.183.058-.369.081-.549l.006-.047v-.018a.06.06,0,0,1,.02-.01c.274-.107.565-.228.92-.38l.015-.006h0c.113.089.23.177.343.261l.081.061a.738.738,0,0,0,1.018-.066c.218-.212.432-.429.643-.643a.739.739,0,0,0,.065-1.018l-.1-.132c-.073-.095-.145-.191-.214-.291v-.015c.063-.159.129-.317.195-.476s.127-.306.188-.46l.005-.011L23,20.337l.291-.04a.766.766,0,0,0,.65-.567l.008-.023V18.432ZM22,20.079c-.105.271-.226.561-.389.938a.721.721,0,0,0,.063.745c.1.138.207.282.349.465-.185.182-.382.378-.6.6-.078-.061-.157-.121-.237-.18-.058-.044-.117-.087-.175-.132a.765.765,0,0,0-.847-.077c-.283.134-.566.251-.841.349a.75.75,0,0,0-.545.639c-.009.073-.021.145-.032.223-.015.1-.03.2-.042.3h-.847c-.022-.177-.048-.36-.08-.559a.719.719,0,0,0-.482-.582c-.175-.068-.352-.145-.524-.214-.133-.055-.266-.111-.4-.165-.073-.028-.141-.049-.218-.073l-.113-.035-.054-.017-.051.023c-.031.015-.063.028-.1.041a1.557,1.557,0,0,0-.258.126c-.141.091-.272.2-.4.3l-.044.035c-.2-.2-.4-.406-.6-.6.073-.092.145-.188.213-.279l.108-.145a.755.755,0,0,0,.073-.826c-.128-.277-.249-.567-.358-.864a.749.749,0,0,0-.626-.529l-.2-.03c-.11-.017-.218-.033-.33-.047v-.846c.164-.02.33-.045.49-.073l.061-.009a.727.727,0,0,0,.6-.5c.111-.291.237-.591.385-.928a.727.727,0,0,0-.065-.755c-.107-.15-.218-.3-.346-.46.19-.186.386-.382.6-.6.089.073.181.138.269.2l.145.112a.755.755,0,0,0,.837.073c.263-.123.546-.239.863-.357a.741.741,0,0,0,.527-.629c.009-.068.02-.137.031-.206.015-.106.032-.218.045-.326H18.7c.023.185.049.375.081.566a.717.717,0,0,0,.476.575c.349.139.7.286.96.4a.713.713,0,0,0,.734-.065c.166-.117.329-.242.467-.351.2.205.4.407.6.6-.068.088-.135.178-.2.267l-.116.153a.755.755,0,0,0-.073.837c.13.279.249.566.353.853a.755.755,0,0,0,.634.535l.223.033c.1.015.2.03.3.043V19.5c-.167.021-.345.047-.557.08a.727.727,0,0,0-.587.5Z" fill="#3dadd9"/><path d="M18.292,16.33h-.009a2.753,2.753,0,1,0-.01,5.507h.017a2.753,2.753,0,0,0,0-5.506Zm-.005,4.588H18.28a1.84,1.84,0,1,1,.007,0Z" fill="#3dadd9"/><path d="M29.754,16.362a3.095,3.095,0,1,0-3.536-.309,3.095,3.095,0,0,0,3.536.309Z" fill="none"/><path d="M9.1,22.188a3.1,3.1,0,1,0,2.232,3.6,3.114,3.114,0,0,0-2.232-3.6Z" fill="none"/><path d="M21.348,7.935a3.095,3.095,0,1,0-3.095,3.095,3.095,3.095,0,0,0,3.095-3.095Z" fill="none"/><path d="M15.159,30.925a3.095,3.095,0,1,0,3.095-3.095A3.095,3.095,0,0,0,15.159,30.925Z" fill="none"/><path d="M11.288,12.882A3.094,3.094,0,1,0,9.1,16.671a3.1,3.1,0,0,0,2.188-3.789Z" fill="none"/><path d="M29.754,22.5A3.095,3.095,0,1,0,31.2,24.376,3.095,3.095,0,0,0,29.754,22.5Z" fill="none"/><path d="M22.855,16.691c.086.2.16.376.228.541l1.843-1.064a4.123,4.123,0,1,0-.509-.888l-1.08.623a1.124,1.124,0,0,1-.195.408C23.047,16.441,22.952,16.565,22.855,16.691ZM26.661,11a3.071,3.071,0,0,1,1.542-.416A3.1,3.1,0,1,1,26.661,11Z" fill="#3dadd9"/><path d="M30.267,21.61a4.124,4.124,0,0,0-5.341,1.08l-2.01-1.157.18.241.041.054a.969.969,0,0,1,.1,1.077l1.172.677a4.118,4.118,0,1,0,5.853-1.968Zm.621,5.114a3.095,3.095,0,1,1,.309-2.348,3.095,3.095,0,0,1-.309,2.348Z" fill="#3dadd9"/><path d="M17.741,26.838a4.119,4.119,0,1,0,1.024,0V25.355H17.741Zm3.607,4.086a3.095,3.095,0,1,1-3.095-3.095A3.095,3.095,0,0,1,21.348,30.925Z" fill="#3dadd9"/><path d="M17.741,12.735h1.028V11.251a4.119,4.119,0,1,0-1.024,0Zm.509-2.473a3.095,3.095,0,1,1,3.095-3.095,3.095,3.095,0,0,1-3.095,3.095Z" fill="#3dadd9"/><path d="M13.369,21.829c.041-.056.084-.111.126-.167s.073-.092.1-.137L11.582,22.69a4.118,4.118,0,1,0,.509.887l1.172-.677A.973.973,0,0,1,13.369,21.829Zm-2.081,4.147A3.1,3.1,0,1,1,9.1,22.188a3.094,3.094,0,0,1,2.188,3.787Z" fill="#3dadd9"/><path d="M13.37,16.312a1.12,1.12,0,0,1-.194-.406l-1.082-.625a4.116,4.116,0,1,0-.509.888l1.844,1.065c.068-.167.145-.346.228-.543C13.555,16.562,13.458,16.431,13.37,16.312Zm-6.62.049a3.1,3.1,0,1,1,3.537-.308,3.094,3.094,0,0,1-3.537.308Z" fill="#3dadd9"/></g></g></svg>