<svg xmlns="http://www.w3.org/2000/svg" xmlns:xlink="http://www.w3.org/1999/xlink" width="29" height="32" viewBox="0 0 29 32"><defs><clipPath id="a"><rect width="29" height="32" transform="translate(240 390)" fill="#3dadd9"/></clipPath></defs><g transform="translate(-240 -390)" clip-path="url(#a)"><g transform="translate(238.039 389.54)"><path d="M28.747,17.644l-.881.87,1.29-.045-8.164,7.612-7.1-4.621L2.042,25.319v1.044l11.682-3.744,7.393,4.813,8.919-8.317.045,1.3.881-.869-.069-1.977Z" fill="#3dadd9"/><path d="M2.812,24.627v-2.2a2.071,2.071,0,0,1,2.067-2.069A3.645,3.645,0,0,0,6.12,20.1S8.6,22.245,9.168,22.245c.43,0,3.007-2.148,3.007-2.148l.129.027a2.887,2.887,0,0,0-.051.541v.726l.85-.291v-.435a2,2,0,0,1,.033-.364,2.039,2.039,0,0,1,.322-.791,2.067,2.067,0,0,1,1.714-.912,3.645,3.645,0,0,0,1.24-.262s2.482,2.148,3.049,2.148c.43,0,3.008-2.147,3.008-2.147s1.222.262,1.238.262a2.071,2.071,0,0,1,2.068,2.067v.111l.782-.73a2.923,2.923,0,0,0-2.751-2.3,2.488,2.488,0,0,1-2.512-2.266,4.25,4.25,0,0,0,.981-.971,5.9,5.9,0,0,0,1.064-2.772.424.424,0,0,0,.107-.15A4.592,4.592,0,0,0,23.8,9.808a4.178,4.178,0,0,0-4-4.32,3.716,3.716,0,0,0-1.667.4,2.935,2.935,0,0,0-.589.105A3.315,3.315,0,0,0,15.46,7.883a4.7,4.7,0,0,0-.233,3.086,5.087,5.087,0,0,0,.215.654.433.433,0,0,0,.1.145,5.311,5.311,0,0,0,2.04,3.708,2.488,2.488,0,0,1-2.511,2.27,2.923,2.923,0,0,0-2.5,1.585A2.41,2.41,0,0,1,11,17.242a4.249,4.249,0,0,0,.982-.97A5.9,5.9,0,0,0,13.047,13.5a.433.433,0,0,0,.107-.15,4.565,4.565,0,0,0,.355-1.775A4.176,4.176,0,0,0,9.5,7.255a3.717,3.717,0,0,0-1.667.4,2.854,2.854,0,0,0-.59.105A3.3,3.3,0,0,0,5.17,9.645a4.7,4.7,0,0,0-.234,3.086,5.092,5.092,0,0,0,.217.654.407.407,0,0,0,.1.145,5.323,5.323,0,0,0,2.038,3.711,2.489,2.489,0,0,1-2.508,2.27,2.921,2.921,0,0,0-2.822,2.915v2.49ZM17.774,6.809a2.126,2.126,0,0,1,.487-.078.444.444,0,0,0,.179-.048,2.885,2.885,0,0,1,1.355-.341,3.328,3.328,0,0,1,3.155,3.472c0,.057,0,.114,0,.172a1.849,1.849,0,0,0-1.323-.556h-2.9a.785.785,0,0,1-.473-.156.8.8,0,0,1-.262-.34A.521.521,0,0,0,17,9a3.942,3.942,0,0,1-.965,1.721C15.612,8.957,16.383,7.211,17.774,6.809Zm-.37,7.352a4.981,4.981,0,0,1-1.029-2.587,4.823,4.823,0,0,0,1.237-1.733,1.544,1.544,0,0,0,.132.109,1.627,1.627,0,0,0,.981.325h2.9a1.01,1.01,0,0,1,.921.6v.009c0,2.4-1.392,4.352-3.1,4.352A2.659,2.659,0,0,1,17.4,14.161Zm.977,1.736a3.086,3.086,0,0,0,2.113,0,3.326,3.326,0,0,0,1.24,2.007l-2.212,1.7a.071.071,0,0,1-.06.032.069.069,0,0,1-.06-.032l-2.251-1.7a3.335,3.335,0,0,0,1.23-2.006ZM7.483,8.571a2.132,2.132,0,0,1,.487-.078.444.444,0,0,0,.179-.048A2.885,2.885,0,0,1,9.5,8.1a3.327,3.327,0,0,1,3.155,3.472c0,.057,0,.114,0,.17a1.856,1.856,0,0,0-1.325-.555h-2.9a.786.786,0,0,1-.473-.156.8.8,0,0,1-.262-.34.521.521,0,0,0-.988.064,3.937,3.937,0,0,1-.963,1.717C5.322,10.718,6.093,8.973,7.483,8.571Zm-.37,7.352a4.993,4.993,0,0,1-1.029-2.587A4.818,4.818,0,0,0,7.321,11.6c.042.039.086.075.132.109a1.627,1.627,0,0,0,.981.325h2.9a1.01,1.01,0,0,1,.921.6s0,.006,0,.009c0,2.4-1.392,4.352-3.1,4.352a2.661,2.661,0,0,1-2.036-1.073Zm.977,1.736a3.092,3.092,0,0,0,1.057.188,3.123,3.123,0,0,0,1.056-.185,3.326,3.326,0,0,0,1.236,2l-2.212,1.7a.072.072,0,0,1-.12,0l-2.251-1.7A3.331,3.331,0,0,0,8.09,17.659Z" fill="#3dadd9"/></g></g></svg>