<svg xmlns="http://www.w3.org/2000/svg" xmlns:xlink="http://www.w3.org/1999/xlink" width="29" height="32" viewBox="0 0 29 32"><defs><clipPath id="a"><rect width="29" height="32" transform="translate(234 390)" fill="#3dadd9"/></clipPath></defs><g transform="translate(-234 -390)" clip-path="url(#a)"><g transform="translate(234 391.5)"><path d="M26.086,12.083H13.748L22.472,3.36a.483.483,0,0,0-.026-.707,7.3,7.3,0,0,0-8.336-.822,1.933,1.933,0,0,0-2.658.253A1.964,1.964,0,0,0,11.4,4.537a7.177,7.177,0,0,0-.815,2.23H8.217A2.42,2.42,0,0,0,5.8,9.183v1a4.345,4.345,0,0,0-2.245,7.7H2.9a2.9,2.9,0,0,0-2.9,2.9v7.25A.967.967,0,0,0,.967,29H11.6a.967.967,0,0,0,.967-.967v-7.25a2.9,2.9,0,0,0-2.9-2.9H9.011a4.345,4.345,0,0,0-2.245-7.7v-1a1.45,1.45,0,0,1,1.45-1.45h2.249a7.283,7.283,0,0,0,1.627,5c0,.106-.01.212-.01.321a7.223,7.223,0,0,0,1.922,4.915,5.392,5.392,0,0,1,1.462,3.659v1.092H14.5a.483.483,0,1,0,0,.967h.967a1.933,1.933,0,0,0,1.47,1.871,2.436,2.436,0,0,0,4.793,0,1.933,1.933,0,0,0,1.47-1.871h.967a.483.483,0,0,0,0-.967H23.2V21.624a5.394,5.394,0,0,1,1.462-3.66,7.221,7.221,0,0,0,1.922-4.915c0-.174-.005-.344-.015-.513a.483.483,0,0,0-.482-.453ZM9.667,18.85A1.933,1.933,0,0,1,11.6,20.783v7.25H9.667v-5.8a.483.483,0,1,0-.967,0v5.8H3.867v-5.8a.483.483,0,1,0-.967,0v5.8H.967v-7.25A1.933,1.933,0,0,1,2.9,18.85Zm0-4.35a3.383,3.383,0,1,1-3.383-3.383A3.383,3.383,0,0,1,9.667,14.5ZM12.4,4.744a.483.483,0,0,0-.066-.6l-.048-.048a1.025,1.025,0,0,1-.1-1.374.947.947,0,0,1,.73-.334.962.962,0,0,1,.684.283l.109.109a.483.483,0,0,0,.6.065,6.332,6.332,0,0,1,7.1.219l-8.785,8.781A6.332,6.332,0,0,1,12.4,4.744Zm6.93,21.839a1.412,1.412,0,0,1-1.421-.967h2.841A1.412,1.412,0,0,1,19.333,26.583Zm2.9-2.9a.967.967,0,0,1-.967.967H17.4a.967.967,0,0,1-.967-.967v-1.45h5.8Zm-3.959-2.417-1.19-5.558,2.1.7a.483.483,0,0,0,.305,0l2.1-.7-1.19,5.558Zm5.678-3.958a6.375,6.375,0,0,0-1.709,3.958h-.862l1.325-6.182a.483.483,0,0,0-.625-.56l-2.747.916-2.747-.918a.483.483,0,0,0-.625.56l1.325,6.185h-.862a6.375,6.375,0,0,0-1.709-3.958A6.263,6.263,0,0,1,13.05,13.05H25.617a6.263,6.263,0,0,1-1.665,4.259Z" fill="#3dadd9"/><path d="M13.091,10.06a.477.477,0,0,0,.145-.022.483.483,0,0,0,.319-.6,4.355,4.355,0,0,1,.479-3.646.483.483,0,1,0-.815-.519,5.317,5.317,0,0,0-.589,4.453A.483.483,0,0,0,13.091,10.06Z" fill="#3dadd9"/><path d="M17.883,9.908a1.692,1.692,0,1,0,1.692-1.692A1.692,1.692,0,0,0,17.883,9.908Zm1.692-.725a.725.725,0,1,1-.725.725A.725.725,0,0,1,19.575,9.183Z" fill="#3dadd9"/><path d="M27.618,6.087,25.7,5.816l-.856-1.685a.5.5,0,0,0-.862,0l-.856,1.685L21.2,6.087a.483.483,0,0,0-.264.83l1.382,1.307-.325,1.842a.483.483,0,0,0,.7.515L24.408,9.7l1.722.879a.483.483,0,0,0,.695-.515L26.5,8.224l1.382-1.3a.483.483,0,0,0-.265-.83ZM25.647,7.7a.483.483,0,0,0-.145.435l.2,1.143-1.078-.55a.479.479,0,0,0-.439,0l-1.076.551.2-1.143a.483.483,0,0,0-.145-.435l-.838-.8,1.177-.166a.483.483,0,0,0,.363-.26l.54-1.063.54,1.063a.483.483,0,0,0,.363.26l1.177.166Z" fill="#3dadd9"/><circle cx="0.483" cy="0.483" r="0.483" transform="translate(28.033 8.217)" fill="#3dadd9"/><path d="M26.583,1.933a.483.483,0,0,0,.483-.483V.483a.483.483,0,0,0-.967,0V1.45A.483.483,0,0,0,26.583,1.933Z" fill="#3dadd9"/><path d="M26.1,4.35a.483.483,0,0,0,.967,0V3.383a.483.483,0,0,0-.967,0Z" fill="#3dadd9"/><path d="M28.517,1.933H27.55a.483.483,0,1,0,0,.967h.967a.483.483,0,1,0,0-.967Z" fill="#3dadd9"/><path d="M25.617,1.933H24.65a.483.483,0,1,0,0,.967h.967a.483.483,0,0,0,0-.967Z" fill="#3dadd9"/></g></g></svg>