<svg xmlns="http://www.w3.org/2000/svg" xmlns:xlink="http://www.w3.org/1999/xlink" width="29" height="32" viewBox="0 0 29 32"><defs><clipPath id="a"><rect width="29" height="32" transform="translate(235 391)" fill="#3dadd9"/></clipPath></defs><g transform="translate(-235 -391)" clip-path="url(#a)"><g transform="translate(231.125 388.624)"><path d="M28.329,25.081a1.476,1.476,0,0,1-.174,1.676,1.464,1.464,0,0,1,.011,1.917,1.5,1.5,0,0,1-1.1,2.458,1.7,1.7,0,0,1-.511,1.558,1.43,1.43,0,0,1-.973.345c-.883-.019-1.3-.574-1.436-1.915a1.484,1.484,0,0,1-1.3-.873,1.436,1.436,0,0,1,.223-1.547,1.5,1.5,0,0,1,0-1.946,1.467,1.467,0,0,1-.173-1.673,1.631,1.631,0,0,1-.671-1.61c.014-.179,0-.359,0-.543a1.45,1.45,0,0,0-.664-1.279,7.253,7.253,0,1,1,8.206-.084,1.6,1.6,0,0,0-.776,1.5c.009.16-.008.322,0,.482A1.58,1.58,0,0,1,28.329,25.081Zm-1.248-.74h.339c.453-.005.609-.165.612-.624,0-.191.008-.383,0-.574a2.651,2.651,0,0,1,1.22-2.4,5.986,5.986,0,0,0,2.537-6.173,6.2,6.2,0,0,0-6.976-5.147,6.27,6.27,0,0,0-2.7,11.427,2.338,2.338,0,0,1,1.061,1.713c.047.407.016.823.025,1.235a.482.482,0,0,0,.421.536,4.827,4.827,0,0,0,.53,0v-6.76c-.334,0-.653.009-.972,0A1.925,1.925,0,1,1,25.13,15.6c.014.329,0,.658,0,1H26.1c0-.359-.011-.7,0-1.039a1.926,1.926,0,1,1,1.955,2.022c-.327.007-.655,0-.978,0Zm-1-.011V17.594H25.15v6.735Zm-.443.981h0c-.472,0-.942,0-1.414,0a.485.485,0,1,0,.009.963q1.383.006,2.769,0a.49.49,0,0,0,.549-.472.5.5,0,0,0-.558-.491c-.45,0-.9,0-1.353,0Zm-.017,2.9h1.354c.359,0,.574-.184.574-.475s-.21-.487-.562-.488q-1.368-.006-2.738,0c-.347,0-.566.2-.561.49s.215.468.548.472c.46.005.925,0,1.385,0Zm-.026,1.933c.472,0,.943,0,1.415,0a.485.485,0,1,0,0-.963q-1.384-.005-2.769,0a.486.486,0,1,0,0,.963c.456,0,.9,0,1.355,0Zm1.479-13.528c.37,0,.7.016,1.029,0a.958.958,0,0,0,.9-.99.971.971,0,0,0-.92-.938.955.955,0,0,0-1,.876c-.024.337,0,.678,0,1.052Zm-2.907,0c0-.354.017-.675,0-.994a.961.961,0,1,0-.988.991c.317.018.638,0,.993,0Zm1.931,14.512h-.951c.01.314-.119.658.215.853a.6.6,0,0,0,.5.019c.36-.189.225-.549.24-.875Z" fill="#3dadd9"/><path d="M17.406,15.4v9.69c0,.56-.138.7-.69.7H4.522c-.487,0-.646-.158-.646-.654V10.5a.8.8,0,0,1,.249-.616q2.312-2.3,4.61-4.61a.8.8,0,0,1,.613-.256q3.7.009,7.393,0c.513,0,.663.149.663.666V15.4ZM4.867,10.817V24.8H16.415V6H9.676v4.235a.5.5,0,0,1-.568.58H4.867Zm.753-.989H8.691V6.757Z" fill="#3dadd9"/><path d="M19.7,32.373l-.7-.654,1.065-1-.039-.1H11.459c-.111,0-.222,0-.332,0a.469.469,0,0,1-.482-.477c-.008-1.115,0-2.23,0-3.367H11.6v2.855H20.04L18.95,28.62l.8-.718c.363.373.767.79,1.173,1.205.215.223.445.436.659.663a.461.461,0,0,1,.03.7C20.981,31.114,20.334,31.745,19.7,32.373Z" fill="#3dadd9"/><path d="M20.92,3.716l.695.693-1.077,1,.046.076c.1,0,.209.014.314.014h4.585c.454,0,.617.162.618.616v1.3h-.958V6.489H20.529l1.148,1.018-.832.785c-.149-.183-.3-.4-.477-.581-.431-.449-.881-.881-1.319-1.326-.253-.258-.279-.5-.046-.742C19.628,5,20.265,4.371,20.92,3.716Z" fill="#3dadd9"/><path d="M8.17,12.656a.013.013,0,0,1,.013.013v1.338a.013.013,0,0,1-.013.013H6.832a.013.013,0,0,1-.013-.013V12.669a.013.013,0,0,1,.013-.013H8.17m0-.718H6.832a.731.731,0,0,0-.731.731v1.338a.732.732,0,0,0,.731.731H8.17a.732.732,0,0,0,.731-.731V12.669A.731.731,0,0,0,8.17,11.939Z" fill="#3dadd9"/><rect width="4.72" height="0.933" transform="translate(10.641 12.872)" fill="#3dadd9"/><path d="M8.17,16.929a.013.013,0,0,1,.013.013V18.28a.013.013,0,0,1-.013.013H6.832a.013.013,0,0,1-.013-.013V16.94a.013.013,0,0,1,.013-.013H8.17m0-.718H6.832a.732.732,0,0,0-.731.731v1.338a.731.731,0,0,0,.731.731H8.17A.731.731,0,0,0,8.9,18.28V16.94A.732.732,0,0,0,8.17,16.209Z" fill="#3dadd9"/><rect width="4.719" height="0.933" transform="translate(10.642 17.145)" fill="#3dadd9"/><rect width="4.617" height="0.95" transform="translate(10.642 21.304)" fill="#3dadd9"/><path d="M9.99,20.937l-.66-.66L7.647,21.96,6.686,21l-.66.66L7.65,23.282l.66-.66,0,0Z" fill="#3dadd9"/></g></g></svg>