<svg xmlns="http://www.w3.org/2000/svg" xmlns:xlink="http://www.w3.org/1999/xlink" width="29" height="32" viewBox="0 0 29 32"><defs><clipPath id="a"><rect width="29" height="32" transform="translate(247 390)" fill="#3dadd9"/></clipPath></defs><g transform="translate(-247 -390)" clip-path="url(#a)"><g transform="translate(247.38 390)"><path d="M14.491,17.464a.5.5,0,0,0-.18-.006,1.193,1.193,0,0,1-1.055-1.183.525.525,0,0,0-1.05,0,2.246,2.246,0,0,0,1.651,2.162v.525a.525.525,0,0,0,1.05,0v-.493a2.241,2.241,0,0,0-.459-4.435,1.192,1.192,0,1,1,1.192-1.192.525.525,0,1,0,1.05,0,2.246,2.246,0,0,0-1.782-2.194V10.17a.525.525,0,1,0-1.05,0v.51a2.241,2.241,0,0,0,.591,4.4,1.191,1.191,0,0,1,.044,2.381Zm0,0" fill="#3dadd9"/><path d="M6.836,14.6a7.611,7.611,0,1,0,7.611-7.611A7.611,7.611,0,0,0,6.836,14.6Zm7.611-6.562A6.562,6.562,0,1,1,7.886,14.6,6.562,6.562,0,0,1,14.448,8.037Zm0,0" fill="#3dadd9"/><path d="M24.647,23.5l-4.112,1.943a3.349,3.349,0,0,0-2.855-1.762l-3.8-.1a4.009,4.009,0,0,1-1.725-.445l-.386-.2a6.813,6.813,0,0,0-6.31.007l.024-.875a.525.525,0,0,0-.51-.539L.814,21.413a.525.525,0,0,0-.539.51L.024,31.057a.525.525,0,0,0,.51.539l4.162.115h.014a.525.525,0,0,0,.525-.511l.012-.437,1.081-.579a1.855,1.855,0,0,1,1.384-.151l6.457,1.812.034.008A6.912,6.912,0,0,0,15.623,32a7,7,0,0,0,2.926-.638.487.487,0,0,0,.065-.036l9.362-6.056a.525.525,0,0,0,.172-.7,2.651,2.651,0,0,0-3.5-1.067ZM1.088,30.561l.222-8.085,3.113.086L4.2,30.647Zm16.989-.137a5.951,5.951,0,0,1-3.639.406L8,29.023a2.9,2.9,0,0,0-2.164.237l-.553.3.148-5.375a5.77,5.77,0,0,1,5.861-.313l.386.2a5.07,5.07,0,0,0,2.179.563l3.8.1a2.3,2.3,0,0,1,2.188,1.835l-5.654-.156a.525.525,0,0,0-.029,1.05l6.24.172h.015a.525.525,0,0,0,.524-.511,3.331,3.331,0,0,0-.051-.681L25.1,24.45l.012-.006a1.6,1.6,0,0,1,1.814.254Zm0,0" fill="#3dadd9"/><path d="M14.973,5.511V.525a.525.525,0,1,0-1.05,0V5.511a.525.525,0,1,0,1.05,0Zm0,0" fill="#3dadd9"/><path d="M18.909,5.511V3.149a.525.525,0,0,0-1.05,0V5.511a.525.525,0,0,0,1.05,0Zm0,0" fill="#3dadd9"/><path d="M11.036,5.511V3.149a.525.525,0,0,0-1.05,0V5.511a.525.525,0,1,0,1.05,0Zm0,0" fill="#3dadd9"/></g></g></svg>