<svg xmlns="http://www.w3.org/2000/svg" xmlns:xlink="http://www.w3.org/1999/xlink" width="29" height="32" viewBox="0 0 29 32"><defs><clipPath id="a"><rect width="29" height="32" transform="translate(239 394)" fill="#3dadd9"/></clipPath><clipPath id="b"><rect width="29" height="29.595" transform="translate(2.578 2.392)" fill="none"/></clipPath></defs><g transform="translate(-239 -394)" clip-path="url(#a)"><g transform="translate(236.422 392.811)"><g clip-path="url(#b)"><path d="M31.172,15.661,16.953,2.458,2.735,15.661a.5.5,0,1,0,.676.726l1.646-1.527V31.391H28.85V14.859L30.5,16.386a.485.485,0,0,0,.335.134.5.5,0,0,0,.339-.859ZM27.86,30.4H6.046V13.939L16.953,3.812,27.86,13.939Zm0,0" fill="#3dadd9"/></g><path d="M9.021,19.99h6.94v-6.94H9.021Zm.992-5.95h4.958v4.954H10.013Zm0,0" fill="#3dadd9"/><path d="M24.885,13.051H17.943v6.94h6.942ZM23.892,19H18.938V14.044h4.954Zm0,0" fill="#3dadd9"/><path d="M9.021,28.912h6.94v-6.94H9.021Zm.992-5.948h4.958v4.954H10.013Zm0,0" fill="#3dadd9"/><path d="M24.885,21.973H17.943v6.94h6.942Zm-.993,5.95H18.938V22.964h4.954Zm0,0" fill="#3dadd9"/></g></g></svg>