<svg xmlns="http://www.w3.org/2000/svg" xmlns:xlink="http://www.w3.org/1999/xlink" width="31" height="34" viewBox="0 0 31 34"><defs><clipPath id="a"><rect width="31" height="34" transform="translate(242.813 388)" fill="#3dadd9"/></clipPath></defs><g transform="translate(-242.813 -388)" clip-path="url(#a)"><g transform="translate(243 389.594)"><path d="M3.444,1.933H2.93a.514.514,0,0,0,0,1.027h.514a.514.514,0,0,0,0-1.027Z" transform="translate(0.151 0.121)" fill="#3dadd9"/><path d="M5.86,1.933H5.347a.514.514,0,0,0,0,1.027H5.86a.514.514,0,0,0,0-1.027Z" transform="translate(0.302 0.121)" fill="#3dadd9"/><path d="M8.277,1.933H7.764a.514.514,0,0,0,0,1.027h.514a.514.514,0,1,0,0-1.027Z" transform="translate(0.453 0.121)" fill="#3dadd9"/><path d="M24.046,1.933H10.18a.514.514,0,0,0,0,1.027H24.046a.514.514,0,0,0,0-1.027Z" transform="translate(0.604 0.121)" fill="#3dadd9"/><path d="M29.785,18.488h-.514V15.92a5.622,5.622,0,0,0-1.541-3.865V2.568A2.571,2.571,0,0,0,25.164,0H2.568A2.571,2.571,0,0,0,0,2.568V23.109a2.571,2.571,0,0,0,2.568,2.568H16.433v1.541a3.6,3.6,0,0,0,3.595,3.595h7.19a3.6,3.6,0,0,0,3.595-3.595v-7.7A1.027,1.027,0,0,0,29.785,18.488ZM28.245,15.92v2.568H19V15.92a4.622,4.622,0,0,1,9.244,0ZM1.027,2.568A1.541,1.541,0,0,1,2.568,1.027h22.6A1.541,1.541,0,0,1,26.7,2.568V4.108H1.027ZM16.433,19.515V24.65H2.568a1.541,1.541,0,0,1-1.541-1.541V5.135H26.7v6.056a5.642,5.642,0,0,0-8.73,4.729v2.568H17.46A1.027,1.027,0,0,0,16.433,19.515Zm13.352,1.027H28.245a.514.514,0,1,0,0,1.027h1.541V22.6H28.245a.514.514,0,1,0,0,1.027h1.541V24.65H28.245a.514.514,0,1,0,0,1.027h1.541V26.7H28.245a.514.514,0,0,0,0,1.027h1.489a2.572,2.572,0,0,1-2.516,2.054h-7.19a2.572,2.572,0,0,1-2.516-2.054H19A.514.514,0,1,0,19,26.7H17.46V25.677H19a.514.514,0,1,0,0-1.027H17.46V23.623H19A.514.514,0,1,0,19,22.6H17.46V21.569H19a.514.514,0,1,0,0-1.027H17.46V19.515H29.785v1.027Z" fill="#3dadd9"/><path d="M21.81,23.77v1.122a.514.514,0,0,0,1.027,0V23.77a1.54,1.54,0,1,0-1.027,0Zm.514-1.96a.514.514,0,1,1-.514.514A.514.514,0,0,1,22.324,21.81Z" transform="translate(1.299 1.299)" fill="#3dadd9"/><path d="M8.549,9.848a.513.513,0,0,0-.514.514V11.9H3.927V7.794H5.981a.514.514,0,0,0,0-1.027H3.927A1.027,1.027,0,0,0,2.9,7.794V11.9a1.027,1.027,0,0,0,1.027,1.027H8.035A1.027,1.027,0,0,0,9.063,11.9V10.361A.514.514,0,0,0,8.549,9.848Z" transform="translate(0.181 0.423)" fill="#3dadd9"/><path d="M5.226,8.971A.514.514,0,0,0,4.5,9.7l1.027,1.027a.514.514,0,0,0,.363.15h.023a.514.514,0,0,0,.371-.184L8.852,7.61a.514.514,0,1,0-.789-.658L5.855,9.6Z" transform="translate(0.272 0.423)" fill="#3dadd9"/><path d="M8.549,18.065a.513.513,0,0,0-.514.514v1.541H3.927V16.01H5.981a.514.514,0,0,0,0-1.027H3.927A1.027,1.027,0,0,0,2.9,16.01v4.108a1.027,1.027,0,0,0,1.027,1.027H8.035a1.027,1.027,0,0,0,1.027-1.027V18.578A.514.514,0,0,0,8.549,18.065Z" transform="translate(0.181 0.936)" fill="#3dadd9"/><path d="M5.226,17.188a.514.514,0,0,0-.726.726l1.027,1.027a.514.514,0,0,0,.363.15h.023a.514.514,0,0,0,.371-.184l2.568-3.081a.514.514,0,0,0-.789-.658l-2.208,2.65Z" transform="translate(0.272 0.936)" fill="#3dadd9"/><path d="M10.664,8.277h4.108a.514.514,0,0,0,0-1.027H10.664a.514.514,0,0,0,0,1.027Z" transform="translate(0.634 0.453)" fill="#3dadd9"/><path d="M17.853,10.18a.513.513,0,0,0-.514-.514H10.664a.514.514,0,1,0,0,1.027H17.34A.514.514,0,0,0,17.853,10.18Z" transform="translate(0.634 0.604)" fill="#3dadd9"/><path d="M14.772,15.467H10.664a.514.514,0,0,0,0,1.027h4.108a.514.514,0,0,0,0-1.027Z" transform="translate(0.634 0.967)" fill="#3dadd9"/><path d="M14.258,17.883H10.664a.514.514,0,1,0,0,1.027h3.595a.514.514,0,0,0,0-1.027Z" transform="translate(0.634 1.118)" fill="#3dadd9"/></g></g></svg>