<svg xmlns="http://www.w3.org/2000/svg" xmlns:xlink="http://www.w3.org/1999/xlink" width="25" height="27" viewBox="0 0 25 27"><defs><clipPath id="a"><rect width="25" height="27" transform="translate(240 390)" fill="#3dadd9"/></clipPath></defs><g transform="translate(-240 -390)" clip-path="url(#a)"><g transform="translate(240 392.52)"><g transform="translate(0)"><path d="M23.951,6.622h-1.86L20.6,4.411a1.243,1.243,0,0,0-1.235-1.092h-10A1.243,1.243,0,0,0,8.134,4.411L6.646,6.622H4.786A2.908,2.908,0,0,0,1.87,9.512V23.548a2.076,2.076,0,0,0,2.081,2.063H24.786a2.076,2.076,0,0,0,2.084-2.064V9.511a2.908,2.908,0,0,0-2.919-2.889ZM9.369,4.143h10a.418.418,0,0,1,.373.2.41.41,0,0,1,0,.422.418.418,0,0,1-.373.2h-10A.418.418,0,0,1,9,4.766a.41.41,0,0,1,0-.422.418.418,0,0,1,.373-.2Zm-.9,1.265a1.248,1.248,0,0,0,.9.388h10a1.248,1.248,0,0,0,.9-.388l.817,1.214H7.648ZM23.953,7.447a2.083,2.083,0,0,1,.739.14,2.045,2.045,0,0,0-.322,1.1v7.43a.415.415,0,0,1-.417.413h-7.4a4.168,4.168,0,0,0,.308-1.362,2.566,2.566,0,0,0-2.325-2.761,2.49,2.49,0,0,0-2.666,2.472,4.229,4.229,0,0,0,.315,1.651h-7.4a.415.415,0,0,1-.417-.413V8.689a2.045,2.045,0,0,0-.322-1.1,2.083,2.083,0,0,1,.739-.14ZM12.7,14.878a1.645,1.645,0,0,1,.528-1.206,1.676,1.676,0,0,1,1.249-.442,1.759,1.759,0,0,1,1.548,1.891,3.333,3.333,0,0,1-.148.825,1.247,1.247,0,0,0-1.094-.653h-.833a1.248,1.248,0,0,0-1.094.652,3.418,3.418,0,0,1-.155-1.067Zm2.5,3.3H13.535v-1.65a.415.415,0,0,1,.417-.413h.833a.415.415,0,0,1,.417.413Zm.417.825v.826h-2.5v-.824Zm-2.084,1.652H15.2v1.651a.833.833,0,0,1-1.667,0Zm12.5,2.89a1.232,1.232,0,0,1-.364.877,1.255,1.255,0,0,1-.884.365H3.951A1.244,1.244,0,0,1,2.7,23.549V9.513a2.047,2.047,0,0,1,.637-1.481,1.224,1.224,0,0,1,.2.655v7.428a1.244,1.244,0,0,0,1.25,1.239h7.751a2.19,2.19,0,0,1,.165.826V18.3a.818.818,0,0,0-.417.71v.826a.818.818,0,0,0,.417.71v1.766a1.666,1.666,0,0,0,3.333,0V20.543a.818.818,0,0,0,.417-.71v-.827a.818.818,0,0,0-.417-.71v-.117a2.19,2.19,0,0,1,.165-.826h7.753a1.244,1.244,0,0,0,1.25-1.239V8.687a1.224,1.224,0,0,1,.2-.655,2.047,2.047,0,0,1,.637,1.481Z" transform="translate(-1.87 -3.318)" fill="#3dadd9"/><path d="M5.052,26.517H4.217a.413.413,0,1,0,0,.826h.835a.413.413,0,1,0,0-.826Z" transform="translate(-2.136 -6.702)" fill="#3dadd9"/><path d="M12.119,26.517h-5a.413.413,0,1,0,0,.826h5a.413.413,0,1,0,0-.826Z" transform="translate(-2.536 -6.702)" fill="#3dadd9"/><path d="M28.252,26.517h-.835a.413.413,0,1,0,0,.826h.835a.413.413,0,1,0,0-.826Z" transform="translate(-5.336 -6.702)" fill="#3dadd9"/><path d="M24.684,26.517h-5a.413.413,0,1,0,0,.826h5a.413.413,0,1,0,0-.826Z" transform="translate(-4.269 -6.702)" fill="#3dadd9"/></g></g></g></svg>