<svg xmlns="http://www.w3.org/2000/svg" xmlns:xlink="http://www.w3.org/1999/xlink" width="29" height="32" viewBox="0 0 29 32"><defs><clipPath id="a"><rect width="29" height="32" transform="translate(244 388)" fill="#3dadd9"/></clipPath></defs><g transform="translate(-244 -388)" clip-path="url(#a)"><g transform="translate(237.751 383.249)"><path d="M21.093,25.58H7.182V22.445a2.269,2.269,0,0,1,2.269-2.269,3.992,3.992,0,0,0,1.362-.288l2.5,3.553a1.016,1.016,0,0,0,.83.431h0a1.016,1.016,0,0,0,.83-.431l2.494-3.553a3.85,3.85,0,0,0,1.361.287,2.269,2.269,0,0,1,2.269,2.269v3.134Zm-8.115-8.369a3.389,3.389,0,0,0,2.32,0,3.655,3.655,0,0,0,1.358,2.2L14.2,22.9a.075.075,0,0,1-.066.034.081.081,0,0,1-.066-.034l-2.451-3.491a3.656,3.656,0,0,0,1.357-2.2Zm-2.2-4.746a5.294,5.294,0,0,0,1.358-1.9c.046.042.095.081.145.12a1.79,1.79,0,0,0,1.078.357h3.18a1.11,1.11,0,0,1,1.012.656.04.04,0,0,0,0,.01c0,2.635-1.529,4.782-3.4,4.782a2.918,2.918,0,0,1-2.233-1.179,5.523,5.523,0,0,1-1.135-2.837Zm1.54-5.231a2.278,2.278,0,0,1,.534-.087.469.469,0,0,0,.2-.053,3.176,3.176,0,0,1,1.488-.374A3.653,3.653,0,0,1,18,10.528c0,.063,0,.126,0,.189a2.032,2.032,0,0,0-1.457-.611h-3.18a.87.87,0,0,1-.811-.545.572.572,0,0,0-1.084.071,4.321,4.321,0,0,1-1.054,1.889c-.469-1.931.378-3.848,1.9-4.289Zm6.621,12.011a2.731,2.731,0,0,1-2.756-2.488,4.671,4.671,0,0,0,1.078-1.065,6.476,6.476,0,0,0,1.166-3.044.452.452,0,0,0,.118-.162,5.025,5.025,0,0,0,.389-1.955,4.584,4.584,0,0,0-4.4-4.742,4.075,4.075,0,0,0-1.829.434,3.235,3.235,0,0,0-.649.116A3.638,3.638,0,0,0,9.774,8.417a5.161,5.161,0,0,0-.256,3.389,5.516,5.516,0,0,0,.237.718.471.471,0,0,0,.109.162A5.833,5.833,0,0,0,12.1,16.759,2.734,2.734,0,0,1,9.348,19.25a3.206,3.206,0,0,0-3.1,3.2v3.6a.466.466,0,0,0,.466.467H21.56a.467.467,0,0,0,.467-.467v-3.6a3.206,3.206,0,0,0-3.094-3.2Z" fill="#3dadd9"/><path d="M33.871,31.5h-13.5a1.378,1.378,0,0,1-1.378-1.378V22.614a1.378,1.378,0,0,1,1.378-1.378h13.5a1.378,1.378,0,0,1,1.378,1.378v7.507A1.378,1.378,0,0,1,33.871,31.5Zm-13.5-9.249a.362.362,0,0,0-.362.362v7.507a.362.362,0,0,0,.362.362h13.5a.362.362,0,0,0,.361-.362v-7.5a.362.362,0,0,0-.361-.362Z" fill="#3dadd9"/><path d="M31.092,22.249H23.149v-1.6A1.553,1.553,0,0,1,24.7,19.1h4.837a1.554,1.554,0,0,1,1.551,1.551Zm-6.923-1.013h5.906v-.583a.535.535,0,0,0-.534-.534H24.7a.535.535,0,0,0-.534.534Z" fill="#3dadd9"/><path d="M27.106,28.231a2,2,0,0,1-1.886-1.357h-2.57a1.621,1.621,0,0,1-1.621-1.621V21.236H32.934v4.023a1.621,1.621,0,0,1-1.621,1.621h-2.32A2.005,2.005,0,0,1,27.106,28.231Zm-5.059-5.982v3.006a.6.6,0,0,0,.6.6H26.1l.039.466a.973.973,0,0,0,1.94,0l.039-.466h3.2a.6.6,0,0,0,.6-.6V22.249Z" fill="#3dadd9"/><path d="M31.088,17.854H29.953c-.13-.275-.272-.544-.422-.806a11.744,11.744,0,0,0-6.937-5.431q-.338-.1-.683-.173l.7.658-1.195.036-.978-.921-.469-.438h0l.55-.583.816-.866,1.194-.036-.973,1.037c.342.058.68.131,1.013.216a12.782,12.782,0,0,1,8.167,6.55Q30.921,17.466,31.088,17.854Z" fill="#3dadd9"/><path d="M25.945,33.036h0l-.124.811-.178,1.16-.963.708.209-1.371q-.452.218-.923.4A12.725,12.725,0,0,1,7.853,28.231H9c.007.015.015.03.023.045a11.69,11.69,0,0,0,14.307,5.6q.357-.126.7-.278l-1.024-.156.962-.708h0l1.349.206.62.095Z" fill="#3dadd9"/></g></g></svg>