<svg xmlns="http://www.w3.org/2000/svg" xmlns:xlink="http://www.w3.org/1999/xlink" width="34" height="37" viewBox="0 0 34 37"><defs><clipPath id="a"><rect width="34" height="37" transform="translate(243.833 388)" fill="#3dadd9"/></clipPath></defs><g transform="translate(-243.833 -388)" clip-path="url(#a)"><g transform="translate(244 393.814)"><path d="M32.068,5.476H2.847a.86.86,0,0,0-.86.86v7.219a.86.86,0,0,0,.86.86H24.552l.023-.157a1.756,1.756,0,0,1,.321-.8H2.947V6.437h29.02v7.017h-2.92a1.76,1.76,0,0,1,.318.806q.011.075.023.155h2.68a.86.86,0,0,0,.86-.86V6.336a.86.86,0,0,0-.86-.86Z" transform="translate(-1.987 -5.476)" fill="#3dadd9"/><path d="M6.988,7.671A1.908,1.908,0,1,0,8.9,9.579,1.908,1.908,0,0,0,6.988,7.671Zm0,2.853a.947.947,0,1,1,.95-.944.947.947,0,0,1-.95.944Z" transform="translate(-1.472 -5.111)" fill="#3dadd9"/><path d="M16,7.915a.751.751,0,1,0,.751.751A.751.751,0,0,0,16,7.915Z" transform="translate(0.224 -5.07)" fill="#3dadd9"/><path d="M17.289,9.408a.751.751,0,1,0,.751.751A.751.751,0,0,0,17.289,9.408Z" transform="translate(0.438 -4.821)" fill="#3dadd9"/><path d="M19.864,9.408a.751.751,0,1,0,.751.751A.751.751,0,0,0,19.864,9.408Z" transform="translate(0.867 -4.821)" fill="#3dadd9"/><path d="M18.577,7.915a.751.751,0,1,0,.751.751A.751.751,0,0,0,18.577,7.915Z" transform="translate(0.653 -5.07)" fill="#3dadd9"/><path d="M22.443,9.408a.751.751,0,1,0,.751.751.751.751,0,0,0-.751-.751Z" transform="translate(1.297 -4.821)" fill="#3dadd9"/><path d="M21.154,7.915a.751.751,0,1,0,.751.751A.751.751,0,0,0,21.154,7.915Z" transform="translate(1.082 -5.07)" fill="#3dadd9"/><path d="M23.732,7.915a.751.751,0,1,0,.751.751A.751.751,0,0,0,23.732,7.915Z" transform="translate(1.512 -5.07)" fill="#3dadd9"/><path d="M2.847,14.087a.86.86,0,0,0-.86.86v7.219a.86.86,0,0,0,.86.863H18.213a1.577,1.577,0,0,1-.7-.96H2.95V15.048h16.49a1.8,1.8,0,0,1,.278-.362q.286-.293.592-.6Z" transform="translate(-1.987 -4.042)" fill="#3dadd9"/><path d="M6.988,16.281A1.908,1.908,0,1,0,8.9,18.19,1.908,1.908,0,0,0,6.988,16.281Zm0,2.853a.947.947,0,1,1,.95-.944.947.947,0,0,1-.95.944Z" transform="translate(-1.472 -3.676)" fill="#3dadd9"/><path d="M16,16.528a.751.751,0,1,0,.751.751A.751.751,0,0,0,16,16.528Z" transform="translate(0.224 -3.635)" fill="#3dadd9"/><path d="M25.652,12.378a.992.992,0,0,1,.706.664,3.707,3.707,0,0,1,.08.457c.029.193.057.386.075.58a.236.236,0,0,0,.182.215q.734.291,1.458.606a.225.225,0,0,0,.266-.024c.225-.178.456-.349.686-.52a.931.931,0,0,1,1.294.083q.53.517,1.047,1.051a.931.931,0,0,1,.083,1.293c-.174.235-.359.463-.526.7a.286.286,0,0,0-.02.229c.2.505.417,1,.616,1.51a.23.23,0,0,0,.221.15c.312.044.626.079.936.138a.9.9,0,0,1,.745.888q.014.8,0,1.6a.939.939,0,0,1-.879.919c-.273.036-.546.075-.819.109a.24.24,0,0,0-.216.181c-.193.49-.4.976-.6,1.46a.225.225,0,0,0,.024.265c.178.225.349.456.52.687a.93.93,0,0,1-.083,1.292q-.518.53-1.051,1.051a.93.93,0,0,1-1.292.083c-.23-.171-.462-.342-.687-.52a.225.225,0,0,0-.265-.025c-.484.209-.969.413-1.46.6a.252.252,0,0,0-.183.233c-.04.313-.075.627-.137.936a.9.9,0,0,1-.889.745q-.8.014-1.6,0a.933.933,0,0,1-.915-.863c-.04-.273-.079-.545-.11-.818a.248.248,0,0,0-.183-.233c-.49-.191-.976-.4-1.459-.605a.225.225,0,0,0-.266.025c-.225.178-.456.349-.686.52a.929.929,0,0,1-1.293-.083q-.53-.517-1.051-1.047a.931.931,0,0,1-.083-1.293c.171-.23.342-.461.52-.687a.225.225,0,0,0,.024-.265c-.209-.484-.413-.969-.6-1.459a.249.249,0,0,0-.233-.183c-.273-.032-.546-.071-.818-.11a.94.94,0,0,1-.833-.694.256.256,0,0,0-.033-.057V20.236a.256.256,0,0,0,.033-.057.92.92,0,0,1,.782-.684c.289-.047.579-.086.869-.12a.252.252,0,0,0,.233-.183c.191-.49.4-.976.6-1.46a.225.225,0,0,0-.024-.265c-.177-.225-.348-.456-.52-.687a.929.929,0,0,1,.083-1.292q.518-.53,1.051-1.051a.931.931,0,0,1,1.293-.083c.23.171.461.342.686.52a.225.225,0,0,0,.266.025q.725-.315,1.459-.606a.237.237,0,0,0,.182-.215c.02-.194.047-.387.075-.58a1.542,1.542,0,0,1,.225-.751,1.226,1.226,0,0,1,.563-.372ZM21.041,26.589c.2.062.358.1.511.164.494.2.981.411,1.477.6a.923.923,0,0,1,.625.751q.075.459.131.92c.015.122.066.168.188.167q.715-.006,1.426,0c.125,0,.17-.053.185-.172.036-.29.084-.579.123-.869a.972.972,0,0,1,.718-.833c.462-.165.918-.356,1.363-.566a.987.987,0,0,1,1.111.1c.225.175.46.343.685.521a.163.163,0,0,0,.253-.017q.5-.5,1-1a.171.171,0,0,0,.02-.267c-.2-.249-.387-.5-.569-.757a.917.917,0,0,1-.075-.963c.216-.5.428-1,.625-1.5a.931.931,0,0,1,.762-.639c.306-.048.613-.093.92-.131.124-.016.165-.075.164-.192q-.005-.715,0-1.43a.154.154,0,0,0-.158-.179c-.3-.037-.59-.085-.886-.125a.971.971,0,0,1-.826-.7c-.17-.468-.361-.929-.572-1.379a.981.981,0,0,1,.092-1.1c.173-.225.343-.461.52-.686a.172.172,0,0,0-.012-.267q-.5-.495-1-1a.17.17,0,0,0-.267-.015c-.249.194-.5.387-.757.569a.913.913,0,0,1-.947.081c-.51-.218-1.022-.434-1.538-.639a.915.915,0,0,1-.616-.741q-.075-.458-.131-.92c-.016-.128-.068-.179-.2-.177q-.707.007-1.413,0c-.132,0-.181.053-.2.18-.034.29-.083.579-.122.869a.966.966,0,0,1-.691.817c-.471.175-.939.365-1.395.577a.982.982,0,0,1-1.1-.1c-.229-.174-.461-.343-.685-.521a.169.169,0,0,0-.267.017q-.489.5-.987.986a.178.178,0,0,0-.021.28c.191.243.379.49.559.743a.931.931,0,0,1,.08.976c-.215.493-.423.989-.617,1.49a.94.94,0,0,1-.775.648c-.3.046-.6.093-.9.128-.131.016-.175.075-.174.2q.007.706,0,1.413a.161.161,0,0,0,.167.189c.3.036.591.085.887.125a.96.96,0,0,1,.813.694c.174.472.367.938.578,1.395a.974.974,0,0,1-.091,1.082c-.173.229-.342.461-.52.686a.178.178,0,0,0,.013.28q.5.488.987.987a.179.179,0,0,0,.281.014c.229-.182.457-.368.7-.526A4.167,4.167,0,0,1,21.041,26.589Z" transform="translate(0.324 -4.327)" fill="#3dadd9"/><path d="M23.971,16.659a3.829,3.829,0,1,1-3.829,3.821A3.829,3.829,0,0,1,23.971,16.659Zm0,.826a3,3,0,1,0,3,3,3,3,0,0,0-3-3Z" transform="translate(1.039 -3.613)" fill="#3dadd9"/></g></g></svg>