<svg xmlns="http://www.w3.org/2000/svg" xmlns:xlink="http://www.w3.org/1999/xlink" width="25" height="28" viewBox="0 0 25 28"><defs><clipPath id="a"><rect width="25" height="28" transform="translate(236.052 389.85)" fill="#3dadd9"/></clipPath></defs><g transform="translate(-236.052 -389.85)" clip-path="url(#a)"><g transform="translate(236 390.866)"><path d="M18.079,24.415H16.348a.433.433,0,0,0,0,.866h1.731a.433.433,0,1,0,0-.866Z" transform="translate(-4.662 -5.371)" fill="#3dadd9"/><path d="M24.556,2.415H6.378a1.3,1.3,0,0,0-1.3,1.3V4.9L2.97,8.7a.187.187,0,0,0-.011.027c0,.011-.009.022-.014.034a.43.43,0,0,0-.03.149v1.3a2.168,2.168,0,0,0,1.731,2.12v9.566A2.167,2.167,0,0,0,6.81,24.056h3.9v1.731H8.975a.866.866,0,0,0-.866.866v.866a.866.866,0,0,0,.866.866H21.959a.866.866,0,0,0,.869-.866v-.866a.866.866,0,0,0-.866-.866H20.231V24.056h3.892a2.167,2.167,0,0,0,2.164-2.164V12.327a2.168,2.168,0,0,0,1.731-2.12v-1.3a.445.445,0,0,0-.03-.149c0-.012-.009-.023-.014-.034a.187.187,0,0,0-.011-.027L25.855,4.9V3.713a1.3,1.3,0,0,0-1.3-1.3Zm.866,9.912v7.4H5.515v-7.4a2.165,2.165,0,0,0,1.3-.836,2.144,2.144,0,0,0,3.463,0,2.144,2.144,0,0,0,3.463,0,2.144,2.144,0,0,0,3.463,0,2.144,2.144,0,0,0,3.463,0,2.144,2.144,0,0,0,3.463,0,2.165,2.165,0,0,0,1.3.836Zm-1.731-2.12a1.3,1.3,0,1,1-2.6,0V9.34h2.6Zm-3.463,0a1.3,1.3,0,0,1-2.6,0V9.34h2.6Zm-3.463,0a1.3,1.3,0,0,1-2.6,0V9.34h2.6Zm-3.463,0a1.3,1.3,0,0,1-2.6,0V9.34h2.6Zm-3.463,0a1.3,1.3,0,0,1-2.6,0V9.34h2.6Zm14.6-1.732-.766-2.3a.434.434,0,1,0-.824.273l.677,2.028h-2.5L20.655,6.24a.433.433,0,1,0-.854.142l.349,2.093H17.631v-1.3a.433.433,0,1,0-.866,0v1.3H14.171v-1.3a.433.433,0,0,0-.866,0v1.3H10.784l.349-2.093a.433.433,0,1,0-.854-.142L9.907,8.477h-2.5l.676-2.029a.434.434,0,1,0-.824-.273L6.5,8.476H4.083L5.766,5.448h19.4l1.683,3.03ZM5.945,3.713a.433.433,0,0,1,.433-.433H24.556a.433.433,0,0,1,.433.433v.866H5.945ZM3.781,10.206V9.34h2.6v.866a1.3,1.3,0,1,1-2.6,0ZM21.959,27.519H8.975v-.866H21.959Zm-2.6-1.731H11.571V24.056h7.791Zm4.761-2.6H6.81a1.3,1.3,0,0,1-1.3-1.3v-1.3h19.91v1.3a1.3,1.3,0,0,1-1.3,1.3ZM25.855,11.5a1.3,1.3,0,0,1-1.3-1.3V9.34h2.6v.866a1.3,1.3,0,0,1-1.3,1.3Z" transform="translate(-2.915 -2.415)" fill="#3dadd9"/><path d="M10.213,15.415H9.348a.433.433,0,0,0,0,.866h.866a.433.433,0,1,0,0-.866Z" transform="translate(-3.721 -4.162)" fill="#3dadd9"/><path d="M17.542,15.415H12.348a.433.433,0,0,0,0,.866h5.194a.433.433,0,1,0,0-.866Z" transform="translate(-4.124 -4.162)" fill="#3dadd9"/><path d="M10.213,17.415H9.348a.433.433,0,1,0,0,.866h.866a.433.433,0,1,0,0-.866Z" transform="translate(-3.721 -4.43)" fill="#3dadd9"/><path d="M17.542,17.415H12.348a.433.433,0,1,0,0,.866h5.194a.433.433,0,1,0,0-.866Z" transform="translate(-4.124 -4.43)" fill="#3dadd9"/><path d="M10.213,19.415H9.348a.433.433,0,1,0,0,.866h.866a.433.433,0,1,0,0-.866Z" transform="translate(-3.721 -4.699)" fill="#3dadd9"/><path d="M17.542,19.415H12.348a.433.433,0,1,0,0,.866h5.194a.433.433,0,1,0,0-.866Z" transform="translate(-4.124 -4.699)" fill="#3dadd9"/><path d="M24.532,17.395a2.615,2.615,0,0,0-1.021-.353V15.767a1.616,1.616,0,0,1,.562.2.433.433,0,0,0,.459-.736,2.566,2.566,0,0,0-1.021-.337v-.044a.433.433,0,0,0-.866,0v.044a2.554,2.554,0,0,0-1.021.34,1.257,1.257,0,0,0,0,2.264,2.605,2.605,0,0,0,1.021.353v1.277a1.623,1.623,0,0,1-.563-.2.433.433,0,0,0-.458.734,2.606,2.606,0,0,0,1.021.35v.032a.433.433,0,0,0,.866,0v-.032a2.6,2.6,0,0,0,1.021-.353,1.255,1.255,0,0,0,0-2.264Zm-2.752-1.031a.537.537,0,0,1,.3-.4,1.623,1.623,0,0,1,.563-.2v1.2a1.692,1.692,0,0,1-.563-.206.537.537,0,0,1-.3-.4Zm2.3,2.562a1.616,1.616,0,0,1-.562.2v-1.2a1.671,1.671,0,0,1,.562.206.412.412,0,0,1,0,.8Z" transform="translate(-5.333 -4.027)" fill="#3dadd9"/></g></g></svg>