<svg id="facebook-group" xmlns="http://www.w3.org/2000/svg" width="32" height="32" viewBox="0 0 32 32">
  <rect id="Rectangle_933" data-name="Rectangle 933" width="32" height="32" fill="#0074fd"/>
  <path id="Path_1132" data-name="Path 1132" d="M272.726,191.628c.2.081.4.172.6.253a.222.222,0,0,1,.153.2,1.522,1.522,0,0,1-.045.668.291.291,0,0,1-.28.253.31.31,0,0,0-.145.073c-.036.027-.072.063-.108.09.407.172.831.37,1.255.587a2.31,2.31,0,0,1,.533.388l.136.144v.687h3.306a1.466,1.466,0,0,0-1.048-1.211c-.37-.136-.741-.3-1.111-.46-.109-.045-.18-.154-.271-.226a.426.426,0,0,0-.144-.073.284.284,0,0,1-.28-.253,1.516,1.516,0,0,1-.045-.668.223.223,0,0,1,.154-.2c.2-.081.4-.163.6-.253.145-.064.154-.118.109-.271a5.592,5.592,0,0,1-.334-1.492,5.865,5.865,0,0,0-.1-.976h-.009c-.009-.027-.009-.063-.018-.09a1.36,1.36,0,0,0-1.256-.9h-.009a.571.571,0,0,0-.117.009,3.67,3.67,0,0,0-.6.226.9.9,0,0,0-.524.587,3.818,3.818,0,0,0-.145,1.157,6.343,6.343,0,0,1-.334,1.492C272.573,191.51,272.582,191.565,272.726,191.628Z" transform="translate(-253.294 -174.38)" fill="#fff"/>
  <path id="Path_1133" data-name="Path 1133" d="M106.056,192.637l.154-.144a2.306,2.306,0,0,1,.533-.371l.154-.081c.216-.117.443-.235.668-.343.117-.054.243-.108.361-.163a2.035,2.035,0,0,1-.073-.217c-.027-.09-.045-.18-.163-.207a.147.147,0,0,1-.072-.09,5.278,5.278,0,0,1-.054-.533.19.19,0,0,1,.045-.118,1.165,1.165,0,0,0,.28-.6,2.035,2.035,0,0,1,.118-.334c.045-.154.081-.308.117-.461.009-.054.009-.117.018-.172.009-.081.009-.144-.09-.181-.027-.009-.054-.072-.054-.117-.009-.253,0-.5,0-.75,0-.153,0-.307-.009-.46a.964.964,0,0,0-.407-.678,1.559,1.559,0,0,0-1.075-.47h-.054a1.6,1.6,0,0,0-1.075.47.947.947,0,0,0-.407.678c-.009.153-.009.307-.009.46v.752c0,.045-.027.108-.054.117-.1.037-.1.1-.09.181a1.054,1.054,0,0,0,.018.171c.036.153.072.307.117.461a3.048,3.048,0,0,1,.117.334,1.073,1.073,0,0,0,.28.6.191.191,0,0,1,.045.118c-.009.18-.027.352-.054.533-.009.036-.045.09-.073.09-.117.027-.136.117-.163.207-.036.127-.081.244-.126.361a.217.217,0,0,1-.091.091c-.207.09-.424.172-.641.262s-.452.19-.678.289-.452.235-.668.353a1.439,1.439,0,0,0-.353.244v.388h3.532l-.027-.668Z" transform="translate(-94.772 -172.74)" fill="#fff"/>
  <path id="Path_1134" data-name="Path 1134" d="M170.443,171.406a23.41,23.41,0,0,0-2.394-1.039.331.331,0,0,1-.163-.127c-.064-.144-.108-.3-.163-.452a.3.3,0,0,0-.163-.235c-.027-.009-.054-.073-.054-.108.009-.353-.073-.732.19-1.039.009-.009.009-.027.018-.036a5.829,5.829,0,0,1,.37-.957.034.034,0,0,0,.009-.027c.027-.226.045-.443.063-.668,0-.027-.018-.073-.045-.081-.109-.037-.109-.127-.1-.217v-1.3a.832.832,0,0,0-.262-.65c-.217-.2-.443-.38-.66-.569-.108-.09-.117-.163-.018-.262a.923.923,0,0,1,.154-.108.193.193,0,0,0-.036-.054,1.488,1.488,0,0,0-.2,0,6.543,6.543,0,0,0-.732.136,3.034,3.034,0,0,0-1.283.56,1.17,1.17,0,0,0-.487.8c-.009.18-.009.361-.009.551v.9c0,.045-.027.127-.063.136-.117.036-.127.117-.108.217a1.409,1.409,0,0,0,.018.207c.045.19.09.37.136.551a3.117,3.117,0,0,1,.136.407,1.345,1.345,0,0,0,.334.719.253.253,0,0,1,.054.136c-.018.217-.036.425-.063.641a.173.173,0,0,1-.081.108c-.144.027-.163.136-.2.253a4.2,4.2,0,0,1-.153.434.214.214,0,0,1-.108.108c-.253.108-.506.207-.759.316-.271.118-.542.226-.8.344s-.533.28-.8.416a1.763,1.763,0,0,0-.425.289v.47h9.269v-.488A2.852,2.852,0,0,0,170.443,171.406Z" transform="translate(-149.81 -151.61)" fill="#fff"/>
</svg>
