<svg id="linked_in" data-name="linked in" xmlns="http://www.w3.org/2000/svg" width="32" height="32" viewBox="0 0 32 32">
  <path id="Path_1138" data-name="Path 1138" d="M31.742-.15H.5v32h32v-32Z" transform="translate(-0.5 0.15)" fill="#0e76a8"/>
  <path id="Path_1139" data-name="Path 1139" d="M39.32,76.141H66.492V50.29H39.32Zm7.143-2.793a.743.743,0,0,1-.742.744H42.562a.743.743,0,0,1-.742-.744V59.834a.743.743,0,0,1,.742-.744h3.159a.743.743,0,0,1,.742.744ZM49.4,59.4a.314.314,0,0,1,.311-.312h3.943a.314.314,0,0,1,.311.312V61.06a.2.2,0,0,1,.042.007,3.847,3.847,0,0,1,.247-.4,4.528,4.528,0,0,1,3.731-1.955H58.8a5.121,5.121,0,0,1,5.117,5.128l.014,9.951a.314.314,0,0,1-.311.312H59.58a.314.314,0,0,1-.311-.312V65.444a2.608,2.608,0,1,0-5.216.028v8.311a.314.314,0,0,1-.311.312H49.714a.314.314,0,0,1-.311-.312ZM44.16,51.619a2.7,2.7,0,1,1-2.721,2.691A2.7,2.7,0,0,1,44.16,51.619Z" transform="translate(-36.688 -46.871)" fill="#0e76a8"/>
  <path id="Path_1140" data-name="Path 1140" d="M103.851,105.449a2.06,2.06,0,1,0-2.061-2.061A2.048,2.048,0,0,0,103.851,105.449Z" transform="translate(-94.639 -94.166)" fill="#fff"/>
  <rect id="Rectangle_936" data-name="Rectangle 936" width="3.545" height="11.428" rx="1.773" transform="translate(7.447 13.294)" fill="#fff"/>
  <path id="Path_1141" data-name="Path 1141" d="M191.737,192.831h3.076a.239.239,0,0,0,.237-.237v-6.331a1.99,1.99,0,1,1,3.979-.022V192.6a.239.239,0,0,0,.237.237h3.086a.239.239,0,0,0,.237-.237l-.005-7.581a3.905,3.905,0,0,0-3.906-3.906h-.62a3.457,3.457,0,0,0-2.847,1.492,2.9,2.9,0,0,0-.189.307.15.15,0,0,0-.032-.005v-1.268a.24.24,0,0,0-.238-.237h-3.014a.239.239,0,0,0-.237.237v10.956a.239.239,0,0,0,.237.239Z" transform="translate(-177.828 -168.113)" fill="#fff"/>
</svg>
