<svg id="twitter" xmlns="http://www.w3.org/2000/svg" width="32" height="31.966" viewBox="0 0 32 31.966">
  <path id="Path_1142" data-name="Path 1142" d="M.034-.17v.136H0V31.8H32V-.17Z" transform="translate(0 0.17)" fill="#50abf1"/>
  <path id="Path_1143" data-name="Path 1143" d="M103.71,138.861h0a11.1,11.1,0,0,0,10.7.3,9.823,9.823,0,0,0,5.447-8.668q0-.2-.009-.407a8.059,8.059,0,0,0,1.829-1.763,8.978,8.978,0,0,1-2.091.51h0c.1-.06,1.427-.913,1.607-1.927a13.345,13.345,0,0,1-1.793.7c-.173.054-.354.107-.541.157a3.864,3.864,0,0,0-4.434-.689,3.4,3.4,0,0,0-1.859,3.848,11.432,11.432,0,0,1-7.579-3.6s-1.765,2.266,1.052,4.6a3.977,3.977,0,0,1-1.6-.447,3.313,3.313,0,0,0,2.919,3.447,3.607,3.607,0,0,1-1.629.068,3.571,3.571,0,0,0,3.394,2.425A7.412,7.412,0,0,1,103.71,138.861Z" transform="translate(-96.679 -117.535)" fill="#fff"/>
</svg>
